<svg width="218" height="43" viewBox="0 0 218 43" fill="none" xmlns="http://www.w3.org/2000/svg">
<path d="M25.9907 0H38L28.0093 43H16L25.9907 0Z" fill="#229ADE"/>
<path d="M44.8671 0H57L49.1358 33H37L44.8671 0Z" fill="#229ADE"/>
<path d="M7.86711 0H20L12.1358 33H0L7.86711 0Z" fill="#229ADE"/>
<path d="M76.0977 26.0742C76.3555 24.75 75.6406 23.7246 73.9531 22.998L71.0703 21.8027C67.0273 19.9863 65.1055 17.5137 65.3047 14.3848C65.3867 12.9551 65.8789 11.6836 66.7812 10.5703C67.6836 9.44531 68.9316 8.57227 70.5254 7.95117C72.1191 7.33008 73.8594 7.03125 75.7461 7.05469C78.2773 7.10156 80.3105 7.83984 81.8457 9.26953C83.3926 10.6992 84.1543 12.6152 84.1309 15.0176H78.1543C78.1895 14.0332 77.9785 13.248 77.5215 12.6621C77.0762 12.0645 76.3379 11.7539 75.3066 11.7305C74.2988 11.707 73.4082 11.9414 72.6348 12.4336C71.8613 12.9258 71.4043 13.5879 71.2637 14.4199C71.041 15.5918 71.9082 16.5527 73.8652 17.3027C75.834 18.0527 77.2637 18.6973 78.1543 19.2363C80.9551 20.9121 82.2676 23.1738 82.0918 26.0215C81.998 27.498 81.5234 28.793 80.668 29.9062C79.8125 31.0195 78.623 31.8809 77.0996 32.4902C75.5879 33.0996 73.8887 33.3926 72.002 33.3691C70.6191 33.3457 69.3359 33.1289 68.1523 32.7188C66.9688 32.3086 65.9551 31.7109 65.1113 30.9258C63.4004 29.3438 62.5801 27.2637 62.6504 24.6855L68.6797 24.7031C68.6094 26.0156 68.8613 27.0117 69.4355 27.6914C70.0098 28.3594 70.9766 28.6934 72.3359 28.6934C73.3438 28.6934 74.1816 28.4648 74.8496 28.0078C75.5293 27.5391 75.9453 26.8945 76.0977 26.0742ZM92.1816 16.0547C93.5996 14.4023 95.2344 13.5879 97.0859 13.6113C98.9961 13.6582 100.408 14.3555 101.322 15.7031C102.248 17.0508 102.582 18.8789 102.324 21.1875L100.355 33H94.5723L96.5586 21.1172C96.6055 20.7188 96.6172 20.3438 96.5938 19.9922C96.5117 18.832 95.8672 18.2344 94.6602 18.1992C93.6172 18.1758 92.6914 18.5566 91.8828 19.3418L89.457 33H83.6738L88.3672 6H94.1504L92.1816 16.0547ZM114.436 33C114.271 32.543 114.189 31.9688 114.189 31.2773C112.889 32.707 111.336 33.3984 109.531 33.3516C107.879 33.3281 106.508 32.7773 105.418 31.6992C104.328 30.6211 103.818 29.3145 103.889 27.7793C103.947 25.7168 104.809 24.1348 106.473 23.0332C108.137 21.9199 110.41 21.3633 113.293 21.3633L115.227 21.3984L115.438 20.3262L115.508 19.3945C115.461 18.3281 114.928 17.7773 113.908 17.7422C112.643 17.7188 111.863 18.416 111.57 19.834L105.77 19.8516C105.828 18.5742 106.244 17.4668 107.018 16.5293C107.791 15.5801 108.84 14.8535 110.164 14.3496C111.5 13.834 112.918 13.5938 114.418 13.6289C115.859 13.6641 117.119 13.9687 118.197 14.543C119.287 15.1055 120.102 15.8965 120.641 16.916C121.18 17.9238 121.385 19.0898 121.256 20.4141L119.832 29.3613L119.744 30.4512C119.697 31.3184 119.809 32.0566 120.078 32.666L120.061 33H114.436ZM111.131 29.168C112.314 29.2148 113.352 28.6934 114.242 27.6035L114.822 24.5449L113.328 24.5273C112.402 24.5508 111.605 24.8262 110.938 25.3535C110.27 25.8691 109.877 26.5781 109.76 27.4805C109.701 27.9609 109.789 28.3594 110.023 28.6758C110.27 28.9805 110.639 29.1445 111.131 29.168ZM131.24 25.9863L129.131 27.8145L128.234 33H122.451L127.145 5.98242H132.928L130.256 20.3965L130.959 19.5527L136.215 13.9805H143.545L135.459 22.0664L140.363 33H134.018L131.24 25.9863ZM150.787 33.3516C149.088 33.3398 147.57 32.9414 146.234 32.1562C144.91 31.3594 143.908 30.2578 143.229 28.8516C142.549 27.4336 142.279 25.875 142.42 24.1758L142.473 23.6836C142.789 20.5547 143.873 18.082 145.725 16.2656C147.588 14.4375 149.867 13.5586 152.562 13.6289C154.191 13.6523 155.586 14.0684 156.746 14.877C157.906 15.6738 158.756 16.7812 159.295 18.1992C159.834 19.6055 160.01 21.1875 159.822 22.9453L159.488 25.3535H148.168C148.191 26.3496 148.473 27.1582 149.012 27.7793C149.551 28.4004 150.336 28.7285 151.367 28.7637C153.043 28.8105 154.549 28.166 155.885 26.8301L158.311 30.0469C157.596 31.0664 156.594 31.8691 155.305 32.4551C154.027 33.0293 152.627 33.3281 151.104 33.3516H150.787ZM152.193 18.1816C151.373 18.1582 150.658 18.416 150.049 18.9551C149.451 19.4941 148.93 20.3965 148.484 21.6621H154.268L154.373 21.1523C154.443 20.7422 154.455 20.3555 154.408 19.9922C154.209 18.8203 153.471 18.2168 152.193 18.1816ZM161.422 30.3281C161.398 29.4375 161.703 28.6992 162.336 28.1133C162.969 27.5273 163.725 27.2344 164.604 27.2344C165.471 27.2344 166.209 27.5039 166.818 28.043C167.428 28.5703 167.744 29.2617 167.768 30.1172C167.791 30.9961 167.492 31.7344 166.871 32.332C166.25 32.918 165.488 33.2109 164.586 33.2109C163.695 33.2109 162.951 32.9414 162.354 32.4023C161.756 31.8633 161.445 31.1719 161.422 30.3281ZM177.928 33H171.916L176.363 7.40625H182.357L177.928 33ZM204.84 12.1699H197.387L193.783 33H187.754L191.375 12.1699H184.045L184.889 7.40625H205.666L204.84 12.1699Z" fill="#229ADE"/>
</svg>
