<?xml version="1.0" standalone="no"?>
<!DOCTYPE svg PUBLIC "-//W3C//DTD SVG 20010904//EN"
 "http://www.w3.org/TR/2001/REC-SVG-20010904/DTD/svg10.dtd">
<svg version="1.0" xmlns="http://www.w3.org/2000/svg"
 width="1366.000000pt" height="768.000000pt" viewBox="0 0 1366.000000 768.000000"
 preserveAspectRatio="xMidYMid meet">

<g transform="translate(0.000000,768.000000) scale(0.100000,-0.100000)"
fill="#000000" stroke="none">
<path d="M1883 7665 c0 -8 3 -13 5 -10 3 3 12 -1 20 -8 8 -6 25 -12 36 -12 12
-1 20 -6 19 -11 -1 -6 18 -10 47 -9 30 1 48 -3 47 -9 -1 -6 4 -10 11 -8 8 1
11 -2 7 -8 -5 -8 -11 -7 -22 2 -18 15 -41 19 -48 8 -2 -4 5 -7 18 -6 12 0 21
-4 20 -10 -1 -6 8 -11 20 -10 12 0 21 -4 20 -10 -1 -6 8 -11 20 -10 12 0 21
-4 20 -10 -1 -6 10 -10 25 -9 15 1 26 6 25 12 -1 5 4 10 12 10 8 0 13 -5 12
-11 -1 -6 4 -10 11 -8 8 1 11 -2 7 -8 -3 -6 -10 -8 -15 -5 -5 3 -12 1 -15 -5
-4 -6 -1 -9 7 -8 7 2 12 -2 11 -8 -1 -6 4 -11 12 -11 8 0 13 5 12 10 -1 6 10
11 25 12 15 1 26 -3 25 -9 -1 -6 4 -10 11 -8 8 1 11 -2 7 -8 -5 -8 -13 -6 -25
5 -12 11 -20 13 -25 5 -4 -6 -1 -9 7 -8 7 2 12 -4 10 -12 -2 -8 0 -12 4 -7 4
4 16 -1 26 -10 14 -12 19 -13 16 -4 -2 9 7 15 24 16 15 1 26 -3 25 -9 -1 -6 4
-10 11 -8 8 1 11 -2 7 -8 -5 -8 -13 -6 -25 5 -12 11 -20 13 -25 5 -4 -6 -1 -9
7 -8 7 2 12 -4 10 -12 -2 -8 0 -12 4 -7 4 4 16 -1 26 -10 14 -12 19 -13 16 -4
-2 9 7 15 23 16 15 1 26 -3 26 -11 0 -10 -4 -11 -13 -3 -8 7 -14 6 -20 -2 -4
-7 -3 -9 3 -6 6 4 16 1 22 -7 6 -7 27 -12 49 -11 26 1 39 -2 39 -11 0 -10 -4
-11 -13 -3 -9 7 -14 6 -20 -3 -4 -7 -4 -10 1 -6 4 4 15 2 23 -5 8 -6 25 -12
36 -12 12 -1 20 -6 19 -11 -1 -6 18 -10 47 -9 30 1 48 -3 47 -9 -1 -6 4 -10
11 -8 8 1 11 -2 7 -8 -5 -8 -11 -7 -22 2 -18 15 -41 19 -48 8 -2 -4 5 -7 18
-6 12 0 21 -4 20 -10 -1 -6 10 -10 25 -9 15 1 26 6 25 12 -1 5 4 10 12 10 8 0
13 -5 12 -11 -1 -6 4 -10 10 -9 7 2 12 -3 10 -10 -1 -6 4 -11 11 -9 8 1 11 -2
7 -8 -5 -8 -13 -6 -25 5 -12 11 -20 13 -25 5 -4 -6 -1 -9 7 -8 7 2 12 -2 11
-8 -1 -6 10 -10 25 -9 15 1 26 6 25 12 -1 5 4 10 12 10 8 0 13 -5 12 -11 -1
-6 4 -10 11 -8 8 1 11 -2 7 -8 -3 -6 -10 -8 -15 -5 -5 3 -12 1 -15 -5 -4 -6
-1 -9 7 -8 7 2 12 -2 11 -8 -1 -6 4 -11 12 -11 8 0 13 5 12 10 -1 6 10 11 25
12 15 1 26 -3 25 -9 -1 -6 4 -10 11 -8 8 1 11 -2 7 -8 -5 -8 -13 -6 -25 5 -12
11 -20 13 -25 5 -4 -6 -1 -9 7 -8 7 2 12 -3 11 -9 -2 -10 815 -13 3853 -13
2121 0 3860 -3 3865 -6 12 -7 12 -41 0 -48 -5 -3 -1706 -6 -3780 -6 -2075 0
-3770 -4 -3767 -9 3 -4 23 -7 44 -6 26 1 39 -2 39 -11 0 -10 -4 -11 -13 -3 -9
7 -14 6 -20 -3 -4 -7 -4 -10 1 -6 4 4 15 2 23 -5 8 -6 25 -12 36 -12 12 -1 20
-6 19 -11 -1 -6 18 -10 47 -9 30 1 48 -3 47 -9 -1 -6 4 -10 11 -8 8 1 11 -2 7
-8 -5 -8 -11 -7 -22 2 -18 15 -41 19 -48 8 -2 -4 5 -7 18 -6 12 0 21 -4 20
-10 -1 -6 10 -10 25 -9 15 1 26 6 25 12 -1 5 4 10 12 10 8 0 13 -5 12 -11 -1
-6 4 -10 10 -9 7 2 12 -3 10 -10 -1 -6 4 -11 11 -9 8 1 11 -2 7 -8 -5 -8 -13
-6 -25 5 -12 11 -20 13 -25 5 -4 -6 -1 -9 7 -8 7 2 12 -2 11 -8 -1 -6 10 -10
25 -9 15 1 26 6 25 12 -1 5 4 10 12 10 8 0 13 -5 12 -11 -1 -6 4 -10 11 -8 8
1 11 -2 7 -8 -3 -6 -10 -8 -15 -5 -5 3 -12 1 -15 -5 -4 -6 -1 -9 7 -8 7 2 12
-2 11 -8 -1 -6 4 -11 12 -11 8 0 13 5 12 10 -1 6 10 11 25 12 15 1 26 -3 25
-9 -1 -6 4 -10 11 -8 8 1 11 -2 7 -8 -5 -8 -13 -6 -25 5 -12 11 -20 13 -25 5
-4 -6 -1 -9 7 -8 7 2 12 -4 10 -12 -2 -8 0 -12 4 -7 4 4 16 -1 26 -10 14 -12
19 -13 16 -4 -2 9 7 15 24 16 15 1 26 -3 25 -9 -1 -6 8 -10 20 -10 12 1 21 -4
20 -10 -1 -6 7 -11 19 -10 11 1 21 -5 21 -12 0 -10 -4 -11 -13 -3 -8 7 -14 6
-20 -2 -4 -7 -3 -9 3 -6 6 4 16 1 22 -7 6 -7 27 -12 49 -11 26 1 39 -2 39 -11
0 -10 -4 -11 -13 -3 -9 7 -14 6 -20 -3 -4 -7 -4 -10 1 -6 4 4 15 2 23 -5 8 -6
25 -12 36 -12 12 -1 20 -6 19 -11 -1 -6 18 -10 47 -9 30 1 48 -3 47 -9 -1 -6
4 -10 11 -8 8 1 11 -2 7 -8 -5 -8 -11 -7 -22 2 -18 15 -41 19 -48 8 -2 -4 5
-7 18 -6 12 0 21 -4 20 -10 -1 -6 10 -10 25 -9 15 1 26 6 25 12 -1 5 4 10 12
10 8 0 13 -5 12 -11 -1 -6 4 -10 11 -8 6 1 11 -4 10 -10 -2 -7 3 -12 10 -10 8
1 11 -2 7 -8 -5 -8 -13 -6 -25 5 -12 11 -20 13 -25 5 -4 -6 -1 -9 7 -8 7 2 12
-2 11 -8 -1 -6 10 -10 25 -9 15 1 26 6 25 12 -1 5 4 10 12 10 8 0 13 -5 12
-11 -1 -6 4 -10 11 -8 8 1 11 -2 7 -8 -3 -6 -10 -8 -15 -5 -5 3 -12 1 -15 -5
-4 -6 -1 -9 7 -8 7 2 12 -2 11 -8 -1 -6 4 -11 12 -11 8 0 13 5 12 10 -1 6 10
11 25 12 15 1 26 -3 25 -9 -1 -6 4 -10 11 -8 8 1 11 -2 7 -8 -5 -8 -13 -6 -25
5 -12 11 -20 13 -25 5 -4 -6 -1 -9 7 -8 7 2 12 -4 10 -12 -2 -8 0 -12 4 -7 4
4 16 -1 26 -10 14 -12 19 -13 16 -4 -2 9 7 15 24 16 15 1 26 -3 25 -9 -1 -6 8
-10 20 -10 13 1 20 -2 18 -6 -7 -11 -30 -7 -48 8 -11 9 -17 10 -22 2 -4 -6 -1
-9 7 -8 7 2 12 -2 11 -8 -1 -6 17 -10 46 -9 33 1 48 -3 48 -12 0 -9 -4 -10
-13 -2 -8 7 -14 6 -20 -2 -4 -7 -3 -9 3 -6 6 4 16 1 22 -7 6 -7 27 -12 49 -11
26 1 39 -2 39 -11 0 -10 -4 -11 -13 -3 -9 7 -14 6 -20 -3 -4 -7 -4 -10 1 -6 4
4 15 2 23 -5 8 -6 25 -12 36 -12 12 -1 20 -6 19 -11 -1 -6 18 -10 47 -9 30 1
48 -3 47 -9 -1 -6 4 -10 11 -8 8 1 11 -2 7 -8 -5 -8 -11 -7 -22 2 -18 15 -41
19 -48 8 -2 -4 5 -7 18 -6 12 0 21 -4 20 -10 -1 -6 10 -10 25 -9 15 1 26 6 25
12 -1 5 4 10 12 10 8 0 13 -5 12 -11 -1 -6 4 -10 11 -8 6 1 11 -4 10 -10 -2
-7 3 -12 10 -10 8 1 11 -2 7 -8 -5 -8 -13 -6 -25 5 -12 11 -20 13 -25 5 -4 -6
-1 -9 7 -8 7 2 12 -2 11 -8 -1 -6 10 -10 25 -9 15 1 26 6 25 12 -1 5 4 10 12
10 8 0 13 -5 12 -11 -1 -6 4 -10 11 -8 8 1 11 -2 7 -8 -3 -6 -10 -8 -15 -5 -5
3 -12 1 -15 -5 -4 -6 -1 -9 7 -8 7 2 12 -2 11 -8 -1 -6 4 -11 12 -11 8 0 13 5
12 10 -1 6 10 11 25 12 15 1 26 -3 25 -9 -1 -6 4 -10 11 -8 8 1 11 -2 7 -8 -5
-8 -13 -6 -25 5 -12 11 -20 13 -25 5 -4 -6 -1 -9 7 -8 7 2 12 -4 10 -12 -2 -8
0 -12 4 -7 4 4 16 -1 26 -10 14 -12 19 -13 16 -4 -2 9 7 15 24 16 15 1 26 -3
25 -9 -1 -6 8 -10 20 -10 13 1 20 -2 18 -6 -7 -11 -30 -7 -48 8 -11 9 -17 10
-22 2 -4 -6 -1 -9 7 -8 7 2 12 -2 11 -8 -1 -6 17 -10 46 -9 33 1 48 -3 48 -12
0 -9 -4 -10 -13 -2 -8 7 -14 6 -20 -2 -4 -7 -3 -9 3 -6 6 4 16 1 22 -7 6 -7
28 -12 50 -11 24 1 39 -2 38 -9 -1 -6 12 -11 29 -10 19 0 31 -5 31 -12 0 -7
-4 -11 -9 -8 -4 3 -8 -2 -8 -11 0 -9 -4 -14 -8 -11 -5 3 -6 -14 -3 -36 11 -77
88 -102 128 -41 14 21 14 21 -27 11 -30 -8 -44 -8 -53 1 -8 8 1 11 35 11 41 0
77 18 63 32 -3 2 1 5 9 5 8 0 14 -5 13 -11 -1 -6 4 -10 10 -9 7 2 12 -3 10
-10 -1 -6 4 -11 11 -9 8 1 11 -2 7 -8 -5 -8 -13 -6 -25 5 -12 11 -20 13 -25 5
-4 -6 -1 -9 7 -8 7 2 12 -2 11 -8 -1 -6 10 -10 25 -9 15 1 26 6 25 12 -1 5 4
10 12 10 8 0 13 -5 12 -11 -1 -6 4 -10 11 -8 8 1 11 -2 7 -8 -3 -6 -10 -8 -15
-5 -5 3 -12 1 -15 -5 -4 -6 -1 -9 7 -8 7 2 12 -2 11 -8 -1 -6 4 -11 12 -11 8
0 13 5 12 10 -1 6 10 11 25 12 15 1 26 -3 25 -9 -1 -6 4 -10 11 -8 8 1 11 -2
7 -8 -5 -8 -13 -6 -25 5 -12 11 -20 13 -25 5 -4 -6 -1 -9 7 -8 7 2 12 -4 10
-12 -2 -8 0 -12 4 -7 4 4 16 -1 26 -10 14 -12 19 -13 16 -4 -2 9 7 15 24 16
15 1 26 -3 25 -9 -1 -6 8 -10 20 -10 13 1 20 -2 18 -6 -7 -11 -30 -7 -48 8
-11 9 -17 10 -22 2 -4 -6 -1 -9 7 -8 7 2 12 -2 11 -8 -1 -6 17 -10 46 -9 33 1
48 -3 48 -12 0 -9 -4 -10 -13 -2 -8 7 -14 6 -20 -2 -4 -7 -3 -9 3 -6 6 4 16 1
22 -7 6 -7 28 -12 51 -11 21 1 37 -2 34 -7 -3 -4 -9 -6 -14 -3 -5 3 -11 2 -14
-3 -3 -5 17 -8 44 -7 30 1 48 -3 47 -9 -1 -6 4 -10 11 -8 8 1 11 -2 7 -8 -5
-8 -11 -7 -22 2 -18 15 -41 19 -48 8 -2 -4 5 -7 18 -6 12 0 21 -4 20 -10 -1
-6 17 -10 47 -9 30 1 48 -3 47 -9 -1 -6 4 -10 11 -8 8 1 11 -2 7 -8 -5 -8 -11
-7 -22 2 -18 15 -41 19 -48 8 -2 -4 5 -7 18 -6 12 0 21 -4 20 -10 -1 -6 10
-10 25 -9 15 1 26 6 25 12 -1 5 4 10 12 10 8 0 13 -5 12 -11 -1 -6 4 -10 10
-9 7 2 12 -3 10 -10 -1 -6 4 -11 11 -9 8 1 11 -2 7 -8 -5 -8 -13 -6 -25 5 -12
11 -20 13 -25 5 -4 -6 -1 -9 7 -8 7 2 12 -2 11 -8 -1 -6 10 -10 25 -9 15 1 26
6 25 12 -1 5 4 10 12 10 8 0 13 -5 12 -11 -1 -6 4 -10 11 -8 8 1 11 -2 7 -8
-3 -6 -10 -8 -15 -5 -5 3 -12 1 -15 -5 -4 -6 -1 -9 7 -8 7 2 12 -2 11 -8 -1
-6 4 -11 12 -11 8 0 13 5 12 10 -1 6 10 11 25 12 15 1 26 -3 25 -9 -1 -6 4
-10 11 -8 8 1 11 -2 7 -8 -5 -8 -13 -6 -25 5 -12 11 -20 13 -25 5 -4 -6 -1 -9
7 -8 7 2 12 -4 10 -12 -2 -8 0 -12 4 -7 4 4 16 -1 26 -10 14 -12 19 -13 16 -4
-2 9 7 15 24 16 15 1 26 -3 25 -9 -1 -6 8 -10 20 -10 13 1 20 -2 18 -6 -7 -11
-30 -7 -48 8 -11 9 -17 10 -22 2 -4 -6 -1 -9 7 -8 7 2 12 -2 11 -8 -1 -6 17
-10 46 -9 33 1 48 -3 48 -12 0 -9 -4 -10 -13 -2 -9 7 -14 6 -20 -3 -4 -7 -4
-10 1 -6 4 4 15 2 23 -5 8 -6 25 -12 36 -12 12 -1 20 -6 19 -11 -1 -6 18 -10
47 -9 30 1 48 -3 47 -9 -1 -6 4 -10 11 -8 8 1 11 -2 7 -8 -5 -8 -11 -7 -22 2
-18 15 -41 19 -48 8 -2 -4 5 -7 18 -6 12 0 21 -4 20 -10 -1 -6 17 -10 47 -9
30 1 48 -3 47 -9 -1 -6 4 -10 11 -8 8 1 11 -2 7 -8 -5 -8 -11 -7 -22 2 -18 15
-41 19 -48 8 -2 -4 5 -7 18 -6 12 0 21 -4 20 -10 -1 -6 10 -10 25 -9 15 1 26
6 25 12 -1 5 4 10 12 10 8 0 13 -5 12 -11 -1 -6 4 -10 10 -9 7 2 12 -3 10 -10
-1 -6 4 -11 11 -9 8 1 11 -2 7 -8 -5 -8 -13 -6 -25 5 -12 11 -20 13 -25 5 -4
-6 -1 -9 7 -8 7 2 12 -2 11 -8 -1 -6 10 -10 25 -9 15 1 26 6 25 12 -1 5 4 10
12 10 8 0 13 -5 12 -11 -1 -6 4 -10 11 -8 8 1 11 -2 7 -8 -3 -6 -10 -8 -15 -5
-5 3 -12 1 -15 -5 -4 -6 -1 -9 7 -8 7 2 12 -2 11 -8 -1 -6 4 -11 12 -11 8 0
13 5 12 10 -1 6 10 11 25 12 15 1 26 -3 25 -9 -1 -6 4 -10 11 -8 8 1 11 -2 7
-8 -5 -8 -13 -6 -25 5 -12 11 -20 13 -25 5 -4 -6 -1 -9 7 -8 7 2 12 -4 10 -12
-2 -8 0 -12 4 -7 4 4 16 -1 26 -10 14 -12 19 -13 16 -4 -2 9 7 15 24 16 15 1
26 -3 25 -9 -1 -6 8 -10 20 -10 13 1 20 -2 18 -6 -7 -11 -30 -7 -48 8 -11 9
-17 10 -22 2 -4 -6 -1 -9 7 -8 7 2 12 -2 11 -8 -1 -6 17 -10 46 -9 33 1 48 -3
48 -12 0 -9 -4 -10 -13 -2 -9 7 -14 6 -20 -3 -4 -7 -4 -10 1 -6 4 4 15 2 23
-5 8 -6 25 -12 36 -12 12 -1 20 -6 19 -11 -1 -6 18 -10 47 -9 30 1 48 -3 47
-9 -1 -6 4 -10 11 -8 8 1 11 -2 7 -8 -5 -8 -11 -7 -22 2 -18 15 -41 19 -48 8
-2 -4 5 -7 18 -6 12 0 21 -4 20 -10 -1 -6 17 -10 47 -9 30 1 48 -3 47 -9 -1
-6 4 -10 10 -9 7 2 12 0 12 -5 -5 -32 3 -102 11 -97 6 4 8 10 6 14 -3 4 1 8 9
8 8 0 13 -5 12 -11 -1 -6 4 -10 10 -9 7 2 12 -3 10 -10 -1 -6 4 -11 11 -9 8 1
11 -2 7 -8 -5 -8 -13 -6 -25 5 -12 11 -20 13 -25 5 -4 -6 -1 -9 7 -8 7 2 12
-2 11 -8 -1 -6 10 -10 25 -9 15 1 26 6 25 12 -1 5 4 10 12 10 8 0 13 -5 12
-11 -1 -6 4 -10 11 -8 8 1 11 -2 7 -8 -3 -6 -10 -8 -15 -5 -5 3 -12 1 -15 -5
-4 -6 -1 -9 7 -8 7 2 12 -2 11 -8 -1 -6 4 -11 12 -11 8 0 13 5 12 10 -1 6 10
11 25 12 15 1 27 -1 26 -4 0 -3 1 -8 2 -11 4 -10 10 -46 12 -73 1 -16 6 -31
10 -33 5 -3 5 -11 2 -17 -4 -7 -3 -9 1 -4 5 4 17 -1 27 -10 14 -12 19 -13 16
-4 -2 9 7 15 24 16 15 1 27 -1 26 -4 0 -3 0 -8 2 -11 4 -10 11 -56 13 -87 2
-18 7 -36 11 -40 4 -5 6 -2 4 6 -2 9 6 15 24 16 15 1 26 -3 25 -9 -1 -6 8 -10
20 -10 13 1 20 -2 18 -6 -7 -11 -30 -7 -48 8 -11 9 -17 10 -22 2 -4 -6 -1 -9
7 -8 7 2 12 -2 11 -8 -1 -6 10 -10 25 -9 25 1 27 -3 33 -44 3 -25 7 301 7 725
2 584 5 773 14 782 17 17 4099 17 4116 0 9 -9 12 -409 12 -1737 0 -948 2
-1722 5 -1720 2 3 6 16 8 29 2 13 11 24 20 26 10 1 15 -2 11 -7 -3 -5 -10 -6
-16 -3 -6 4 -8 2 -5 -3 4 -6 20 -9 35 -8 19 1 29 -2 29 -11 0 -10 -4 -11 -13
-3 -9 7 -14 6 -20 -3 -4 -7 -4 -10 1 -6 4 4 15 2 23 -4 34 -29 40 -19 45 78 0
6 6 11 13 11 7 0 12 -5 11 -11 -1 -6 4 -10 11 -8 8 1 11 -2 7 -8 -3 -6 -10 -8
-15 -5 -5 3 -11 1 -14 -4 -3 -4 4 -8 17 -7 12 0 21 -4 20 -10 -1 -6 8 -11 20
-10 12 0 21 -4 20 -10 -1 -6 4 -11 12 -11 8 0 14 3 13 6 -4 37 4 81 15 79 6
-2 11 2 10 8 -1 6 4 11 12 11 8 0 13 -5 12 -11 -1 -6 4 -10 11 -8 8 1 11 -2 7
-8 -3 -6 -10 -8 -15 -5 -5 3 -12 1 -15 -5 -4 -6 -1 -9 7 -8 7 2 12 -2 11 -8
-1 -6 4 -11 12 -11 8 0 13 5 12 10 -1 6 10 11 25 12 15 1 26 -3 25 -9 -1 -6 4
-10 11 -8 8 1 11 -2 7 -8 -5 -8 -13 -6 -25 5 -12 11 -20 13 -25 5 -4 -6 -1 -9
7 -8 7 2 12 -4 10 -12 -2 -8 0 -12 4 -7 4 4 16 -1 26 -10 13 -12 18 -13 16 -4
-4 16 29 24 39 9 3 -6 1 -8 -5 -4 -6 3 -14 2 -17 -4 -4 -6 -1 -9 7 -8 7 2 12
-4 10 -12 -2 -8 0 -11 4 -7 4 4 9 20 11 35 5 54 10 65 26 68 10 1 15 -2 11 -7
-3 -5 -10 -6 -16 -3 -6 4 -8 2 -5 -3 4 -6 20 -9 35 -8 19 1 29 -2 29 -11 0
-10 -4 -11 -13 -3 -9 7 -14 6 -20 -3 -4 -7 -4 -10 1 -6 4 4 15 2 23 -5 8 -6
25 -12 36 -12 12 -1 20 -6 19 -11 -1 -6 18 -10 47 -9 30 1 48 -3 47 -9 -1 -6
4 -10 11 -8 8 1 11 -2 7 -8 -5 -8 -11 -7 -22 2 -18 15 -41 19 -48 8 -2 -4 5
-7 18 -6 12 0 21 -4 20 -10 -1 -6 8 -11 20 -10 12 0 21 -4 20 -10 -1 -6 8 -11
20 -10 12 0 21 -4 20 -10 -1 -6 10 -10 25 -9 15 1 26 6 25 12 -1 5 4 10 12 10
8 0 13 -5 12 -11 -1 -6 4 -10 11 -8 6 1 11 -4 10 -10 -2 -7 3 -12 10 -10 8 1
11 -2 7 -8 -5 -8 -13 -6 -25 5 -12 11 -20 13 -25 5 -4 -6 -1 -9 7 -8 7 2 12
-2 11 -8 -1 -6 10 -10 25 -9 15 1 26 6 25 12 -1 5 4 10 12 10 8 0 13 -5 12
-11 -1 -6 4 -10 11 -8 8 1 11 -2 7 -8 -3 -6 -10 -8 -15 -5 -5 3 -12 0 -16 -7
-4 -7 -3 -10 1 -5 5 4 17 -1 27 -10 14 -12 19 -13 16 -4 -2 9 7 15 24 16 15 1
26 -3 25 -9 -1 -6 4 -10 11 -8 8 1 11 -2 7 -8 -5 -8 -13 -6 -25 5 -12 11 -20
13 -25 5 -4 -6 -1 -9 7 -8 7 2 12 -4 10 -12 -2 -8 0 -12 4 -7 4 4 16 -1 26
-10 14 -12 19 -13 16 -4 -2 9 7 15 23 16 15 1 26 -3 26 -11 0 -10 -4 -11 -13
-3 -8 7 -14 6 -20 -2 -4 -7 -3 -9 3 -6 6 4 16 1 22 -7 6 -7 27 -12 49 -11 26
1 39 -2 39 -11 0 -10 -4 -11 -13 -3 -9 7 -14 6 -20 -3 -4 -7 -4 -10 1 -6 4 4
15 2 23 -5 8 -6 25 -12 36 -12 12 -1 20 -6 19 -11 -1 -6 18 -10 47 -9 30 1 48
-3 47 -9 -1 -6 4 -10 11 -8 8 1 11 -2 7 -8 -5 -8 -11 -7 -22 2 -18 15 -41 19
-48 8 -2 -4 5 -7 18 -6 12 0 21 -4 20 -10 -1 -6 8 -11 20 -10 12 0 21 -4 20
-10 -1 -6 10 -10 25 -9 17 1 26 7 24 16 -3 9 2 8 16 -4 10 -9 22 -14 26 -10 4
5 6 1 4 -7 -2 -8 3 -14 10 -12 8 1 11 -2 7 -8 -5 -8 -13 -6 -25 5 -12 11 -20
13 -25 5 -4 -6 -1 -9 7 -8 7 2 12 -2 11 -8 -1 -6 10 -10 25 -9 15 1 26 6 25
12 -1 5 4 10 12 10 8 0 13 -5 12 -11 -1 -6 4 -10 11 -8 8 1 11 -2 7 -8 -3 -6
-10 -8 -15 -5 -5 3 -12 1 -15 -5 -4 -6 -1 -9 7 -8 7 2 12 -2 11 -8 -1 -6 4
-11 12 -11 8 0 13 5 12 10 -1 6 10 11 25 12 15 1 26 -3 25 -9 -1 -6 4 -10 11
-8 8 1 11 -2 7 -8 -5 -8 -13 -6 -25 5 -12 11 -20 13 -25 5 -4 -6 -1 -9 7 -8 7
2 12 -4 10 -12 -2 -8 0 -12 4 -7 4 4 16 -1 26 -10 14 -12 19 -13 16 -4 -2 9 7
15 24 16 15 1 26 -3 25 -9 -1 -6 8 -10 20 -10 13 1 20 -2 18 -6 -7 -11 -30 -7
-48 8 -11 9 -17 10 -22 2 -4 -6 -1 -9 7 -8 7 2 12 -2 11 -8 -1 -6 17 -10 46
-9 33 1 48 -3 48 -12 0 -9 -4 -10 -13 -2 -9 7 -14 6 -20 -3 -4 -7 -4 -10 1 -6
4 4 15 2 23 -5 8 -6 25 -12 36 -12 12 -1 20 -6 19 -11 -1 -6 18 -10 47 -9 30
1 48 -3 47 -9 -1 -6 4 -10 11 -8 8 1 11 -2 7 -8 -5 -8 -11 -7 -22 2 -18 15
-41 19 -48 8 -2 -4 5 -7 18 -6 12 0 21 -4 20 -10 -1 -6 17 -10 47 -9 30 1 48
-3 47 -9 -1 -6 4 -10 11 -8 8 1 11 -2 7 -8 -5 -8 -11 -7 -22 2 -18 15 -41 19
-48 8 -2 -4 5 -7 18 -6 12 0 21 -4 20 -10 -1 -6 10 -10 25 -9 15 1 26 6 25 12
-1 5 4 10 12 10 8 0 13 -5 12 -11 -1 -6 4 -10 11 -8 6 1 11 -4 10 -10 -2 -7 3
-12 10 -10 8 1 11 -2 7 -8 -5 -8 -13 -6 -25 5 -12 11 -20 13 -25 5 -4 -6 -1
-9 7 -8 7 2 12 -2 11 -8 -1 -6 10 -10 25 -9 15 1 26 6 25 12 -1 5 4 10 12 10
8 0 13 -5 12 -11 -1 -6 4 -10 11 -8 8 1 11 -2 7 -8 -3 -6 -10 -8 -15 -5 -5 3
-12 1 -15 -5 -4 -6 -1 -9 7 -8 7 2 12 -2 11 -8 -1 -6 4 -11 12 -11 8 0 13 5
12 10 -1 6 10 11 25 12 15 1 26 -3 25 -9 -1 -6 4 -10 11 -8 8 1 11 -2 7 -8 -5
-8 -13 -6 -25 5 -12 11 -20 13 -25 5 -4 -6 -1 -9 7 -8 7 2 12 -4 10 -12 -2 -8
0 -12 4 -7 4 4 16 -1 26 -10 11 -10 18 -13 16 -8 -2 6 2 10 7 10 6 0 9 -4 7
-8 -1 -5 2 -6 8 -2 6 4 10 914 10 2756 l0 2749 -5888 0 c-5210 0 -5889 -2
-5889 -15z m69 -10 c15 1 26 -3 25 -9 -1 -6 4 -10 11 -8 8 1 11 -2 7 -8 -5 -8
-12 -7 -23 3 -10 8 -25 13 -34 12 -9 -2 -23 4 -30 13 -11 15 -11 15 2 6 8 -6
27 -10 42 -9z m165 -69 c-1 -6 4 -10 11 -8 6 1 11 -4 10 -10 -2 -7 3 -12 10
-10 8 1 11 -2 7 -8 -5 -8 -14 -5 -27 7 -11 10 -23 16 -26 13 -3 -3 -6 2 -7 11
-2 9 3 16 11 16 7 0 12 -5 11 -11z m358 -175 c-9 -8 -36 -10 -30 -2 2 4 11 8
20 8 8 0 13 -3 10 -6z m102 -45 c-1 -6 4 -10 11 -8 8 1 11 -2 7 -8 -5 -8 -12
-7 -23 3 -10 8 -25 13 -35 12 -9 -2 -15 0 -13 4 7 11 55 8 53 -3z m600 -280
c-1 -6 4 -10 11 -8 8 1 11 -2 7 -8 -5 -8 -12 -7 -23 3 -10 8 -25 13 -35 12 -9
-2 -15 0 -13 4 7 11 55 8 53 -3z m498 -235 c-9 -8 -36 -10 -30 -2 2 4 11 8 20
8 8 0 13 -3 10 -6z m102 -45 c-1 -6 4 -10 11 -8 8 1 11 -2 7 -8 -5 -8 -12 -7
-23 3 -10 8 -25 13 -35 12 -9 -2 -15 0 -13 4 7 11 55 8 53 -3z m498 -235 c-9
-8 -36 -10 -30 -2 2 4 11 8 20 8 8 0 13 -3 10 -6z m102 -45 c-1 -6 4 -10 11
-8 8 1 11 -2 7 -8 -5 -8 -12 -7 -23 3 -10 8 -25 13 -35 12 -9 -2 -15 0 -13 4
7 11 55 8 53 -3z m498 -235 c-9 -8 -36 -10 -30 -2 2 4 11 8 20 8 8 0 13 -3 10
-6z m159 -92 c3 -3 -5 -5 -19 -5 -13 0 -22 3 -19 7 4 8 30 6 38 -2z m441 -188
c-9 -8 -36 -10 -30 -2 2 4 11 8 20 8 8 0 13 -3 10 -6z m622 -285 c-1 -6 4 -10
11 -8 8 1 11 -2 7 -8 -5 -8 -12 -7 -23 3 -10 8 -25 13 -35 12 -9 -2 -15 0 -13
4 7 11 55 8 53 -3z m600 -280 c-1 -6 4 -10 11 -8 8 1 11 -2 7 -8 -5 -8 -12 -7
-23 3 -10 8 -25 13 -35 12 -9 -2 -15 0 -13 4 7 11 55 8 53 -3z m421 -358 c-2
-7 2 -12 8 -11 6 1 11 -5 11 -13 0 -12 -4 -11 -18 2 -10 9 -16 21 -13 25 8 13
14 11 12 -3z m4560 -2120 c-2 -7 2 -12 8 -11 6 1 11 -5 11 -12 0 -11 -4 -12
-14 -4 -7 6 -13 8 -13 5 0 -4 -5 -4 -10 -1 -8 5 -7 11 1 21 14 17 20 18 17 2z
m379 -22 c-1 -6 4 -10 11 -8 8 1 11 -2 7 -8 -5 -8 -12 -7 -23 3 -10 8 -25 13
-35 12 -9 -2 -15 0 -13 4 7 11 55 8 53 -3z m140 -60 c-1 -6 4 -10 11 -8 6 1
11 -4 10 -10 -2 -7 3 -12 10 -10 8 1 11 -2 7 -8 -5 -8 -14 -5 -27 7 -11 10
-23 16 -26 13 -3 -3 -6 2 -7 11 -2 9 3 16 11 16 7 0 12 -5 11 -11z m358 -175
c-9 -8 -36 -10 -30 -2 2 4 11 8 20 8 8 0 13 -3 10 -6z m102 -45 c-1 -6 4 -10
11 -8 8 1 11 -2 7 -8 -5 -8 -12 -7 -23 3 -10 8 -25 13 -35 12 -9 -2 -15 0 -13
4 7 11 55 8 53 -3z m139 -63 c-3 -19 -19 -21 -21 -2 -2 9 3 16 10 16 7 0 12
-6 11 -14z m421 -197 c-1 -6 4 -10 11 -8 8 1 11 -2 7 -8 -5 -8 -12 -7 -23 3
-10 8 -25 13 -35 12 -9 -2 -15 0 -13 4 7 11 55 8 53 -3z"/>
<path d="M2217 7222 c-24 -27 -22 -97 3 -122 26 -26 36 -25 65 5 17 16 25 35
25 57 0 66 -55 102 -93 60z m52 -16 c7 -8 11 -32 9 -53 -2 -30 -7 -38 -23 -38
-26 0 -40 41 -26 78 12 30 23 34 40 13z"/>
<path d="M2394 7173 c12 -24 12 -31 0 -55 -13 -25 -13 -28 0 -28 8 0 19 8 25
18 9 16 10 16 16 0 4 -10 16 -18 27 -18 20 0 20 0 0 27 -20 27 -20 28 0 55 15
22 16 28 5 28 -8 0 -20 -7 -28 -16 -11 -14 -13 -14 -21 0 -5 9 -16 16 -24 16
-13 0 -13 -3 0 -27z"/>
<path d="M2490 7125 c0 -60 3 -75 15 -75 8 0 15 9 15 19 0 14 5 18 19 14 24
-6 61 30 61 60 -1 38 -23 57 -69 57 l-41 0 0 -75z m75 20 c0 -23 -4 -30 -20
-30 -21 0 -31 25 -21 51 11 28 41 12 41 -21z"/>
<path d="M3525 6900 c-4 -6 -1 -9 7 -8 7 2 12 -4 10 -12 -2 -8 0 -12 4 -7 4 4
15 0 25 -9 16 -14 17 -14 15 0 -1 9 -5 15 -8 14 -3 -2 -15 5 -26 15 -13 12
-22 15 -27 7z"/>
<path d="M3320 6278 c0 -7 12 -48 27 -90 23 -64 31 -78 49 -78 18 0 26 13 48
76 15 41 30 82 33 90 3 9 -2 14 -15 14 -16 0 -25 -14 -42 -66 -12 -36 -24 -64
-26 -61 -2 2 -12 30 -22 63 -11 38 -24 60 -35 62 -9 2 -17 -2 -17 -10z"/>
<path d="M4211 6278 c0 -7 12 -47 27 -88 24 -65 30 -75 51 -75 21 0 28 10 52
75 33 90 34 100 11 100 -14 0 -23 -15 -37 -60 -10 -33 -21 -60 -25 -60 -4 0
-15 27 -25 60 -14 45 -23 60 -37 60 -10 0 -18 -6 -17 -12z"/>
<path d="M4884 6259 c-4 -7 -3 -10 4 -5 6 3 13 2 17 -4 3 -5 0 -10 -7 -10 -9
0 -13 -15 -13 -47 0 -36 -4 -48 -15 -48 -11 0 -16 13 -18 48 -3 39 -6 47 -23
47 -16 0 -19 -7 -19 -54 0 -45 4 -58 22 -70 12 -8 26 -12 31 -9 5 3 23 6 38 5
l29 -1 0 65 c0 38 4 63 9 59 5 -3 12 -1 15 4 4 5 -2 8 -11 6 -10 -1 -25 4 -35
12 -12 11 -18 11 -24 2z"/>
<path d="M4572 6241 c-7 -4 -24 -6 -38 -3 -23 4 -24 3 -24 -62 0 -59 2 -66 19
-66 17 0 20 8 23 48 3 39 6 47 23 47 17 0 20 -8 23 -47 3 -40 6 -48 23 -48 16
0 19 7 19 50 0 37 -5 55 -20 70 -22 22 -29 24 -48 11z"/>
<path d="M4682 6234 c-16 -11 -22 -25 -22 -54 0 -48 23 -73 62 -68 18 3 28 0
28 -8 0 -17 -21 -23 -43 -12 -10 5 -25 7 -34 4 -27 -11 6 -36 47 -36 56 0 70
22 70 109 0 73 0 73 -25 69 -14 -3 -28 -1 -31 3 -8 13 -27 11 -52 -7z m63 -35
c11 -16 -4 -59 -20 -59 -18 0 -34 28 -28 51 6 20 38 26 48 8z"/>
<path d="M3490 6225 c-10 -12 -9 -16 4 -21 9 -3 23 -1 31 6 8 6 19 9 25 5 18
-11 11 -25 -13 -25 -35 0 -59 -22 -55 -51 3 -22 8 -24 56 -26 l52 -1 0 58 c0
44 -4 59 -16 64 -28 11 -71 6 -84 -9z m68 -72 c-4 -20 -39 -25 -45 -6 -4 10
11 18 40 22 5 0 7 -7 5 -16z"/>
<path d="M3632 6228 c-18 -18 -15 -84 5 -103 11 -11 26 -15 45 -11 20 4 28 2
28 -8 0 -19 -28 -28 -51 -16 -25 14 -44 3 -28 -16 14 -17 83 -18 97 -1 5 6 12
46 14 88 l3 77 -51 1 c-28 0 -56 -5 -62 -11z m76 -57 c-2 -18 -10 -27 -25 -29
-31 -5 -44 45 -18 64 25 18 47 0 43 -35z"/>
<path d="M3770 6175 c0 -58 2 -65 20 -65 17 0 20 7 20 50 0 43 3 50 19 50 17
0 20 -8 23 -47 2 -36 7 -49 21 -51 14 -3 17 4 17 50 0 30 -5 59 -12 66 -7 7
-34 12 -60 12 l-48 0 0 -65z"/>
<path d="M3926 6218 c-34 -49 -7 -108 49 -108 39 0 82 32 51 38 -9 2 -23 -1
-30 -7 -16 -14 -46 -4 -46 15 0 10 13 14 45 14 37 0 45 3 45 18 0 49 -85 71
-114 30z m72 -16 c2 -7 -7 -12 -22 -12 -27 0 -35 15 -13 23 17 7 30 3 35 -11z"/>
<path d="M4060 6175 c0 -58 2 -65 20 -65 17 0 20 7 20 50 0 43 3 50 20 50 11
0 20 7 20 15 0 11 -11 15 -40 15 l-40 0 0 -65z"/>
<path d="M4380 6221 c-15 -29 -12 -77 6 -95 20 -20 78 -21 94 -1 18 22 5 30
-25 17 -20 -9 -27 -8 -42 6 -16 16 -14 17 30 20 41 3 47 6 47 26 0 32 -19 46
-62 46 -27 0 -40 -5 -48 -19z m61 -29 c-28 -4 -40 6 -21 18 9 6 20 4 29 -3 12
-10 11 -13 -8 -15z"/>
<path d="M2986 6155 c-3 -9 0 -15 9 -15 16 0 20 16 6 24 -5 3 -11 -1 -15 -9z"/>
<path d="M2918 6143 c7 -3 16 -2 19 1 4 3 -2 6 -13 5 -11 0 -14 -3 -6 -6z"/>
<path d="M2231 6123 c-21 -41 -41 -131 -41 -189 0 -59 1 -62 23 -60 12 2 39
10 61 19 47 21 47 21 40 2 -4 -8 -12 -15 -20 -15 -8 0 -14 -4 -14 -10 0 -5 5
-10 11 -10 7 0 9 -12 7 -30 -3 -17 -1 -33 4 -36 4 -3 8 -15 8 -28 0 -20 -7
-17 -55 30 -48 46 -55 51 -55 31 0 -73 128 -241 220 -287 54 -28 133 -50 177
-50 29 0 33 4 46 48 27 86 29 103 12 122 -16 18 -18 18 -49 -1 -18 -10 -41
-36 -51 -56 l-20 -38 -3 42 c-2 25 4 57 13 77 10 22 18 66 19 115 3 75 4 81
33 105 l31 26 7 -23 8 -22 4 23 c2 12 10 22 16 23 92 9 106 1 107 -58 0 -23 5
-33 15 -33 10 0 15 11 15 35 0 28 4 35 19 35 11 0 22 -4 25 -9 12 -18 88 -51
114 -49 32 2 52 -8 52 -27 0 -7 7 -15 15 -19 8 -3 13 -13 10 -23 -3 -10 3 -2
12 17 26 50 25 217 -1 283 -18 48 -19 49 -53 42 -22 -4 -33 -3 -29 4 4 6 -4 7
-21 2 -23 -6 -29 -14 -31 -44 -2 -20 -7 -37 -11 -37 -5 0 -11 -8 -14 -18 -2
-11 -14 -22 -26 -25 -18 -4 -23 0 -28 24 -3 16 -10 32 -14 35 -14 8 -79 -19
-79 -33 0 -16 -76 -18 -85 -3 -4 6 -11 8 -16 5 -5 -4 -9 0 -9 7 0 8 -15 29
-34 47 -44 42 -96 50 -150 22 -21 -11 -43 -18 -49 -14 -5 3 -7 -3 -3 -14 9
-27 -10 -73 -29 -73 -8 0 -15 5 -15 10 0 6 5 10 11 10 8 0 8 5 -1 15 -7 8 -21
15 -31 15 -13 0 -19 7 -19 24 0 16 -7 27 -20 31 -11 3 -20 11 -20 16 0 16 -29
10 -39 -8z m290 -186 c-18 -18 -23 -1 -9 29 13 28 13 28 16 5 2 -13 -1 -28 -7
-34z m-56 33 c3 -6 -1 -13 -10 -16 -19 -8 -30 0 -20 15 8 14 22 14 30 1z"/>
<path d="M2320 6109 c0 -5 9 -9 20 -9 11 0 20 2 20 4 0 2 -9 6 -20 9 -11 3
-20 1 -20 -4z"/>
<path d="M2850 6054 c0 -19 4 -33 8 -30 8 5 4 66 -4 66 -2 0 -4 -16 -4 -36z"/>
<path d="M2680 6040 c-23 -7 -23 -8 -3 -9 12 -1 25 4 28 9 3 6 5 10 3 9 -2 -1
-14 -5 -28 -9z"/>
<path d="M3540 5950 l0 -60 35 0 c19 0 35 5 35 10 0 6 -11 10 -25 10 -23 0
-25 3 -25 50 0 28 -4 50 -10 50 -6 0 -10 -27 -10 -60z"/>
<path d="M3910 5950 c0 -33 4 -60 10 -60 6 0 10 27 10 60 0 33 -4 60 -10 60
-6 0 -10 -27 -10 -60z"/>
<path d="M4003 6004 c-15 -7 -18 -34 -4 -34 6 0 13 5 16 10 10 16 25 11 25 -8
0 -10 -11 -29 -25 -42 -34 -32 -32 -40 15 -40 22 0 40 5 40 10 0 6 -9 10 -20
10 -20 0 -20 1 2 30 17 24 20 35 12 48 -11 18 -40 25 -61 16z"/>
<path d="M3644 5972 c-18 -12 -24 -42 -14 -63 13 -22 70 -27 70 -5 0 9 -8 12
-25 8 -15 -2 -25 0 -25 7 0 6 14 11 30 11 31 0 39 17 18 38 -13 13 -38 15 -54
4z m36 -22 c0 -5 -7 -10 -15 -10 -8 0 -15 5 -15 10 0 6 7 10 15 10 8 0 15 -4
15 -10z"/>
<path d="M3720 5974 c0 -25 26 -84 36 -84 12 0 44 59 44 81 0 20 -21 7 -31
-18 l-11 -28 -10 28 c-8 24 -28 38 -28 21z"/>
<path d="M3822 5968 c-14 -14 -15 -47 -3 -66 10 -17 63 -12 69 6 3 9 -3 11
-21 7 -14 -4 -28 -2 -31 4 -5 7 4 11 23 11 19 0 31 5 31 13 0 18 -21 37 -40
37 -9 0 -21 -5 -28 -12z m43 -18 c3 -5 -3 -10 -15 -10 -12 0 -18 5 -15 10 3 6
10 10 15 10 5 0 12 -4 15 -10z"/>
<path d="M3763 5763 c240 -2 634 -2 875 0 240 1 43 2 -438 2 -481 0 -678 -1
-437 -2z"/>
<path d="M3314 5650 c0 -58 1 -81 3 -52 2 28 2 76 0 105 -2 28 -3 5 -3 -53z"/>
<path d="M5084 5650 c0 -58 1 -81 3 -52 2 28 2 76 0 105 -2 28 -3 5 -3 -53z"/>
<path d="M3940 5645 l0 -55 35 0 c19 0 35 5 35 10 0 6 -11 10 -25 10 -23 0
-25 4 -25 45 0 25 -4 45 -10 45 -5 0 -10 -25 -10 -55z"/>
<path d="M4428 5688 c-8 -20 5 -91 17 -95 14 -4 12 84 -2 98 -7 7 -12 6 -15
-3z"/>
<path d="M4040 5666 c-28 -35 11 -93 48 -70 23 15 27 48 7 68 -20 20 -39 20
-55 2z m48 -30 c4 -19 -16 -39 -30 -30 -4 3 -8 16 -8 30 0 19 5 25 17 22 10
-2 19 -12 21 -22z"/>
<path d="M4141 5671 c-7 -5 -13 -21 -13 -36 0 -31 19 -47 46 -39 13 4 17 2 14
-7 -3 -8 -17 -13 -33 -12 -20 2 -25 -1 -18 -8 6 -6 21 -9 34 -7 22 3 24 8 27
63 1 38 -1 55 -7 46 -6 -9 -11 -10 -15 -2 -9 13 -16 14 -35 2z m47 -34 c4 -20
-25 -34 -40 -19 -15 15 -1 44 19 40 10 -2 19 -11 21 -21z"/>
<path d="M4244 5672 c-37 -25 -19 -85 24 -80 21 2 28 9 30 31 5 43 -24 70 -54
49z m42 -27 c4 -8 0 -22 -7 -31 -11 -13 -14 -13 -27 0 -17 17 -9 46 13 46 9 0
18 -7 21 -15z"/>
<path d="M4333 5640 c2 -43 3 -45 35 -47 32 -1 32 -1 32 43 0 24 -4 44 -10 44
-5 0 -10 -16 -10 -36 0 -28 -3 -35 -17 -32 -11 2 -20 16 -25 38 -6 32 -6 31
-5 -10z"/>
<path d="M3763 5533 c240 -2 634 -2 875 0 240 1 43 2 -438 2 -481 0 -678 -1
-437 -2z"/>
<path d="M6805 5360 c-3 -4 5 -7 18 -6 12 0 21 -4 20 -10 -1 -6 5 -11 13 -11
12 0 12 3 -1 17 -15 17 -42 22 -50 10z"/>
<path d="M7045 5180 c-4 -6 -1 -9 7 -8 7 2 12 -3 10 -10 -1 -8 2 -11 8 -7 8 5
7 11 -1 21 -14 17 -16 17 -24 4z"/>
<path d="M7165 5040 c-4 -6 -1 -9 7 -8 7 2 12 -3 10 -10 -1 -8 2 -11 8 -7 8 5
7 11 -1 21 -14 17 -16 17 -24 4z"/>
<path d="M7852 4911 c4 -13 18 -16 19 -4 0 4 -5 9 -11 12 -7 2 -11 -2 -8 -8z"/>
<path d="M8252 4911 c4 -13 18 -16 19 -4 0 4 -5 9 -11 12 -7 2 -11 -2 -8 -8z"/>
<path d="M9200 4911 c0 -6 5 -13 10 -16 6 -3 10 1 10 9 0 9 -4 16 -10 16 -5 0
-10 -4 -10 -9z"/>
<path d="M7720 4825 c0 -50 4 -85 10 -85 6 0 10 18 10 40 0 39 1 40 35 40 19
0 35 5 35 10 0 6 -16 10 -35 10 -31 0 -35 3 -35 25 0 23 4 25 40 25 22 0 40 5
40 10 0 6 -22 10 -50 10 l-50 0 0 -85z"/>
<path d="M8190 4825 c0 -50 4 -85 10 -85 6 0 10 35 10 85 0 50 -4 85 -10 85
-6 0 -10 -35 -10 -85z"/>
<path d="M9400 4825 c0 -50 4 -85 10 -85 6 0 10 35 10 85 0 50 -4 85 -10 85
-6 0 -10 -35 -10 -85z"/>
<path d="M10750 4825 c0 -50 4 -85 10 -85 6 0 10 5 10 12 0 9 3 9 12 0 30 -30
78 3 78 55 0 48 -49 80 -78 51 -9 -9 -12 -5 -12 20 0 18 -4 32 -10 32 -6 0
-10 -35 -10 -85z m88 2 c2 -10 1 -30 -2 -43 -5 -20 -12 -25 -34 -22 -21 2 -28
9 -30 31 -2 16 -1 35 2 44 8 21 60 13 64 -10z"/>
<path d="M6216 4864 c-9 -8 -16 -22 -16 -30 0 -19 26 -18 34 1 3 8 15 15 26
15 34 0 25 -42 -20 -85 -56 -55 -53 -65 20 -65 33 0 60 4 60 10 0 6 -16 10
-35 10 -19 0 -35 3 -35 7 0 4 13 21 29 38 41 42 47 69 22 94 -25 25 -63 27
-85 5z"/>
<path d="M2205 4859 c-2 -8 -3 -23 -1 -34 3 -11 5 -39 5 -62 1 -43 1 -43 39
-43 50 0 76 27 75 77 -1 19 -8 42 -16 50 -21 21 -95 30 -102 12z m89 -41 c17
-28 -4 -72 -37 -76 -26 -3 -27 -2 -27 48 0 50 1 51 26 48 15 -2 32 -11 38 -20z"/>
<path d="M2694 4848 c-15 -34 -6 -128 12 -128 10 0 14 13 14 44 0 26 5 46 13
49 9 4 8 8 -3 16 -13 9 -12 12 5 25 19 15 19 15 -6 16 -17 0 -29 -7 -35 -22z"/>
<path d="M2762 4859 c2 -6 8 -10 13 -10 5 0 11 4 13 10 2 6 -4 11 -13 11 -9 0
-15 -5 -13 -11z"/>
<path d="M3620 4795 c0 -60 3 -75 15 -75 12 0 15 15 15 75 0 60 -3 75 -15 75
-12 0 -15 -15 -15 -75z"/>
<path d="M7850 4805 c0 -37 4 -65 10 -65 6 0 10 28 10 65 0 37 -4 65 -10 65
-6 0 -10 -28 -10 -65z"/>
<path d="M7910 4805 c0 -78 16 -87 22 -12 5 56 1 77 -13 77 -5 0 -9 -29 -9
-65z"/>
<path d="M7945 4861 c-3 -5 7 -11 22 -13 26 -3 28 -6 31 -55 2 -29 7 -53 13
-53 12 0 12 86 -1 111 -11 20 -54 26 -65 10z"/>
<path d="M8073 4863 c-27 -10 -11 -21 22 -16 28 4 35 2 35 -10 0 -10 -15 -20
-41 -27 -33 -9 -40 -15 -37 -32 4 -31 33 -46 58 -30 12 7 20 8 20 2 0 -5 5
-10 10 -10 14 0 12 104 -2 118 -12 12 -43 15 -65 5z m55 -80 c-4 -22 -58 -31
-58 -10 0 20 10 27 37 27 18 0 24 -5 21 -17z"/>
<path d="M8250 4805 c0 -37 4 -65 10 -65 6 0 10 28 10 65 0 37 -4 65 -10 65
-6 0 -10 -28 -10 -65z"/>
<path d="M8310 4861 c0 -6 16 -11 36 -13 l36 -3 -36 -45 c-20 -25 -36 -48 -36
-52 0 -5 23 -8 50 -8 57 0 68 17 14 22 l-36 3 36 45 c20 25 36 48 36 53 0 4
-22 7 -50 7 -27 0 -50 -4 -50 -9z"/>
<path d="M8456 4854 c-9 -8 -16 -31 -16 -49 0 -18 7 -41 16 -49 19 -20 58 -21
74 -1 10 12 6 13 -23 8 -29 -4 -37 -1 -46 16 -11 20 -10 21 39 21 49 0 51 1
44 23 -3 12 -11 28 -16 35 -14 17 -53 15 -72 -4z m64 -8 c0 -2 3 -11 6 -20 5
-13 -1 -16 -30 -16 -34 0 -47 15 -29 33 7 8 53 10 53 3z"/>
<path d="M8652 4814 c3 -66 23 -88 58 -66 12 7 20 8 20 2 0 -5 5 -10 10 -10 6
0 10 28 10 65 0 37 -4 65 -10 65 -5 0 -10 -20 -10 -44 0 -46 -19 -72 -45 -62
-11 4 -15 20 -15 56 0 28 -5 50 -10 50 -7 0 -10 -22 -8 -56z"/>
<path d="M8790 4805 c0 -77 18 -88 22 -13 2 42 7 54 22 56 25 5 35 -14 37 -68
2 -39 3 -41 6 -10 7 70 12 81 36 78 19 -3 22 -10 25 -55 2 -29 8 -53 13 -53 6
0 9 24 7 56 -3 64 -23 88 -56 68 -12 -8 -22 -8 -35 0 -12 8 -22 8 -37 -2 -12
-7 -20 -8 -20 -2 0 5 -4 10 -10 10 -6 0 -10 -28 -10 -65z"/>
<path d="M9077 4852 c-48 -53 21 -150 71 -100 17 17 15 33 -2 18 -8 -6 -25
-10 -38 -8 -20 3 -23 9 -23 43 0 34 3 40 23 43 13 2 30 -2 38 -8 17 -15 19 1
2 18 -18 18 -53 15 -71 -6z"/>
<path d="M9200 4805 c0 -37 4 -65 10 -65 6 0 10 28 10 65 0 37 -4 65 -10 65
-6 0 -10 -28 -10 -65z"/>
<path d="M9276 4854 c-9 -8 -16 -31 -16 -49 0 -39 22 -65 54 -65 26 0 54 26
41 38 -4 4 -10 1 -12 -5 -8 -21 -51 -15 -64 8 -16 31 3 69 35 69 13 0 26 -6
29 -12 2 -7 8 -10 12 -6 13 12 -15 38 -41 38 -12 0 -30 -7 -38 -16z"/>
<path d="M9466 4848 c-41 -58 15 -136 71 -100 32 20 32 94 0 114 -23 15 -56 8
-71 -14z m75 -19 c16 -31 -3 -69 -35 -69 -28 0 -41 27 -32 66 8 31 50 33 67 3z"/>
<path d="M9660 4780 c0 -53 4 -90 10 -90 6 0 10 16 10 35 0 39 2 40 30 23 40
-25 81 33 60 86 -12 33 -36 43 -63 26 -15 -9 -22 -10 -25 -1 -2 6 -8 11 -13
11 -5 0 -9 -40 -9 -90z m88 58 c29 -29 3 -84 -35 -76 -25 5 -40 52 -23 72 15
19 41 21 58 4z"/>
<path d="M9824 4855 c-17 -14 -16 -14 24 -9 34 5 42 4 42 -9 0 -9 -14 -18 -37
-24 -31 -7 -39 -14 -41 -35 -3 -22 2 -29 22 -34 16 -4 32 -1 41 6 10 9 15 9
15 1 0 -6 5 -11 10 -11 14 0 12 104 -2 118 -16 16 -50 15 -74 -3z m64 -72 c-4
-22 -58 -31 -58 -10 0 20 10 27 37 27 18 0 24 -5 21 -17z"/>
<path d="M9950 4805 c0 -37 4 -65 10 -65 6 0 10 23 10 51 0 42 3 52 20 56 11
3 20 9 20 14 0 13 -14 11 -28 -3 -9 -9 -12 -9 -12 0 0 7 -4 12 -10 12 -6 0
-10 -28 -10 -65z"/>
<path d="M10051 4856 c-9 -11 -4 -13 25 -12 50 1 54 -20 7 -31 -33 -8 -38 -12
-38 -38 0 -24 5 -31 23 -33 13 -2 30 2 38 8 10 9 14 9 14 1 0 -6 5 -11 10 -11
13 0 13 86 0 111 -13 22 -62 26 -79 5z m67 -73 c-4 -21 -45 -30 -62 -13 -14
14 8 30 42 30 17 0 23 -5 20 -17z"/>
<path d="M10240 4805 c0 -37 4 -65 10 -65 6 0 10 23 10 51 0 42 3 52 20 56 11
3 20 9 20 14 0 13 -14 11 -28 -3 -9 -9 -12 -9 -12 0 0 7 -4 12 -10 12 -6 0
-10 -28 -10 -65z"/>
<path d="M10345 4856 c-13 -9 -19 -26 -19 -51 0 -56 62 -89 94 -50 11 13 8 14
-19 9 -30 -6 -61 8 -61 27 0 5 22 9 49 9 46 0 49 1 44 23 -12 48 -49 62 -88
33z m68 -20 c3 -8 3 -17 0 -20 -9 -9 -73 -7 -73 2 0 29 63 44 73 18z"/>
<path d="M10485 4856 c-13 -9 -19 -26 -19 -51 0 -56 62 -89 94 -50 17 21 7 29
-18 14 -26 -16 -50 -6 -58 26 -11 43 34 73 64 43 17 -17 28 -2 12 17 -16 19
-50 19 -75 1z"/>
<path d="M10616 4848 c-32 -46 -7 -108 43 -108 16 0 34 6 40 13 9 11 3 14 -31
13 -33 -1 -43 3 -46 17 -3 14 4 17 42 17 39 0 46 3 46 19 0 48 -67 68 -94 29z
m72 -20 c3 -15 -4 -18 -32 -18 -34 0 -47 15 -29 34 13 13 58 1 61 -16z"/>
<path d="M10906 4848 c-32 -46 -7 -108 43 -108 16 0 34 6 40 13 9 11 3 14 -31
13 -33 -1 -43 3 -46 17 -3 14 4 17 42 17 39 0 46 3 46 19 0 48 -67 68 -94 29z
m72 -20 c3 -15 -4 -18 -32 -18 -34 0 -47 15 -29 34 13 13 58 1 61 -16z"/>
<path d="M11040 4808 c0 -39 4 -68 10 -68 6 0 10 23 10 51 0 42 3 52 20 56 11
3 20 9 20 14 0 13 -28 11 -36 -2 -4 -8 -9 -7 -15 2 -5 9 -9 -12 -9 -53z"/>
<path d="M3800 4846 c0 -8 -6 -17 -12 -19 -10 -4 -10 -8 -1 -14 6 -4 13 -26
15 -48 3 -34 7 -41 28 -44 24 -3 24 -2 7 16 -21 24 -23 73 -2 73 8 0 15 5 15
10 0 6 -7 10 -15 10 -8 0 -15 7 -15 15 0 8 -4 15 -10 15 -5 0 -10 -6 -10 -14z"/>
<path d="M2354 4805 c-31 -48 4 -95 62 -83 32 6 27 26 -7 25 -18 -1 -34 4 -36
11 -3 8 8 12 36 12 45 0 48 5 25 38 -21 30 -59 29 -80 -3z m61 -5 c4 -6 -5
-10 -20 -10 -15 0 -24 4 -20 10 3 6 12 10 20 10 8 0 17 -4 20 -10z"/>
<path d="M2471 4811 c-9 -16 -7 -23 11 -35 12 -9 28 -16 35 -16 7 0 13 -5 13
-11 0 -8 -12 -9 -37 -4 -33 6 -35 5 -23 -10 20 -25 74 -16 78 13 3 18 -3 25
-27 33 -41 14 -40 33 0 24 24 -5 30 -4 27 6 -3 8 -19 15 -36 17 -22 2 -34 -2
-41 -17z"/>
<path d="M2579 4813 c-13 -15 -11 -16 14 -9 43 10 57 -6 16 -19 -26 -9 -34
-17 -34 -36 0 -21 5 -24 43 -25 l42 -2 0 48 c0 34 -4 50 -16 54 -27 10 -51 7
-65 -11z m59 -55 c-5 -16 -48 -24 -48 -10 0 11 17 20 38 21 8 1 12 -5 10 -11z"/>
<path d="M2760 4775 c0 -42 3 -55 15 -55 12 0 15 13 15 55 0 42 -3 55 -15 55
-12 0 -15 -13 -15 -55z"/>
<path d="M2822 4818 c-7 -7 -12 -26 -12 -43 0 -38 16 -55 50 -55 46 0 65 44
40 91 -12 22 -59 26 -78 7z m61 -29 c8 -29 -2 -49 -23 -49 -25 0 -33 16 -26
46 8 30 41 32 49 3z"/>
<path d="M2943 4823 c-25 -9 -14 -44 17 -54 40 -14 39 -33 -1 -25 -22 4 -29 2
-27 -7 6 -17 56 -21 74 -6 23 19 16 39 -16 50 -41 15 -39 33 2 23 29 -6 31 -5
19 10 -13 15 -43 20 -68 9z"/>
<path d="M3102 4818 c-7 -7 -12 -26 -12 -43 0 -17 5 -36 12 -43 17 -17 67 -15
75 3 7 20 -6 33 -16 16 -5 -7 -17 -11 -27 -9 -21 4 -29 35 -14 58 8 13 13 13
31 2 24 -15 34 -10 26 13 -8 18 -58 20 -75 3z"/>
<path d="M3212 4818 c-7 -7 -12 -26 -12 -43 0 -38 16 -55 50 -55 34 0 50 17
50 55 0 38 -16 55 -50 55 -14 0 -31 -5 -38 -12z m63 -27 c8 -26 -4 -51 -25
-51 -10 0 -21 7 -24 16 -10 25 3 54 24 54 10 0 21 -8 25 -19z"/>
<path d="M3320 4775 c0 -42 3 -55 15 -55 11 0 15 12 15 46 0 38 3 45 18 42 12
-2 18 -15 20 -46 4 -54 20 -54 24 1 2 29 8 42 18 42 10 0 16 -13 18 -42 2 -29
8 -43 18 -43 16 0 19 45 5 83 -9 22 -15 24 -80 25 l-71 2 0 -55z"/>
<path d="M3500 4755 c0 -60 3 -75 15 -75 8 0 15 9 15 20 0 14 7 20 23 20 31 0
47 18 47 55 0 41 -16 55 -62 55 l-38 0 0 -75z m76 31 c7 -31 -1 -46 -27 -46
-14 0 -19 7 -19 28 0 48 35 61 46 18z"/>
<path d="M3682 4818 c-7 -7 -12 -26 -12 -43 0 -17 5 -36 12 -43 17 -17 63 -15
79 4 11 14 9 15 -23 9 -27 -5 -37 -3 -41 9 -5 13 1 16 33 16 32 0 40 4 40 18
0 25 -20 42 -50 42 -14 0 -31 -5 -38 -12z m58 -18 c0 -5 -9 -10 -20 -10 -11 0
-20 5 -20 10 0 6 9 10 20 10 11 0 20 -4 20 -10z"/>
<path d="M3876 4814 c-33 -33 -12 -94 33 -94 29 0 61 26 61 51 0 48 -62 76
-94 43z m59 -39 c0 -23 -4 -30 -20 -30 -21 0 -31 25 -21 51 11 28 41 12 41
-21z"/>
<path d="M3989 4814 c-12 -14 -10 -19 10 -35 13 -11 29 -19 37 -19 8 0 14 -5
14 -11 0 -8 -12 -9 -37 -4 -33 6 -35 5 -23 -10 20 -25 74 -16 78 13 3 18 -3
25 -27 33 -41 14 -40 33 0 24 24 -5 30 -4 27 6 -7 21 -62 23 -79 3z"/>
<path d="M4095 4819 c-10 -15 1 -23 20 -15 9 3 13 10 10 16 -8 13 -22 13 -30
-1z"/>
<path d="M4095 4739 c-10 -15 1 -23 20 -15 9 3 13 10 10 16 -8 13 -22 13 -30
-1z"/>
<path d="M9747 4583 c-4 -3 -7 -14 -7 -24 0 -9 -6 -20 -12 -23 -10 -5 -10 -7
0 -12 7 -3 12 -26 12 -60 0 -30 5 -54 10 -54 6 0 10 25 10 55 0 42 3 55 15 55
8 0 15 5 15 10 0 6 -7 10 -15 10 -8 0 -15 7 -15 15 0 8 7 15 15 15 8 0 15 5
15 10 0 11 -33 14 -43 3z"/>
<path d="M9816 4581 c-4 -5 -2 -12 3 -15 5 -4 12 -2 15 3 4 5 2 12 -3 15 -5 4
-12 2 -15 -3z"/>
<path d="M9259 4550 c-1 -16 -1 -50 -1 -75 0 -61 1 -65 12 -65 6 0 10 35 10
85 0 50 -4 85 -10 85 -5 0 -10 -13 -11 -30z"/>
<path d="M8750 4503 c0 -77 30 -112 67 -81 13 10 17 10 20 1 11 -33 23 -6 23
52 0 37 -4 65 -10 65 -5 0 -10 -19 -10 -43 0 -46 -13 -67 -41 -67 -21 0 -29
20 -29 71 0 21 -4 39 -10 39 -5 0 -10 -17 -10 -37z"/>
<path d="M8900 4478 c0 -39 4 -68 10 -68 13 0 13 100 0 120 -7 11 -10 -5 -10
-52z"/>
<path d="M8925 4530 c-4 -6 5 -10 19 -10 25 0 26 -3 26 -55 0 -70 18 -72 22
-2 3 48 5 52 28 52 23 0 25 -4 28 -52 2 -29 7 -53 13 -53 12 0 12 86 -1 111
-12 21 -40 25 -58 7 -9 -9 -15 -9 -24 0 -15 15 -45 16 -53 2z"/>
<path d="M9182 4528 c-7 -7 -12 -30 -12 -53 0 -23 5 -46 12 -53 15 -15 54 -16
63 -2 3 6 -5 10 -19 10 -33 0 -52 33 -37 66 7 16 19 24 36 24 15 0 24 4 20 10
-9 14 -48 13 -63 -2z"/>
<path d="M9336 4524 c-9 -8 -16 -31 -16 -49 0 -18 7 -41 16 -49 19 -20 58 -21
74 -1 10 12 6 13 -23 8 -29 -4 -37 -1 -46 16 -11 20 -10 21 39 21 49 0 51 1
44 23 -3 12 -11 28 -16 35 -14 17 -53 15 -72 -4z m64 -8 c0 -2 3 -11 6 -20 5
-13 -1 -16 -30 -16 -34 0 -47 15 -29 33 7 8 53 10 53 3z"/>
<path d="M9470 4525 c-19 -23 -2 -47 39 -58 43 -11 34 -32 -13 -31 -29 1 -34
-1 -25 -12 16 -19 64 -18 80 2 18 21 1 46 -40 58 -45 13 -42 40 5 33 25 -4 34
-2 31 6 -6 19 -62 20 -77 2z"/>
<path d="M9601 4526 c-9 -11 -4 -13 25 -12 50 1 54 -20 7 -31 -33 -8 -38 -12
-38 -38 0 -24 5 -31 23 -33 13 -2 30 2 38 8 10 9 14 9 14 1 0 -6 5 -11 10 -11
13 0 13 86 0 111 -13 22 -62 26 -79 5z m67 -73 c-4 -21 -45 -30 -62 -13 -14
14 8 30 42 30 17 0 23 -5 20 -17z"/>
<path d="M9820 4475 c0 -37 4 -65 10 -65 6 0 10 28 10 65 0 37 -4 65 -10 65
-6 0 -10 -28 -10 -65z"/>
<path d="M9886 4518 c-41 -58 15 -136 71 -100 32 20 32 94 0 114 -23 15 -56 8
-71 -14z m75 -19 c16 -31 -3 -69 -35 -69 -28 0 -41 27 -32 66 8 31 50 33 67 3z"/>
<path d="M10020 4425 c0 -9 5 -15 11 -13 6 2 11 8 11 13 0 5 -5 11 -11 13 -6
2 -11 -4 -11 -13z"/>
<path d="M2482 3499 c-46 -23 -72 -55 -90 -108 -15 -44 -16 -551 -2 -603 13
-45 51 -93 94 -116 25 -14 58 -17 171 -17 128 0 143 2 180 23 22 13 52 39 65
59 l25 36 3 291 c3 304 0 341 -40 391 -40 51 -88 65 -233 65 -112 0 -136 -3
-173 -21z m295 -113 l28 -24 3 -249 c2 -164 0 -261 -8 -286 -16 -54 -59 -71
-164 -65 -71 4 -82 8 -103 32 -23 27 -23 29 -23 286 0 169 4 268 11 284 17 36
44 45 141 45 78 1 90 -1 115 -23z"/>
<path d="M3444 3501 c-47 -22 -80 -59 -95 -110 -6 -23 -9 -141 -7 -327 l3
-291 25 -36 c13 -20 43 -46 65 -59 37 -21 52 -23 180 -23 155 0 180 7 229 65
43 51 47 90 44 388 -3 314 -7 331 -81 380 -38 26 -48 27 -181 30 -121 2 -147
0 -182 -17z m291 -116 l25 -24 0 -274 0 -274 -26 -24 c-23 -22 -34 -24 -119
-24 -85 0 -96 2 -119 24 l-26 24 0 274 0 274 25 24 c22 23 32 25 120 25 88 0
98 -2 120 -25z"/>
<path d="M4732 3499 c-46 -23 -72 -55 -90 -108 -15 -44 -16 -551 -2 -603 13
-45 51 -93 94 -116 25 -14 58 -17 171 -17 128 0 143 2 180 23 22 13 52 39 65
59 l25 36 3 291 c3 304 0 341 -40 391 -40 51 -88 65 -233 65 -112 0 -136 -3
-173 -21z m295 -113 l28 -24 3 -249 c2 -164 0 -261 -8 -286 -16 -54 -59 -71
-164 -65 -71 4 -82 8 -103 32 -23 27 -23 29 -23 286 0 169 4 268 11 284 17 36
44 45 141 45 78 1 90 -1 115 -23z"/>
<path d="M5612 3288 l3 -233 52 -3 c47 -3 54 0 79 27 27 30 29 31 121 31 135
0 148 -19 141 -204 -4 -124 -16 -139 -118 -144 -119 -7 -160 16 -160 91 0 61
-8 69 -71 65 l-54 -3 -3 -42 c-7 -97 50 -189 133 -212 50 -14 208 -14 257 -1
50 14 97 55 119 105 15 32 19 66 19 169 0 150 -11 196 -56 236 -42 36 -90 50
-177 50 -74 0 -129 -18 -146 -47 -8 -13 -10 12 -11 104 l0 123 183 2 182 3 3
58 3 57 -251 0 -250 0 2 -232z"/>
<path d="M4212 3193 c3 -73 4 -78 27 -81 12 -2 34 -1 47 2 23 6 24 11 24 81
l0 75 -50 0 -51 0 3 -77z"/>
<path d="M4223 2913 c-9 -3 -13 -29 -13 -79 l0 -74 50 0 50 0 0 74 c0 58 -3
75 -16 80 -18 7 -53 7 -71 -1z"/>
<path d="M8336 2814 c-9 -24 -7 -27 9 -10 17 17 19 26 6 26 -5 0 -12 -7 -15
-16z"/>
<path d="M8963 2775 c0 -33 2 -45 4 -27 2 18 2 45 0 60 -2 15 -4 0 -4 -33z"/>
<path d="M9143 2775 c0 -33 2 -45 4 -27 2 18 2 45 0 60 -2 15 -4 0 -4 -33z"/>
<path d="M9453 2775 c0 -33 2 -45 4 -27 2 18 2 45 0 60 -2 15 -4 0 -4 -33z"/>
<path d="M9953 2775 c0 -33 2 -45 4 -27 2 18 2 45 0 60 -2 15 -4 0 -4 -33z"/>
<path d="M10088 2818 c-8 -22 7 -91 20 -94 7 -1 8 0 2 3 -12 6 -13 70 -1 75 5
2 3 8 -4 15 -10 9 -15 9 -17 1z"/>
<path d="M8505 2800 c-3 -6 1 -7 9 -4 18 7 21 14 7 14 -6 0 -13 -4 -16 -10z"/>
<path d="M8623 2799 c11 -6 18 -24 19 -47 l1 -37 4 33 c4 34 -10 62 -31 62 -6
0 -3 -5 7 -11z"/>
<path d="M8689 2793 c-13 -17 -13 -17 6 -3 11 8 22 16 24 17 2 2 0 3 -6 3 -6
0 -17 -8 -24 -17z"/>
<path d="M8791 2807 c2 -1 13 -9 24 -17 19 -14 19 -14 6 3 -7 9 -18 17 -24 17
-6 0 -8 -1 -6 -3z"/>
<path d="M9189 2793 c-13 -17 -13 -17 6 -3 11 8 22 16 24 17 2 2 0 3 -6 3 -6
0 -17 -8 -24 -17z"/>
<path d="M9381 2807 c2 -1 13 -9 24 -17 19 -14 19 -14 6 3 -7 9 -18 17 -24 17
-6 0 -8 -1 -6 -3z"/>
<path d="M9630 2795 c-19 -22 -8 -25 13 -3 9 10 13 18 8 18 -5 0 -14 -7 -21
-15z"/>
<path d="M9757 2800 c6 -8 13 -31 16 -50 l4 -35 1 36 c1 24 -4 41 -15 50 -16
12 -16 12 -6 -1z"/>
<path d="M9807 2800 c6 -8 13 -31 16 -50 l4 -35 1 36 c1 24 -4 41 -15 50 -16
12 -16 12 -6 -1z"/>
<path d="M9999 2793 c-13 -17 -13 -17 6 -3 11 8 22 16 24 17 2 2 0 3 -6 3 -6
0 -17 -8 -24 -17z"/>
<path d="M10155 2800 c-3 -6 1 -7 9 -4 18 7 21 14 7 14 -6 0 -13 -4 -16 -10z"/>
<path d="M10273 2799 c11 -6 18 -24 19 -47 l1 -37 4 33 c4 34 -10 62 -31 62
-6 0 -3 -5 7 -11z"/>
<path d="M10451 2807 c2 -1 13 -9 24 -17 19 -14 19 -14 6 3 -7 9 -18 17 -24
17 -6 0 -8 -1 -6 -3z"/>
<path d="M8583 2760 c0 -25 2 -35 4 -22 2 12 2 32 0 45 -2 12 -4 2 -4 -23z"/>
<path d="M8907 2793 c-22 -21 2 -74 33 -72 9 0 5 4 -9 10 -19 7 -22 15 -19 39
5 32 5 33 -5 23z"/>
<path d="M9007 2793 c-11 -11 -8 -48 5 -61 14 -14 44 -16 52 -4 2 4 -7 8 -21
7 -14 0 -28 6 -30 13 -3 8 6 12 26 12 31 0 43 21 21 35 -6 3 -7 -1 -4 -9 5
-12 -1 -16 -21 -16 -20 0 -26 4 -21 15 6 16 3 19 -7 8z"/>
<path d="M9534 2786 c-14 -36 23 -83 46 -60 8 8 4 10 -12 10 -19 -1 -23 4 -23
32 0 35 -3 40 -11 18z"/>
<path d="M9723 2760 c0 -25 2 -35 4 -22 2 12 2 32 0 45 -2 12 -4 2 -4 -23z"/>
<path d="M10233 2760 c0 -25 2 -35 4 -22 2 12 2 32 0 45 -2 12 -4 2 -4 -23z"/>
<path d="M10375 2790 c3 -5 8 -10 11 -10 2 0 4 5 4 10 0 6 -5 10 -11 10 -5 0
-7 -4 -4 -10z"/>
<path d="M8317 2760 c-3 -13 -4 -26 -2 -29 3 -2 5 1 5 7 0 7 14 12 30 12 17 0
30 -5 30 -12 0 -6 2 -9 5 -6 3 3 1 16 -4 29 -5 13 -10 18 -10 12 -1 -17 -38
-17 -43 -1 -3 7 -7 2 -11 -12z"/>
<path d="M8760 2760 c0 -31 49 -55 64 -32 2 4 -7 8 -21 7 -39 0 -40 23 -1 27
l33 3 -37 6 c-30 4 -38 2 -38 -11z"/>
<path d="M9210 2770 l-35 -7 38 -2 c20 0 37 4 37 9 0 6 -1 9 -2 9 -2 -1 -19
-5 -38 -9z"/>
<path d="M9350 2760 c0 -31 49 -55 64 -32 2 4 -7 8 -21 7 -39 0 -40 23 -1 27
l33 3 -37 6 c-30 4 -38 2 -38 -11z"/>
<path d="M9681 2762 c-1 -13 -10 -26 -23 -32 -16 -6 -18 -9 -7 -9 22 -1 42 24
36 46 -4 14 -5 13 -6 -5z"/>
<path d="M9921 2764 c0 -11 3 -14 6 -6 3 7 2 16 -1 19 -3 4 -6 -2 -5 -13z"/>
<path d="M10020 2770 l-35 -7 38 -2 c20 0 37 4 37 9 0 6 -1 9 -2 9 -2 -1 -19
-5 -38 -9z"/>
<path d="M10321 2765 c-1 -25 17 -45 39 -44 10 0 9 3 -5 8 -11 4 -23 19 -26
32 -6 21 -7 21 -8 4z"/>
<path d="M10421 2764 c0 -11 3 -14 6 -6 3 7 2 16 -1 19 -3 4 -6 -2 -5 -13z"/>
<path d="M8518 2763 c6 -2 18 -2 25 0 6 3 1 5 -13 5 -14 0 -19 -2 -12 -5z"/>
<path d="M10168 2763 c6 -2 18 -2 25 0 6 3 1 5 -13 5 -14 0 -19 -2 -12 -5z"/>
<path d="M8494 2740 c1 -8 10 -16 21 -17 15 -1 15 0 3 3 -9 3 -19 11 -21 17
-2 7 -3 5 -3 -3z"/>
<path d="M10144 2740 c1 -8 10 -16 21 -17 15 -1 15 0 3 3 -9 3 -19 11 -21 17
-2 7 -3 5 -3 -3z"/>
<path d="M8427 2733 c3 -7 6 -13 8 -13 2 0 5 6 8 13 3 8 -1 14 -8 14 -7 0 -11
-6 -8 -14z"/>
<path d="M8683 2740 c5 -18 35 -26 50 -11 7 7 3 8 -13 4 -13 -4 -26 0 -32 8
-8 12 -9 11 -5 -1z"/>
<path d="M10480 2741 c0 -9 -9 -12 -25 -9 -13 3 -22 1 -19 -3 7 -13 42 -11 49
2 4 6 4 13 1 16 -3 4 -6 1 -6 -6z"/>
<path d="M9215 2730 c-16 -7 -17 -9 -3 -9 9 -1 20 4 23 9 7 11 7 11 -20 0z"/>
<path d="M9290 2730 c0 -5 5 -10 10 -10 6 0 10 5 10 10 0 6 -4 10 -10 10 -5 0
-10 -4 -10 -10z"/>
<path d="M9895 2730 c-16 -7 -17 -9 -3 -9 9 -1 20 4 23 9 7 11 7 11 -20 0z"/>
<path d="M10025 2730 c-16 -7 -17 -9 -3 -9 9 -1 20 4 23 9 7 11 7 11 -20 0z"/>
<path d="M9133 2555 c0 -33 2 -45 4 -27 2 18 2 45 0 60 -2 15 -4 0 -4 -33z"/>
<path d="M9275 2580 c-3 -6 1 -7 9 -4 18 7 21 14 7 14 -6 0 -13 -4 -16 -10z"/>
<path d="M9383 2579 c23 -13 22 -29 -2 -29 -11 0 -22 -4 -25 -9 -3 -4 6 -6 19
-3 32 6 33 -15 3 -28 -22 -8 -21 -9 5 -7 23 1 27 6 27 32 0 31 -15 55 -34 55
-6 0 -3 -5 7 -11z"/>
<path d="M9435 2580 c3 -5 12 -7 20 -3 21 7 19 13 -6 13 -11 0 -18 -4 -14 -10z"/>
<path d="M9561 2587 c2 -1 13 -9 24 -17 19 -14 19 -14 6 3 -7 9 -18 17 -24 17
-6 0 -8 -1 -6 -3z"/>
<path d="M9650 2586 c0 -2 7 -7 16 -10 8 -3 12 -2 9 4 -6 10 -25 14 -25 6z"/>
<path d="M9077 2573 c-22 -21 2 -74 33 -72 9 0 5 4 -9 10 -19 7 -22 15 -19 39
5 32 5 33 -5 23z"/>
<path d="M9177 2573 c-11 -11 -8 -48 5 -61 14 -14 44 -16 52 -4 2 4 -7 8 -21
7 -14 0 -28 6 -30 13 -3 8 6 12 26 12 31 0 43 21 21 35 -6 3 -7 -1 -4 -9 5
-12 -1 -16 -21 -16 -20 0 -26 4 -21 15 6 16 3 19 -7 8z"/>
<path d="M9503 2540 c0 -25 2 -35 4 -22 2 12 2 32 0 45 -2 12 -4 2 -4 -23z"/>
<path d="M9631 2567 c-1 -10 9 -21 24 -27 33 -13 33 -34 -1 -27 -16 3 -22 1
-16 -5 14 -14 47 -5 47 12 0 8 -10 19 -22 25 -12 5 -24 16 -27 25 -3 11 -4 11
-5 -3z"/>
<path d="M9277 2549 c7 -7 15 -10 18 -7 3 3 -2 9 -12 12 -14 6 -15 5 -6 -5z"/>
<path d="M9531 2544 c0 -11 3 -14 6 -6 3 7 2 16 -1 19 -3 4 -6 -2 -5 -13z"/>
<path d="M9590 2521 c0 -9 -9 -12 -25 -9 -13 3 -22 1 -19 -3 7 -13 42 -11 49
2 4 6 4 13 1 16 -3 4 -6 1 -6 -6z"/>
<path d="M9267 2508 c2 -5 13 -8 23 -8 10 0 21 3 23 8 3 4 -8 7 -23 7 -15 0
-26 -3 -23 -7z"/>
<path d="M2210 1840 c-19 -19 -20 -33 -20 -380 0 -347 1 -361 20 -380 20 -20
33 -20 2053 -20 1958 0 2035 1 2050 18 15 17 17 58 17 384 0 341 -1 366 -18
381 -17 16 -174 17 -2050 17 -2019 0 -2032 0 -2052 -20z m1546 -301 c10 -17
-13 -36 -27 -22 -12 12 -4 33 11 33 5 0 12 -5 16 -11z m168 -4 c3 -9 -1 -18
-10 -22 -19 -7 -28 2 -21 22 8 19 23 19 31 0z m762 4 c10 -17 -13 -36 -27 -22
-12 12 -4 33 11 33 5 0 12 -5 16 -11z m-1106 -74 c0 -60 -3 -75 -15 -75 -12 0
-15 15 -15 75 0 60 3 75 15 75 12 0 15 -15 15 -75z m1270 0 c0 -60 -3 -75 -15
-75 -12 0 -15 15 -15 75 0 60 3 75 15 75 12 0 15 -15 15 -75z m-1152 -22 c2
-43 0 -53 -12 -53 -12 0 -16 11 -16 41 0 33 -3 40 -17 37 -13 -2 -19 -14 -21
-41 -2 -24 -8 -37 -18 -37 -10 0 -14 14 -14 56 l0 55 48 -3 47 -3 3 -52z m62
2 c0 -48 -2 -55 -20 -55 -18 0 -20 7 -20 55 0 48 2 55 20 55 18 0 20 -7 20
-55z m110 35 c9 -17 8 -20 -9 -20 -11 0 -23 5 -26 10 -10 16 -25 1 -25 -25 0
-26 15 -41 25 -25 9 15 47 13 43 -2 -3 -7 -16 -19 -30 -27 -23 -13 -29 -13
-52 2 -28 19 -34 53 -16 88 15 27 75 26 90 -1z m50 -35 c0 -42 -3 -55 -15 -55
-12 0 -15 13 -15 55 0 42 3 55 15 55 12 0 15 -13 15 -55z m118 -1 l3 -51 -37
-6 c-22 -4 -43 -2 -51 5 -16 13 -17 44 -3 53 8 5 8 11 1 19 -17 20 9 37 49 34
35 -3 35 -4 38 -54z m92 42 c0 -7 -9 -16 -20 -19 -15 -4 -20 -14 -20 -41 0
-25 -4 -36 -15 -36 -12 0 -15 13 -15 55 l0 55 35 0 c23 0 35 -5 35 -14z m90
-27 c0 -33 3 -40 18 -37 12 2 18 14 20 41 2 24 8 37 18 37 10 0 14 -14 14 -54
0 -53 0 -54 -32 -59 -53 -8 -68 6 -68 63 0 38 4 50 15 50 11 0 15 -11 15 -41z
m248 -16 c3 -48 1 -53 -17 -53 -18 0 -21 6 -21 40 0 22 -4 40 -10 40 -5 0 -10
-18 -10 -40 0 -33 -3 -40 -20 -40 -17 0 -20 7 -20 40 0 29 -4 40 -15 40 -11 0
-15 -11 -15 -40 0 -29 -4 -40 -15 -40 -12 0 -15 13 -15 55 l0 56 78 -3 77 -3
3 -52z m160 45 c21 -21 13 -29 -23 -22 -33 6 -35 4 -35 -19 0 -33 14 -41 39
-25 23 14 34 8 25 -16 -15 -40 -89 -26 -100 19 -13 54 57 100 94 63z m62 -43
c0 -48 -2 -55 -20 -55 -18 0 -20 7 -20 55 0 48 2 55 20 55 18 0 20 -7 20 -55z
m110 35 c9 -17 8 -20 -9 -20 -11 0 -23 5 -26 10 -10 16 -25 1 -25 -25 0 -26
15 -41 25 -25 9 15 47 13 43 -2 -3 -7 -16 -19 -30 -27 -23 -13 -29 -13 -52 2
-28 19 -34 53 -16 88 15 27 75 26 90 -1z m169 6 c21 -25 9 -79 -20 -95 -24
-13 -29 -13 -53 2 -19 13 -26 26 -26 50 0 18 5 38 12 45 17 17 73 15 87 -2z"/>
<path d="M3975 1470 c-3 -5 3 -10 15 -10 12 0 18 5 15 10 -3 6 -10 10 -15 10
-5 0 -12 -4 -15 -10z"/>
<path d="M3970 1420 c0 -5 7 -10 15 -10 8 0 15 5 15 10 0 6 -7 10 -15 10 -8 0
-15 -4 -15 -10z"/>
<path d="M4912 1468 c-16 -16 -15 -33 2 -47 21 -18 41 11 26 38 -13 25 -12 25
-28 9z"/>
</g>
</svg>
