<?xml version="1.0" standalone="no"?>
<!DOCTYPE svg PUBLIC "-//W3C//DTD SVG 20010904//EN"
 "http://www.w3.org/TR/2001/REC-SVG-20010904/DTD/svg10.dtd">
<svg version="1.0" xmlns="http://www.w3.org/2000/svg"
 width="615.000000pt" height="765.000000pt" viewBox="0 0 615.000000 765.000000"
 preserveAspectRatio="xMidYMid meet">

<g transform="translate(0.000000,765.000000) scale(0.100000,-0.100000)"
fill="#000000" stroke="none">
<path d="M0 3825 l0 -3825 3075 0 3075 0 0 3825 0 3825 -3075 0 -3075 0 0
-3825z m5124 2669 c14 -14 16 -271 16 -2684 0 -2413 -2 -2670 -16 -2684 -14
-14 -208 -16 -1984 -16 -1776 0 -1970 2 -1984 16 -14 14 -16 271 -16 2684 0
2413 2 2670 16 2684 14 14 208 16 1984 16 1776 0 1970 -2 1984 -16z"/>
<path d="M2953 5162 c-13 -37 -23 -73 -23 -80 0 -10 20 -12 77 -10 l76 3 24
75 c12 41 23 76 23 78 0 1 -35 2 -77 2 l-78 0 -22 -68z"/>
<path d="M3150 5228 c0 -2 11 -37 23 -78 l24 -75 76 -3 c57 -2 77 0 77 10 0 7
-10 43 -22 80 l-23 68 -77 0 c-43 0 -78 -1 -78 -2z"/>
<path d="M2914 5025 c-13 -50 21 -149 63 -188 19 -17 20 -15 45 57 l25 74 -58
41 c-32 23 -60 41 -63 41 -3 0 -8 -11 -12 -25z"/>
<path d="M3289 5009 l-56 -41 25 -74 c25 -72 26 -74 45 -57 26 24 54 80 62
126 7 38 0 87 -13 86 -4 0 -32 -18 -63 -40z"/>
<path d="M3080 4859 c-30 -22 -56 -44 -58 -48 -1 -4 25 -27 58 -50 l60 -42 60
42 c33 23 60 45 60 48 0 7 -115 92 -122 91 -2 -1 -28 -19 -58 -41z"/>
<path d="M3000 4300 c0 -53 4 -90 10 -90 6 0 10 37 10 90 0 53 -4 90 -10 90
-6 0 -10 -37 -10 -90z"/>
<path d="M2673 4295 c12 -47 24 -85 29 -85 4 0 15 26 24 58 10 31 21 61 24 65
4 4 15 -22 25 -58 9 -36 21 -65 25 -65 4 0 15 30 24 68 9 37 19 75 22 85 3 9
1 17 -5 17 -5 0 -15 -26 -22 -57 -11 -55 -29 -93 -29 -64 0 24 -31 121 -39
121 -5 0 -16 -30 -26 -67 -20 -73 -20 -73 -45 25 -6 23 -14 42 -19 42 -5 0 1
-38 12 -85z"/>
<path d="M2887 4322 c-22 -25 -21 -75 1 -95 23 -21 42 -21 68 -2 17 13 16 14
-18 8 -30 -4 -38 -2 -47 16 -11 20 -9 21 34 21 38 0 45 3 45 19 0 24 -26 51
-49 51 -10 0 -25 -8 -34 -18z m61 -19 c2 -9 -7 -13 -27 -13 -30 0 -39 9 -24
24 11 10 46 3 51 -11z"/>
<path d="M3070 4320 c-11 -11 -20 -31 -20 -45 0 -25 31 -65 51 -65 18 0 49 20
49 32 0 7 -5 7 -14 -2 -8 -6 -25 -10 -38 -8 -20 3 -23 9 -23 43 0 34 3 40 23
43 13 2 30 -2 38 -8 17 -15 19 1 2 18 -18 18 -45 15 -68 -8z"/>
<path d="M3197 4322 c-35 -38 -10 -112 36 -112 25 0 57 36 57 65 0 29 -32 65
-58 65 -11 0 -26 -8 -35 -18z m69 -26 c9 -39 -4 -66 -32 -66 -32 0 -51 38 -35
69 17 30 59 28 67 -3z"/>
<path d="M3320 4273 c0 -35 4 -63 10 -63 6 0 10 25 10 56 0 54 0 55 28 52 25
-3 27 -7 33 -58 5 -51 6 -52 7 -13 3 58 10 73 38 73 22 0 24 -4 24 -55 0 -32
4 -55 10 -55 7 0 10 22 8 56 -3 62 -20 84 -54 69 -11 -4 -23 -7 -29 -5 -5 2
-27 4 -47 4 l-38 2 0 -63z"/>
<path d="M3549 4330 c-38 -22 -30 -102 10 -115 23 -7 61 2 61 14 0 5 -11 6
-25 3 -25 -4 -55 12 -55 29 0 5 20 9 45 9 49 0 56 10 29 48 -16 23 -39 27 -65
12z m59 -27 c2 -9 -8 -13 -32 -13 -28 0 -34 3 -29 16 7 18 54 16 61 -3z"/>
<path d="M2243 3855 c0 -33 2 -45 4 -27 2 18 2 45 0 60 -2 15 -4 0 -4 -33z"/>
<path d="M4363 3855 c0 -33 2 -45 4 -27 2 18 2 45 0 60 -2 15 -4 0 -4 -33z"/>
<path d="M1622 3853 l-2 -53 33 1 c29 2 29 2 5 6 -24 4 -27 9 -31 51 l-3 47
-2 -52z"/>
<path d="M2039 3889 c-2 -29 3 -74 9 -81 4 -4 6 13 5 38 -1 43 -12 74 -14 43z"/>
<path d="M2906 3888 c-9 -28 -2 -43 19 -43 17 0 22 6 21 25 -1 27 -33 41 -40
18z m34 -13 c0 -8 -7 -15 -15 -15 -8 0 -15 7 -15 15 0 8 7 15 15 15 8 0 15 -7
15 -15z"/>
<path d="M3969 3889 c-2 -29 3 -74 9 -81 4 -4 6 13 5 38 -1 43 -12 74 -14 43z"/>
<path d="M4130 3885 c-10 -12 -7 -18 19 -32 17 -10 32 -25 35 -33 3 -11 4 -11
5 2 1 10 -12 24 -30 34 -23 12 -28 19 -20 27 9 9 17 8 34 -2 20 -13 21 -13 8
2 -17 21 -35 22 -51 2z"/>
<path d="M4543 3850 c0 -30 2 -43 4 -27 2 15 2 39 0 55 -2 15 -4 2 -4 -28z"/>
<path d="M4582 3893 c12 -3 18 -18 21 -51 l3 -47 2 47 c2 35 6 48 20 51 9 3
-1 5 -23 5 -22 0 -32 -2 -23 -5z"/>
<path d="M1707 3873 c-3 -5 5 -8 18 -8 13 0 21 3 18 8 -2 4 -10 7 -18 7 -8 0
-16 -3 -18 -7z"/>
<path d="M1785 3870 c-3 -6 1 -7 9 -4 18 7 21 14 7 14 -6 0 -13 -4 -16 -10z"/>
<path d="M1820 3829 c0 -48 -2 -51 -21 -46 -16 4 -19 3 -11 -5 23 -23 42 0 42
52 0 27 -2 50 -5 50 -3 0 -5 -23 -5 -51z"/>
<path d="M1893 3840 c0 -25 2 -35 4 -22 2 12 2 32 0 45 -2 12 -4 2 -4 -23z"/>
<path d="M1957 3873 c6 -4 13 -24 16 -43 4 -34 4 -33 3 4 -1 26 -6 41 -16 43
-10 3 -11 2 -3 -4z"/>
<path d="M2114 3868 c21 -17 18 -51 -6 -56 -12 -2 -18 5 -21 25 -4 28 -4 28
-3 -2 1 -22 6 -30 20 -30 26 0 44 30 30 52 -6 9 -17 19 -25 21 -8 2 -6 -2 5
-10z"/>
<path d="M2202 3868 c-22 -22 -7 -69 23 -68 5 0 2 5 -7 11 -10 5 -18 19 -18
29 0 10 8 24 18 29 9 6 12 11 7 11 -6 0 -16 -5 -23 -12z"/>
<path d="M2281 3866 c-16 -19 -11 -46 11 -60 12 -7 21 -7 28 0 8 8 4 10 -11
10 -12 -1 -24 5 -26 12 -3 7 5 12 22 12 20 0 26 4 23 17 -4 23 -31 28 -47 9z
m39 -6 c0 -5 -9 -10 -21 -10 -11 0 -17 5 -14 10 3 6 13 10 21 10 8 0 14 -4 14
-10z"/>
<path d="M2497 3873 c-3 -5 5 -8 18 -8 13 0 21 3 18 8 -2 4 -10 7 -18 7 -8 0
-16 -3 -18 -7z"/>
<path d="M2646 3871 c-3 -5 3 -7 14 -4 11 3 20 1 20 -5 0 -5 -9 -12 -21 -15
-22 -6 -24 -38 -1 -43 7 -1 8 0 2 3 -15 7 -12 33 4 33 8 0 17 -8 20 -17 2 -10
4 -2 3 17 -2 34 -27 54 -41 31z"/>
<path d="M2731 3838 c-12 -24 -16 -35 -8 -26 8 10 17 14 23 8 5 -5 9 5 10 26
0 19 0 34 -1 34 -1 0 -11 -19 -24 -42z"/>
<path d="M2795 3871 c-4 -7 0 -8 10 -4 10 3 21 0 27 -8 8 -12 9 -11 5 1 -5 18
-33 25 -42 11z"/>
<path d="M3047 3873 c-3 -5 5 -8 18 -8 13 0 21 3 18 8 -2 4 -10 7 -18 7 -8 0
-16 -3 -18 -7z"/>
<path d="M3124 3866 c-3 -8 -4 -25 -2 -38 2 -17 10 -23 31 -24 25 -1 27 2 27
35 0 32 -3 37 -25 39 -15 1 -28 -4 -31 -12z m41 -26 c0 -16 -6 -26 -17 -28
-14 -3 -18 3 -18 28 0 25 4 31 18 28 11 -2 17 -12 17 -28z"/>
<path d="M3228 3873 c6 -2 18 -2 25 0 6 3 1 5 -13 5 -14 0 -19 -2 -12 -5z"/>
<path d="M3287 3873 c-3 -5 5 -8 18 -8 13 0 21 3 18 8 -2 4 -10 7 -18 7 -8 0
-16 -3 -18 -7z"/>
<path d="M3410 3876 c0 -2 7 -7 16 -10 8 -3 12 -2 9 4 -6 10 -25 14 -25 6z"/>
<path d="M3470 3865 c-15 -18 -10 -45 12 -59 12 -7 21 -7 28 0 8 8 4 10 -12
10 -18 -1 -23 4 -23 24 0 19 5 25 22 24 12 0 20 3 17 8 -8 13 -30 9 -44 -7z"/>
<path d="M3577 3873 c6 -4 13 -24 16 -43 4 -34 4 -33 3 4 -1 26 -6 41 -16 43
-10 3 -11 2 -3 -4z"/>
<path d="M3618 3873 c6 -2 18 -2 25 0 6 3 1 5 -13 5 -14 0 -19 -2 -12 -5z"/>
<path d="M3673 3840 c0 -25 2 -35 4 -22 2 12 2 32 0 45 -2 12 -4 2 -4 -23z"/>
<path d="M3701 3835 l2 -40 6 35 c4 22 12 35 21 35 9 0 17 -13 21 -35 6 -34 6
-34 8 -5 1 39 -10 54 -37 52 -19 -1 -22 -7 -21 -42z"/>
<path d="M3782 3847 c-2 -40 19 -60 40 -39 8 8 5 9 -10 5 -18 -4 -21 0 -25 34
l-4 38 -1 -38z"/>
<path d="M3861 3866 c-16 -19 -11 -46 11 -60 12 -7 21 -7 28 0 8 8 4 10 -11
10 -12 -1 -24 5 -26 12 -3 7 5 12 22 12 20 0 26 4 23 17 -4 23 -31 28 -47 9z
m39 -6 c0 -5 -9 -10 -21 -10 -11 0 -17 5 -14 10 3 6 13 10 21 10 8 0 14 -4 14
-10z"/>
<path d="M4044 3868 c21 -17 18 -51 -6 -56 -12 -2 -18 5 -21 25 -4 28 -4 28
-3 -2 1 -22 6 -30 20 -30 26 0 44 30 30 52 -6 9 -17 19 -25 21 -8 2 -6 -2 5
-10z"/>
<path d="M4211 3864 c0 -11 3 -14 6 -6 3 7 2 16 -1 19 -3 4 -6 -2 -5 -13z"/>
<path d="M4237 3873 c6 -4 13 -24 16 -43 4 -34 4 -33 3 4 -1 26 -6 41 -16 43
-10 3 -11 2 -3 -4z"/>
<path d="M4296 3871 c-3 -5 3 -7 14 -4 11 3 20 0 20 -6 0 -6 -6 -11 -14 -11
-19 0 -36 -23 -28 -37 4 -7 18 -11 30 -10 20 1 23 6 20 37 -3 34 -28 54 -42
31z m34 -40 c0 -14 -18 -23 -30 -16 -6 4 -8 11 -5 16 8 12 35 12 35 0z"/>
<path d="M4390 3865 c-7 -9 -11 -17 -9 -20 3 -2 10 5 17 15 14 24 10 26 -8 5z"/>
<path d="M4450 3876 c0 -2 7 -7 16 -10 8 -3 12 -2 9 4 -6 10 -25 14 -25 6z"/>
<path d="M2560 3846 c0 -23 17 -46 34 -46 5 0 1 6 -9 14 -11 8 -16 19 -12 30
10 25 35 19 40 -9 4 -23 4 -23 3 2 -1 23 -6 28 -28 29 -22 1 -28 -3 -28 -20z"/>
<path d="M3392 3840 c0 -19 2 -27 5 -17 2 9 2 25 0 35 -3 9 -5 1 -5 -18z"/>
<path d="M4432 3840 c2 -25 8 -35 21 -36 12 -1 13 -1 2 3 -23 7 -18 33 8 34
20 1 20 2 2 6 -11 3 -24 10 -28 17 -4 6 -6 -5 -5 -24z"/>
<path d="M2418 3843 c7 -3 16 -2 19 1 4 3 -2 6 -13 5 -11 0 -14 -3 -6 -6z"/>
<path d="M3044 3835 c-7 -17 3 -35 19 -34 9 0 9 2 0 6 -21 8 -15 31 10 36 l22
4 -23 2 c-12 0 -25 -6 -28 -14z"/>
<path d="M2360 3820 c0 -5 5 -10 10 -10 6 0 10 5 10 10 0 6 -4 10 -10 10 -5 0
-10 -4 -10 -10z"/>
<path d="M2830 3821 c0 -8 -8 -11 -20 -8 -11 3 -18 1 -14 -4 3 -5 11 -9 19 -9
16 0 30 18 21 27 -3 4 -6 1 -6 -6z"/>
<path d="M2990 3820 c0 -5 5 -10 10 -10 6 0 10 5 10 10 0 6 -4 10 -10 10 -5 0
-10 -4 -10 -10z"/>
<path d="M4132 3814 c9 -9 21 -15 27 -13 6 2 -2 10 -17 17 -25 11 -25 11 -10
-4z"/>
<path d="M4396 3817 c3 -10 9 -15 12 -12 3 3 0 11 -7 18 -10 9 -11 8 -5 -6z"/>
<path d="M1707 3808 c2 -5 10 -8 18 -8 8 0 16 3 18 8 3 4 -5 7 -18 7 -13 0
-21 -3 -18 -7z"/>
<path d="M1787 3809 c7 -7 15 -10 18 -7 3 3 -2 9 -12 12 -14 6 -15 5 -6 -5z"/>
<path d="M2497 3808 c2 -5 10 -8 18 -8 8 0 16 3 18 8 3 4 -5 7 -18 7 -13 0
-21 -3 -18 -7z"/>
<path d="M2907 3808 c2 -5 10 -8 18 -8 8 0 16 3 18 8 3 4 -5 7 -18 7 -13 0
-21 -3 -18 -7z"/>
<path d="M3240 3810 c0 -5 5 -10 11 -10 5 0 7 5 4 10 -3 6 -8 10 -11 10 -2 0
-4 -4 -4 -10z"/>
<path d="M3287 3808 c2 -5 10 -8 18 -8 8 0 16 3 18 8 3 4 -5 7 -18 7 -13 0
-21 -3 -18 -7z"/>
<path d="M3420 3810 c-9 -6 -10 -10 -3 -10 6 0 15 5 18 10 8 12 4 12 -15 0z"/>
<path d="M3630 3810 c0 -5 5 -10 11 -10 5 0 7 5 4 10 -3 6 -8 10 -11 10 -2 0
-4 -4 -4 -10z"/>
<path d="M3127 3778 c2 -5 10 -8 18 -8 8 0 16 3 18 8 3 4 -5 7 -18 7 -13 0
-21 -3 -18 -7z"/>
<path d="M1780 3323 c-32 -12 -50 -36 -39 -49 8 -10 15 -8 31 8 15 15 28 19
49 14 25 -5 49 8 37 20 -8 8 -63 13 -78 7z"/>
<path d="M2096 3288 c-21 -29 -20 -51 2 -78 14 -18 25 -21 44 -17 14 4 29 14
32 24 6 16 6 16 -12 0 -26 -24 -51 -21 -64 8 -22 49 25 98 60 63 8 -8 12 -8
12 -1 0 12 -23 23 -45 23 -8 0 -21 -10 -29 -22z"/>
<path d="M2963 3250 c0 -53 1 -57 6 -25 5 31 10 40 26 40 16 0 21 -9 26 -40
l6 -40 1 35 c2 45 -10 64 -36 58 -16 -4 -22 0 -25 16 -2 11 -4 -8 -4 -44z"/>
<path d="M3116 3294 c-35 -35 -10 -104 38 -104 27 0 46 18 46 42 0 13 -7 18
-27 17 -24 -2 -25 -2 -5 -6 30 -6 28 -31 -3 -39 -35 -9 -57 12 -53 49 4 39 30
57 58 39 11 -7 20 -8 20 -3 0 23 -53 27 -74 5z"/>
<path d="M3493 3250 c0 -36 2 -50 4 -32 2 17 2 47 0 65 -2 17 -4 3 -4 -33z"/>
<path d="M2378 3290 c-5 -16 3 -100 11 -100 3 0 5 23 4 51 -1 50 -7 71 -15 49z"/>
<path d="M2918 3289 c-8 -25 7 -92 22 -96 12 -4 12 -2 2 5 -8 5 -12 25 -11 50
3 41 -5 65 -13 41z"/>
<path d="M2199 3259 c-16 -31 4 -71 33 -67 12 2 23 9 24 16 1 7 0 8 -3 2 -8
-16 -40 -12 -47 6 -10 25 3 54 24 54 10 0 22 -9 25 -21 4 -11 9 -18 12 -16 2
3 0 15 -7 26 -14 27 -46 27 -61 0z"/>
<path d="M2291 3231 l2 -46 6 40 c4 26 12 41 23 43 13 3 18 -6 21 -40 l4 -43
-1 45 c-1 42 -3 45 -28 46 -27 1 -28 -1 -27 -45z"/>
<path d="M2423 3235 c0 -27 2 -38 4 -22 2 15 2 37 0 50 -2 12 -4 0 -4 -28z"/>
<path d="M2463 3235 c0 -27 2 -38 4 -22 2 15 2 37 0 50 -2 12 -4 0 -4 -28z"/>
<path d="M2492 3268 c9 -7 19 -29 21 -48 3 -26 4 -24 3 10 -1 36 -5 45 -21 48
-18 4 -19 3 -3 -10z"/>
<path d="M2554 3238 c1 -40 3 -43 29 -44 26 -1 27 1 26 45 l-2 46 -6 -40 c-9
-57 -38 -61 -44 -6 l-4 41 1 -42z"/>
<path d="M2638 3254 c-9 -18 -9 -30 -1 -42 13 -21 55 -22 60 -2 4 12 3 12 -5
2 -11 -16 -44 -12 -50 6 -2 8 7 12 27 12 24 0 31 4 31 19 0 17 -18 31 -41 31
-5 0 -15 -12 -21 -26z m50 -1 c2 -8 -6 -13 -22 -13 -19 0 -24 4 -19 15 6 18
34 16 41 -2z"/>
<path d="M2762 3270 c0 -8 5 -31 12 -49 9 -25 15 -31 20 -22 5 7 4 16 -1 20
-6 3 -15 20 -21 36 -6 17 -10 23 -10 15z"/>
<path d="M2807 3266 c-9 -23 -9 -28 2 -22 5 3 11 -9 15 -27 5 -25 9 -29 16
-17 11 18 13 37 3 26 -4 -4 -12 7 -18 25 -9 27 -13 29 -18 15z"/>
<path d="M2883 3235 c0 -27 2 -38 4 -22 2 15 2 37 0 50 -2 12 -4 0 -4 -28z"/>
<path d="M3233 3273 c-7 -2 -13 -20 -13 -38 0 -25 5 -35 20 -40 26 -8 50 11
50 39 0 36 -25 53 -57 39z m42 -38 c0 -23 -4 -30 -20 -30 -21 0 -31 25 -21 51
11 28 41 12 41 -21z"/>
<path d="M3323 3273 c-7 -2 -13 -20 -13 -38 0 -25 5 -35 20 -40 26 -8 50 11
50 39 0 36 -25 53 -57 39z m42 -38 c0 -23 -4 -30 -20 -30 -21 0 -31 25 -21 51
11 28 41 12 41 -21z"/>
<path d="M3404 3266 c-3 -8 -4 -27 -2 -43 2 -22 8 -28 26 -27 13 0 22 -5 22
-14 0 -10 -8 -13 -26 -9 -16 3 -22 1 -16 -5 6 -6 18 -8 28 -6 16 3 20 14 22
61 3 55 2 57 -23 57 -14 0 -28 -6 -31 -14z m41 -31 c0 -20 -6 -31 -17 -33 -15
-3 -18 4 -18 33 0 29 3 36 18 33 11 -2 17 -13 17 -33z"/>
<path d="M3530 3266 c-15 -20 -9 -56 12 -70 14 -8 21 -6 35 9 16 17 17 18 1 6
-19 -14 -48 -9 -48 9 0 5 14 10 30 10 31 0 39 17 18 38 -16 16 -33 15 -48 -2z
m48 -13 c2 -8 -6 -13 -22 -13 -25 0 -33 10 -19 24 10 10 36 3 41 -11z"/>
<path d="M2851 3254 c0 -11 3 -14 6 -6 3 7 2 16 -1 19 -3 4 -6 -2 -5 -13z"/>
<path d="M1810 3235 c0 -9 10 -15 26 -15 18 0 25 -4 21 -14 -3 -8 -3 -17 0
-20 11 -11 33 16 33 40 0 21 -5 24 -40 24 -29 0 -40 -4 -40 -15z"/>
<path d="M1761 2726 c-57 -32 -67 -102 -21 -148 17 -17 34 -28 37 -24 3 3 -5
15 -18 26 l-24 20 30 -6 30 -6 -23 17 c-18 13 -22 25 -20 53 l4 36 54 0 54 0
4 -36 c2 -28 -2 -39 -18 -51 -16 -11 -19 -19 -12 -38 l9 -23 32 31 c18 19 31
42 31 57 0 80 -81 130 -149 92z"/>
<path d="M2096 2688 c-21 -29 -20 -51 2 -78 14 -18 25 -21 44 -17 14 4 29 14
32 24 6 16 6 16 -12 0 -26 -24 -51 -21 -64 8 -22 49 25 98 60 63 8 -8 12 -8
12 -1 0 12 -23 23 -45 23 -8 0 -21 -10 -29 -22z"/>
<path d="M2963 2650 c0 -53 1 -57 6 -25 5 31 10 40 26 40 16 0 21 -9 26 -40
l6 -40 1 35 c2 45 -10 64 -36 58 -16 -4 -22 0 -25 16 -2 11 -4 -8 -4 -44z"/>
<path d="M3116 2694 c-35 -35 -10 -104 38 -104 27 0 46 18 46 42 0 13 -7 18
-27 17 -24 -2 -25 -2 -5 -6 30 -6 28 -31 -3 -39 -35 -9 -57 12 -53 49 4 39 30
57 58 39 11 -7 20 -8 20 -3 0 23 -53 27 -74 5z"/>
<path d="M3303 2650 c0 -36 2 -50 4 -32 4 29 7 32 38 32 31 0 34 -3 38 -32 2
-18 4 -4 4 32 0 36 -2 53 -4 38 -4 -24 -9 -28 -38 -28 -29 0 -34 4 -38 28 -2
15 -4 -2 -4 -38z"/>
<path d="M3512 2680 c0 -19 2 -27 5 -17 2 9 2 25 0 35 -3 9 -5 1 -5 -18z"/>
<path d="M2378 2690 c-5 -16 3 -100 11 -100 3 0 5 23 4 51 -1 50 -7 71 -15 49z"/>
<path d="M2918 2689 c-8 -25 7 -92 22 -96 12 -4 12 -2 2 5 -8 5 -12 25 -11 50
3 41 -5 65 -13 41z"/>
<path d="M3258 2689 c-8 -25 7 -92 22 -96 12 -4 12 -2 2 5 -8 5 -12 25 -11 50
3 41 -5 65 -13 41z"/>
<path d="M2199 2659 c-16 -31 4 -71 33 -67 12 2 23 9 24 16 1 7 0 8 -3 2 -8
-16 -40 -12 -47 6 -10 25 3 54 24 54 10 0 22 -9 25 -21 4 -11 9 -18 12 -16 2
3 0 15 -7 26 -14 27 -46 27 -61 0z"/>
<path d="M2291 2631 l2 -46 6 40 c4 26 12 41 23 43 13 3 18 -6 21 -40 l4 -43
-1 45 c-1 42 -3 45 -28 46 -27 1 -28 -1 -27 -45z"/>
<path d="M2423 2635 c0 -27 2 -38 4 -22 2 15 2 37 0 50 -2 12 -4 0 -4 -28z"/>
<path d="M2463 2635 c0 -27 2 -38 4 -22 2 15 2 37 0 50 -2 12 -4 0 -4 -28z"/>
<path d="M2492 2668 c9 -7 19 -29 21 -48 3 -26 4 -24 3 10 -1 36 -5 45 -21 48
-18 4 -19 3 -3 -10z"/>
<path d="M2554 2638 c1 -40 3 -43 29 -44 26 -1 27 1 26 45 l-2 46 -6 -40 c-9
-57 -38 -61 -44 -6 l-4 41 1 -42z"/>
<path d="M2638 2654 c-9 -18 -9 -30 -1 -42 13 -21 55 -22 60 -2 4 12 3 12 -5
2 -11 -16 -44 -12 -50 6 -2 8 7 12 27 12 24 0 31 4 31 19 0 17 -18 31 -41 31
-5 0 -15 -12 -21 -26z m50 -1 c2 -8 -6 -13 -22 -13 -19 0 -24 4 -19 15 6 18
34 16 41 -2z"/>
<path d="M2762 2670 c0 -8 5 -31 12 -49 9 -25 15 -31 20 -22 5 7 4 16 -1 20
-6 3 -15 20 -21 36 -6 17 -10 23 -10 15z"/>
<path d="M2807 2666 c-9 -23 -9 -28 2 -22 5 3 11 -9 15 -27 5 -25 9 -29 16
-17 11 18 13 37 3 26 -4 -4 -12 7 -18 25 -9 27 -13 29 -18 15z"/>
<path d="M2883 2635 c0 -27 2 -38 4 -22 2 15 2 37 0 50 -2 12 -4 0 -4 -28z"/>
<path d="M3223 2635 c0 -27 2 -38 4 -22 2 15 2 37 0 50 -2 12 -4 0 -4 -28z"/>
<path d="M3424 2638 c1 -40 3 -43 29 -44 26 -1 27 1 26 45 l-2 46 -6 -40 c-9
-57 -38 -61 -44 -6 l-4 41 1 -42z"/>
<path d="M3543 2670 c9 -6 17 -22 17 -35 0 -13 -8 -29 -17 -34 -10 -6 -13 -10
-8 -11 40 0 49 82 10 88 -18 2 -18 2 -2 -8z"/>
<path d="M2851 2654 c0 -11 3 -14 6 -6 3 7 2 16 -1 19 -3 4 -6 -2 -5 -13z"/>
</g>
</svg>
