<?xml version="1.0" standalone="no"?>
<!DOCTYPE svg PUBLIC "-//W3C//DTD SVG 20010904//EN"
 "http://www.w3.org/TR/2001/REC-SVG-20010904/DTD/svg10.dtd">
<svg version="1.0" xmlns="http://www.w3.org/2000/svg"
 width="704.000000pt" height="372.000000pt" viewBox="0 0 704.000000 372.000000"
 preserveAspectRatio="xMidYMid meet">

<g transform="translate(0.000000,372.000000) scale(0.100000,-0.100000)"
fill="#000000" stroke="none">
<path d="M0 1860 l0 -1860 3520 0 3520 0 0 1860 0 1860 -3520 0 -3520 0 0
-1860z m1840 1820 c-223 -3 -397 -8 -387 -12 10 -5 48 -8 83 -8 36 0 64 -4 64
-10 0 -6 -30 -10 -70 -10 -40 0 -70 -4 -70 -10 0 -6 30 -10 70 -10 63 0 70 -2
70 -20 0 -16 7 -20 30 -20 20 0 30 -5 30 -15 0 -9 12 -18 30 -21 21 -5 30 -12
30 -25 0 -25 -8 -24 -31 3 -11 11 -22 18 -25 15 -8 -8 54 -67 70 -67 7 0 6 3
-2 9 -11 6 -9 9 7 14 11 2 21 1 23 -3 5 -13 673 -19 2101 -20 1190 0 1347 -2
1347 -15 0 -13 -196 -15 -1702 -16 -959 0 -1694 -4 -1683 -9 11 -5 55 -9 98
-9 70 -1 77 -3 77 -21 0 -17 7 -20 40 -20 33 0 40 -3 40 -20 0 -17 7 -20 40
-20 33 0 40 -3 40 -20 0 -17 7 -20 40 -20 29 0 40 -4 40 -15 0 -8 11 -17 25
-21 14 -3 25 -12 25 -20 0 -9 11 -14 33 -14 47 0 77 -10 77 -26 0 -10 13 -14
40 -14 27 0 43 -5 46 -15 4 -9 19 -15 36 -15 30 0 58 -19 58 -39 0 -6 4 -11
10 -11 18 0 28 -35 20 -70 -6 -26 -8 -29 -9 -11 -1 21 -4 23 -36 18 -38 -6
-49 1 -34 23 8 13 10 13 19 0 7 -11 10 -4 10 28 l0 42 -50 0 c-43 0 -50 -3
-50 -20 0 -14 7 -20 21 -20 16 0 20 -5 17 -27 -3 -24 -7 -28 -32 -26 -17 1
-36 -3 -43 -9 -11 -8 -12 -7 -7 6 7 19 -21 23 -29 4 -4 -10 -8 -9 -16 2 -19
27 -31 -8 -14 -41 17 -35 31 -37 43 -6 8 21 9 21 9 2 1 -23 36 -31 58 -13 9 7
13 7 13 -1 0 -6 5 -11 10 -11 6 0 10 10 10 23 1 22 1 22 15 -3 8 -14 14 -19
15 -12 0 21 20 13 20 -8 0 -15 7 -20 25 -20 14 0 25 6 25 13 0 9 10 12 31 9
20 -3 34 0 40 9 6 10 9 11 9 2 0 -8 13 -13 31 -13 28 0 30 2 27 33 -3 28 -7
32 -30 32 -16 -1 -28 3 -28 7 0 4 -7 8 -15 8 -9 0 -15 -10 -16 -27 l-1 -28 -7
30 c-12 51 -3 65 40 65 32 0 39 -3 39 -20 0 -11 3 -19 8 -19 24 4 33 -3 27
-21 -6 -17 -2 -20 29 -20 29 0 36 -4 36 -20 0 -11 5 -20 10 -20 6 0 10 -7 10
-15 0 -8 9 -15 20 -15 13 0 20 -7 20 -20 0 -17 7 -20 40 -20 29 0 40 4 40 15
0 9 9 15 25 15 14 0 25 -4 25 -8 0 -4 17 -14 38 -22 20 -7 42 -19 47 -25 6 -7
29 -15 53 -18 26 -3 50 -13 61 -26 23 -26 71 -29 71 -3 1 16 1 16 14 0 9 -12
27 -18 55 -18 28 0 44 -5 47 -15 4 -8 12 -15 20 -15 8 0 14 -9 14 -20 0 -14 7
-20 23 -21 l22 -2 -22 -4 c-26 -5 -32 -33 -8 -33 9 0 18 -7 21 -15 4 -9 19
-15 40 -15 19 0 34 -5 34 -11 0 -16 26 -39 45 -39 9 0 19 -9 22 -19 3 -12 17
-21 39 -26 25 -4 34 -11 34 -25 0 -11 5 -20 10 -20 6 0 10 -13 10 -29 0 -27
20 -47 34 -34 3 4 6 145 6 314 l0 309 23 5 c13 4 432 3 933 -2 l909 -8 5 -800
c3 -440 7 -780 8 -755 2 25 6 39 9 33 3 -10 8 -10 19 1 9 9 14 35 14 70 0 31
5 56 10 56 6 0 10 -27 10 -60 0 -68 -6 -65 99 -54 50 6 61 10 61 25 0 16 8 19
50 19 43 0 50 -3 50 -20 0 -16 7 -20 30 -20 18 0 33 -6 36 -15 4 -8 15 -15 25
-15 10 0 19 -7 19 -15 0 -8 7 -15 15 -15 10 0 15 -10 15 -30 0 -28 2 -30 39
-30 33 0 40 4 44 23 l4 22 8 -22 c5 -15 17 -23 39 -26 29 -4 29 -4 -6 -5 -51
-3 -54 -32 -3 -32 24 0 35 -5 35 -15 0 -8 7 -15 15 -15 8 0 15 -4 15 -10 0 -5
11 -10 25 -10 13 0 28 -6 32 -13 4 -8 16 -16 26 -20 9 -3 17 -13 17 -22 0 -8
7 -15 15 -15 8 0 15 7 15 15 0 8 5 15 10 15 6 0 10 -7 10 -15 0 -23 60 -20 61
3 1 16 2 16 6 0 2 -10 14 -19 26 -19 22 -2 22 -2 0 -6 -30 -6 -30 -31 0 -35
14 -2 23 -11 25 -25 7 -49 22 -19 23 45 l1 67 14 -95 c9 -68 13 -228 13 -557
l1 -463 -3070 0 -3070 0 0 1725 0 1725 898 -2 c660 -2 790 -4 492 -8z m1026
-580 c8 0 14 -4 14 -10 0 -5 -13 -10 -30 -10 -21 0 -30 5 -30 16 0 11 5 14 16
10 9 -3 22 -6 30 -6z m-286 -91 c0 -5 -4 -9 -10 -9 -5 0 -10 7 -10 16 0 8 5
12 10 9 6 -3 10 -10 10 -16z m738 -122 c24 -4 24 -4 -5 -6 -28 -1 -33 2 -32
22 1 15 3 17 6 5 2 -9 16 -19 31 -21z m2922 -1338 c0 -5 -18 -9 -40 -9 -33 0
-40 4 -40 19 0 17 4 18 40 9 22 -6 40 -14 40 -19z"/>
<path d="M1447 3494 c-4 -4 -7 -23 -7 -41 0 -30 3 -34 23 -31 18 2 22 9 22 38
0 33 -20 51 -38 34z m19 -41 c-10 -10 -19 5 -10 18 6 11 8 11 12 0 2 -7 1 -15
-2 -18z"/>
<path d="M1593 3483 c-14 -3 -23 -13 -26 -31 l-4 -27 -2 28 c-1 20 -6 27 -21
27 -16 0 -20 -7 -20 -30 0 -25 4 -30 25 -30 14 0 25 -6 25 -12 0 -8 3 -9 8 -3
4 6 16 15 27 22 11 6 18 17 16 25 -2 7 -4 19 -4 26 0 6 -1 11 -1 11 -1 -1 -11
-4 -23 -6z"/>
<path d="M1840 3390 c0 -5 18 -10 40 -10 22 0 40 5 40 10 0 6 -18 10 -40 10
-22 0 -40 -4 -40 -10z"/>
<path d="M1945 3043 c4 -10 10 -28 12 -40 7 -31 31 -29 39 2 8 31 25 33 21 3
-2 -18 4 -24 26 -26 15 -2 27 2 27 8 0 6 5 8 10 5 6 -4 8 -11 5 -16 -10 -16
25 -22 49 -10 13 7 27 25 33 39 l11 27 1 -27 c1 -16 6 -28 12 -28 6 0 9 14 7
32 -3 32 -4 33 -56 34 -38 0 -55 -4 -62 -15 -8 -14 -9 -14 -16 2 -5 14 -13 17
-30 13 -14 -4 -24 -2 -24 4 0 19 -18 10 -24 -12 l-7 -23 -11 23 c-13 26 -34
30 -23 5z m175 -17 c0 -3 -4 -8 -10 -11 -5 -3 -10 -1 -10 4 0 6 5 11 10 11 6
0 10 -2 10 -4z"/>
<path d="M2237 3047 c-22 -9 -27 -17 -25 -37 3 -22 8 -25 46 -26 34 -1 42 3
42 17 0 9 3 24 6 32 6 17 -11 18 -35 3 -11 -7 -13 -5 -8 7 3 10 5 17 4 16 -1
-1 -15 -6 -30 -12z m26 -44 c-7 -2 -19 -2 -25 0 -7 3 -2 5 12 5 14 0 19 -2 13
-5z"/>
<path d="M1801 3003 c-1 -7 -10 -13 -21 -13 -11 0 -20 -6 -20 -12 0 -7 -4 -19
-9 -27 -8 -12 -12 -12 -25 -2 -12 10 -23 11 -46 2 -27 -9 -33 -7 -52 14 -13
15 -32 25 -49 25 -28 0 -59 -22 -59 -42 0 -6 -13 4 -28 21 -34 39 -46 30 -57
-43 l-7 -49 29 6 c25 5 28 3 28 -22 0 -27 -1 -28 -22 -13 -41 26 -23 -27 26
-81 30 -33 63 -52 108 -61 29 -7 32 -5 43 29 9 28 9 40 0 48 -9 9 -16 6 -32
-13 l-21 -25 8 45 c4 25 8 57 7 73 -1 15 3 28 8 28 19 3 25 4 35 10 20 11 40
3 52 -21 l13 -25 0 24 c0 22 1 23 25 7 13 -9 33 -16 44 -16 10 0 22 -8 25 -17
11 -28 26 5 25 57 0 40 -26 125 -28 93z m-211 -92 c0 -5 -9 -7 -20 -4 -11 3
-20 7 -20 9 0 2 9 4 20 4 11 0 20 -4 20 -9z"/>
<path d="M2041 2913 c-1 -23 3 -33 14 -33 8 0 15 5 15 10 0 6 -4 10 -9 10 -5
0 -12 10 -14 23 -3 16 -5 13 -6 -10z"/>
<path d="M2200 2930 c0 -5 5 -10 10 -10 6 0 10 5 10 10 0 6 -4 10 -10 10 -5 0
-10 -4 -10 -10z"/>
<path d="M2245 2931 c-4 -7 1 -8 12 -4 17 6 17 5 1 -14 -23 -25 -23 -33 1 -33
15 0 19 6 18 27 -2 28 -21 42 -32 24z"/>
<path d="M2083 2914 c-3 -9 -1 -20 5 -26 12 -12 35 -1 27 13 -4 5 -1 9 4 9 20
0 11 16 -10 17 -11 1 -23 -5 -26 -13z"/>
<path d="M2139 2913 c-9 -10 -9 -17 -1 -25 9 -9 12 -7 12 8 0 11 3 15 8 8 7
-11 62 -26 62 -17 0 2 -8 12 -17 21 -21 21 -49 24 -64 5z"/>
<path d="M2693 2833 c9 -2 25 -2 35 0 9 3 1 5 -18 5 -19 0 -27 -2 -17 -5z"/>
<path d="M2221 2778 c-1 -21 4 -28 17 -28 11 0 13 3 6 8 -7 4 -14 16 -17 27
-4 15 -5 14 -6 -7z"/>
<path d="M2442 2775 c0 -16 2 -22 5 -12 2 9 2 23 0 30 -3 6 -5 -1 -5 -18z"/>
<path d="M2264 2778 c-9 -13 7 -30 23 -24 8 3 23 1 34 -4 16 -9 19 -7 19 14 0
21 -4 24 -36 23 -19 -1 -38 -5 -40 -9z m26 -8 c0 -5 -4 -10 -10 -10 -5 0 -10
5 -10 10 0 6 5 10 10 10 6 0 10 -4 10 -10z m40 0 c0 -5 -4 -10 -10 -10 -5 0
-10 5 -10 10 0 6 5 10 10 10 6 0 10 -4 10 -10z"/>
<path d="M2352 2773 c2 -9 10 -18 18 -20 13 -4 13 -3 0 6 -13 10 -13 12 0 21
13 8 12 10 -3 10 -12 0 -17 -6 -15 -17z"/>
<path d="M2422 2770 c0 -14 2 -19 5 -12 2 6 2 18 0 25 -3 6 -5 1 -5 -13z"/>
<path d="M2390 2771 c0 -6 4 -13 10 -16 6 -3 7 1 4 9 -7 18 -14 21 -14 7z"/>
<path d="M3242 2428 c-19 -19 -14 -30 11 -22 21 6 21 6 6 -12 -32 -38 -32 -44
3 -44 22 0 29 3 20 9 -11 7 -12 12 -1 29 10 17 10 23 0 36 -16 19 -23 20 -39
4z"/>
<path d="M3923 2405 c0 -22 2 -30 4 -17 2 12 2 30 0 40 -3 9 -5 -1 -4 -23z"/>
<path d="M5282 2410 c0 -19 2 -27 5 -17 2 9 2 25 0 35 -3 9 -5 1 -5 -18z"/>
<path d="M1440 2395 c0 -31 3 -35 25 -35 14 0 25 5 25 12 0 9 3 9 12 0 7 -7
20 -12 31 -12 13 0 18 6 15 23 -2 15 -10 22 -25 22 -13 0 -28 6 -35 13 -7 7
-20 12 -30 12 -14 0 -18 -8 -18 -35z m40 -5 c0 -11 -6 -20 -14 -20 -9 0 -14 9
-13 20 1 11 7 20 14 20 7 0 13 -9 13 -20z"/>
<path d="M1658 2418 c-3 -7 -1 -24 3 -38 4 -14 8 -18 8 -10 1 8 4 25 7 38 7
23 -10 32 -18 10z"/>
<path d="M2080 2417 c0 -9 -10 -12 -30 -9 -29 4 -30 3 -30 -32 0 -20 5 -36 10
-36 6 0 10 5 10 10 0 6 7 10 15 10 8 0 15 6 15 13 0 8 4 7 10 -3 7 -11 10 -5
10 23 0 20 -2 37 -5 37 -3 0 -5 -6 -5 -13z m-25 -26 c3 -5 1 -12 -5 -16 -5 -3
-10 1 -10 9 0 18 6 21 15 7z"/>
<path d="M4132 2400 c0 -19 2 -27 5 -17 2 9 2 25 0 35 -3 9 -5 1 -5 -18z"/>
<path d="M2150 2412 c0 -5 -11 -7 -25 -4 -22 4 -25 1 -25 -22 0 -19 5 -26 19
-26 11 0 22 6 25 13 5 10 7 10 12 0 10 -22 20 -14 18 14 -1 24 -24 48 -24 25z"/>
<path d="M3982 2395 c0 -16 2 -22 5 -12 2 9 2 23 0 30 -3 6 -5 -1 -5 -18z"/>
<path d="M4162 2395 c0 -16 2 -22 5 -12 2 9 2 23 0 30 -3 6 -5 -1 -5 -18z"/>
<path d="M4402 2395 c0 -16 2 -22 5 -12 2 9 2 23 0 30 -3 6 -5 -1 -5 -18z"/>
<path d="M4922 2400 c0 -14 2 -19 5 -12 2 6 2 18 0 25 -3 6 -5 1 -5 -13z"/>
<path d="M5321 2403 c-1 -12 -7 -24 -13 -26 -10 -4 -10 -6 0 -6 15 -1 26 23
19 41 -3 7 -6 3 -6 -9z"/>
<path d="M5412 2395 c0 -16 2 -22 5 -12 2 9 2 23 0 30 -3 6 -5 -1 -5 -18z"/>
<path d="M1560 2386 c0 -22 4 -24 46 -24 41 0 45 2 42 21 -4 25 -38 37 -38 13
0 -19 -9 -20 -30 -5 -13 9 -12 10 3 5 11 -3 16 -2 12 4 -12 20 -35 10 -35 -14z"/>
<path d="M1692 2385 c0 -16 2 -22 5 -12 2 9 2 23 0 30 -3 6 -5 -1 -5 -18z"/>
<path d="M1714 2395 c-4 -9 -2 -21 4 -27 15 -15 44 -1 40 19 -4 23 -36 29 -44
8z m31 -4 c3 -5 1 -12 -5 -16 -5 -3 -10 1 -10 9 0 18 6 21 15 7z"/>
<path d="M1770 2385 c0 -18 5 -25 20 -25 24 0 27 18 4 27 -13 5 -13 7 -2 14
10 7 9 9 -4 9 -13 0 -18 -8 -18 -25z"/>
<path d="M1840 2385 c0 -18 5 -25 20 -25 11 0 20 4 20 10 0 5 -7 7 -15 4 -10
-4 -15 0 -15 11 0 11 5 15 15 11 8 -3 15 -1 15 4 0 6 -9 10 -20 10 -15 0 -20
-7 -20 -25z"/>
<path d="M1890 2384 c0 -20 5 -23 35 -22 26 1 35 6 38 22 4 20 4 20 6 -1 0
-13 6 -23 12 -23 6 0 9 7 6 15 -4 8 -2 17 3 20 5 3 11 -5 13 -17 4 -20 4 -20
6 4 1 27 0 28 -59 27 -56 -1 -60 -3 -60 -25z m30 1 c0 -8 -4 -15 -10 -15 -5 0
-10 7 -10 15 0 8 5 15 10 15 6 0 10 -7 10 -15z"/>
<path d="M2186 2394 c-3 -9 -4 -20 0 -25 8 -13 42 -11 47 4 4 10 6 10 6 0 1
-7 10 -13 21 -13 15 0 20 7 20 25 0 18 -5 25 -19 25 -11 0 -22 -6 -24 -12 -4
-10 -6 -10 -6 0 -1 18 -38 15 -45 -4z m34 -9 c0 -8 -4 -15 -10 -15 -5 0 -10 7
-10 15 0 8 5 15 10 15 6 0 10 -7 10 -15z"/>
<path d="M2290 2399 c0 -5 5 -7 10 -4 6 3 10 8 10 11 0 2 -4 4 -10 4 -5 0 -10
-5 -10 -11z"/>
<path d="M4198 2373 c6 -2 18 -2 25 0 6 3 1 5 -13 5 -14 0 -19 -2 -12 -5z"/>
<path d="M4628 2373 c7 -3 16 -2 19 1 4 3 -2 6 -13 5 -11 0 -14 -3 -6 -6z"/>
<path d="M4612 2260 c0 -19 2 -27 5 -17 2 9 2 25 0 35 -3 9 -5 1 -5 -18z"/>
<path d="M4477 2259 c4 -13 8 -18 11 -10 2 7 -1 18 -6 23 -8 8 -9 4 -5 -13z"/>
<path d="M4573 2265 c-3 -9 -3 -19 1 -22 3 -4 6 1 6 10 0 8 6 18 13 20 9 4 9
6 -1 6 -7 1 -15 -6 -19 -14z"/>
<path d="M4718 2273 c7 -3 16 -2 19 1 4 3 -2 6 -13 5 -11 0 -14 -3 -6 -6z"/>
<path d="M4828 2273 c7 -3 16 -2 19 1 4 3 -2 6 -13 5 -11 0 -14 -3 -6 -6z"/>
<path d="M4895 2270 c-3 -6 1 -7 9 -4 18 7 21 14 7 14 -6 0 -13 -4 -16 -10z"/>
<path d="M4452 2250 c0 -14 2 -19 5 -12 2 6 2 18 0 25 -3 6 -5 1 -5 -13z"/>
<path d="M4862 2245 c0 -16 2 -22 5 -12 2 9 2 23 0 30 -3 6 -5 -1 -5 -18z"/>
<path d="M4643 2246 c1 -11 9 -21 17 -23 10 -3 11 -2 4 4 -6 4 -14 15 -17 23
-5 11 -6 9 -4 -4z"/>
<path d="M4760 2241 c0 -6 4 -13 10 -16 6 -3 7 1 4 9 -7 18 -14 21 -14 7z"/>
<path d="M4897 2229 c7 -7 15 -10 18 -7 3 3 -2 9 -12 12 -14 6 -15 5 -6 -5z"/>
<path d="M4667 1826 c-7 -18 1 -46 13 -46 16 0 20 34 7 48 -12 12 -15 11 -20
-2z"/>
<path d="M1549 1801 c-23 -18 -24 -26 -27 -164 -3 -141 -3 -145 21 -173 24
-27 30 -29 101 -29 65 0 79 3 98 23 21 20 23 34 26 138 6 200 -7 224 -124 224
-56 0 -77 -4 -95 -19z m155 -47 c12 -30 7 -249 -6 -262 -16 -16 -90 -16 -106
0 -13 13 -18 259 -5 271 3 4 30 7 59 7 38 0 53 -4 58 -16z"/>
<path d="M1979 1801 c-23 -18 -24 -26 -27 -164 -3 -141 -3 -145 21 -173 24
-27 30 -29 101 -29 65 0 79 3 98 23 21 21 23 33 26 148 4 143 1 165 -30 194
-31 28 -155 29 -189 1z m159 -165 c2 -86 -1 -133 -9 -142 -14 -17 -90 -19
-107 -2 -13 13 -18 259 -5 272 4 4 32 6 63 4 l55 -3 3 -129z"/>
<path d="M2562 1800 c-31 -29 -34 -51 -30 -194 3 -115 5 -127 26 -148 19 -20
33 -23 98 -23 71 0 77 2 100 28 23 27 24 35 24 158 0 135 -11 179 -45 193 -9
3 -47 6 -84 6 -54 0 -72 -4 -89 -20z m156 -164 c2 -86 -1 -133 -9 -142 -14
-17 -90 -19 -107 -2 -13 13 -18 232 -6 263 5 13 18 15 63 13 l56 -3 3 -129z"/>
<path d="M2970 1715 l0 -105 29 0 c16 0 31 6 35 15 7 18 86 21 104 3 17 -17
16 -123 -2 -137 -8 -7 -34 -11 -58 -9 -39 3 -44 6 -53 36 -7 24 -15 32 -32 32
-19 0 -23 -5 -23 -29 0 -43 9 -60 41 -76 34 -18 115 -19 149 -2 58 29 67 189
13 224 -32 21 -121 23 -134 2 -6 -9 -9 5 -9 44 l0 57 85 0 c84 0 85 0 85 25
l0 25 -115 0 -115 0 0 -105z"/>
<path d="M2340 1675 c0 -31 3 -35 25 -35 22 0 25 4 25 35 0 31 -3 35 -25 35
-22 0 -25 -4 -25 -35z"/>
<path d="M2340 1515 c0 -31 3 -35 25 -35 22 0 25 4 25 35 0 31 -3 35 -25 35
-22 0 -25 -4 -25 -35z"/>
<path d="M1440 895 l0 -175 925 0 925 0 0 175 0 175 -925 0 -925 0 0 -175z
m629 14 c1 9 9 12 26 9 17 -4 25 -1 25 8 0 8 5 14 10 14 6 0 10 -10 10 -21 0
-18 2 -19 15 -9 12 10 18 10 30 0 13 -10 15 -9 15 11 1 21 2 22 13 9 7 -10 26
-14 49 -13 21 1 40 -2 43 -7 4 -6 1 -10 -4 -10 -6 0 -11 -9 -11 -20 0 -18 -6
-20 -67 -19 -38 1 -71 7 -75 13 -6 8 -8 7 -8 -1 0 -7 -9 -13 -20 -13 -14 0
-20 7 -21 23 -2 21 -2 21 -6 1 -3 -15 -12 -21 -29 -21 -20 0 -24 4 -24 32 0
40 13 54 21 23 4 -13 7 -17 8 -9z m491 14 c0 -5 11 -8 25 -8 14 0 25 3 25 8 0
4 5 7 10 7 6 0 10 -7 10 -16 0 -13 3 -14 15 -4 20 17 45 5 45 -20 0 -25 -25
-37 -45 -20 -8 7 -15 8 -15 3 0 -13 -121 -13 -137 -1 -19 15 4 51 28 45 10 -3
19 -1 19 4 0 5 5 9 10 9 6 0 10 -3 10 -7z m-209 -25 c2 -22 2 -22 6 -2 4 19
10 22 51 20 43 -1 47 -3 50 -28 2 -16 -1 -28 -7 -28 -6 0 -12 10 -12 23 l-2
22 -4 -22 c-5 -27 -22 -31 -24 -5 -1 16 -2 16 -6 -1 -4 -14 -13 -17 -36 -15
-27 2 -33 8 -35 31 -2 15 1 27 7 27 6 0 12 -10 12 -22z"/>
<path d="M2580 890 c0 -5 5 -10 10 -10 6 0 10 5 10 10 0 6 -4 10 -10 10 -5 0
-10 -4 -10 -10z"/>
</g>
</svg>
