<?xml version="1.0" standalone="no"?>
<!DOCTYPE svg PUBLIC "-//W3C//DTD SVG 20010904//EN"
 "http://www.w3.org/TR/2001/REC-SVG-20010904/DTD/svg10.dtd">
<svg version="1.0" xmlns="http://www.w3.org/2000/svg"
 width="1366.000000pt" height="768.000000pt" viewBox="0 0 1366.000000 768.000000"
 preserveAspectRatio="xMidYMid meet">

<g transform="translate(0.000000,768.000000) scale(0.100000,-0.100000)"
fill="#000000" stroke="none">
<path d="M1883 7665 c0 -8 3 -13 5 -10 3 3 12 -1 20 -8 8 -6 25 -12 36 -12 12
-1 20 -6 19 -11 -1 -6 18 -10 47 -9 30 1 48 -3 47 -9 -1 -6 4 -10 11 -8 8 1
11 -2 7 -8 -5 -8 -11 -7 -22 2 -18 15 -41 19 -48 8 -2 -4 5 -7 18 -6 12 0 21
-4 20 -10 -1 -6 8 -11 20 -10 12 0 21 -4 20 -10 -1 -6 8 -11 20 -10 12 0 21
-4 20 -10 -1 -6 10 -10 25 -9 15 1 26 6 25 12 -1 5 4 10 12 10 8 0 13 -5 12
-11 -1 -6 4 -10 11 -8 8 1 11 -2 7 -8 -3 -6 -10 -8 -15 -5 -5 3 -12 1 -15 -5
-4 -6 -1 -9 7 -8 7 2 12 -2 11 -8 -1 -6 4 -11 12 -11 8 0 13 5 12 10 -1 6 10
11 25 12 15 1 26 -3 25 -9 -1 -6 4 -10 11 -8 8 1 11 -2 7 -8 -5 -8 -13 -6 -25
5 -12 11 -20 13 -25 5 -4 -6 -1 -9 7 -8 7 2 12 -4 10 -12 -2 -8 0 -12 4 -7 4
4 16 -1 26 -10 14 -12 19 -13 16 -4 -2 9 7 15 24 16 15 1 26 -3 25 -9 -1 -6 4
-10 11 -8 8 1 11 -2 7 -8 -5 -8 -13 -6 -25 5 -12 11 -20 13 -25 5 -4 -6 -1 -9
7 -8 7 2 12 -4 10 -12 -2 -8 0 -12 4 -7 4 4 16 -1 26 -10 14 -12 19 -13 16 -4
-2 9 7 15 23 16 15 1 26 -3 26 -11 0 -10 -4 -11 -13 -3 -8 7 -14 6 -20 -2 -4
-7 -3 -9 3 -6 6 4 16 1 22 -7 6 -7 27 -12 49 -11 26 1 39 -2 39 -11 0 -10 -4
-11 -13 -3 -9 7 -14 6 -20 -3 -4 -7 -4 -10 1 -6 4 4 15 2 23 -5 8 -6 25 -12
36 -12 12 -1 20 -6 19 -11 -1 -6 18 -10 47 -9 30 1 48 -3 47 -9 -1 -6 4 -10
11 -8 8 1 11 -2 7 -8 -5 -8 -11 -7 -22 2 -18 15 -41 19 -48 8 -2 -4 5 -7 18
-6 12 0 21 -4 20 -10 -1 -6 10 -10 25 -9 15 1 26 6 25 12 -1 5 4 10 12 10 8 0
13 -5 12 -11 -1 -6 4 -10 10 -9 7 2 12 -3 10 -10 -1 -6 4 -11 11 -9 8 1 11 -2
7 -8 -5 -8 -13 -6 -25 5 -12 11 -20 13 -25 5 -4 -6 -1 -9 7 -8 7 2 12 -2 11
-8 -1 -6 10 -10 25 -9 15 1 26 6 25 12 -1 5 4 10 12 10 8 0 13 -5 12 -11 -1
-6 4 -10 11 -8 8 1 11 -2 7 -8 -3 -6 -10 -8 -15 -5 -5 3 -12 1 -15 -5 -4 -6
-1 -9 7 -8 7 2 12 -2 11 -8 -1 -6 4 -11 12 -11 8 0 13 5 12 10 -1 6 10 11 25
12 15 1 26 -3 25 -9 -1 -6 4 -10 11 -8 8 1 11 -2 7 -8 -5 -8 -13 -6 -25 5 -12
11 -20 13 -25 5 -4 -6 -1 -9 7 -8 7 2 12 -3 11 -9 -2 -10 815 -13 3853 -13
2121 0 3860 -3 3865 -6 12 -7 12 -41 0 -48 -5 -3 -1706 -6 -3780 -6 -2075 0
-3770 -4 -3767 -9 3 -4 23 -7 44 -6 26 1 39 -2 39 -11 0 -10 -4 -11 -13 -3 -9
7 -14 6 -20 -3 -4 -7 -4 -10 1 -6 4 4 15 2 23 -5 8 -6 25 -12 36 -12 12 -1 20
-6 19 -11 -1 -6 18 -10 47 -9 30 1 48 -3 47 -9 -1 -6 4 -10 11 -8 8 1 11 -2 7
-8 -5 -8 -11 -7 -22 2 -18 15 -41 19 -48 8 -2 -4 5 -7 18 -6 12 0 21 -4 20
-10 -1 -6 10 -10 25 -9 15 1 26 6 25 12 -1 5 4 10 12 10 8 0 13 -5 12 -11 -1
-6 4 -10 10 -9 7 2 12 -3 10 -10 -1 -6 4 -11 11 -9 8 1 11 -2 7 -8 -5 -8 -13
-6 -25 5 -12 11 -20 13 -25 5 -4 -6 -1 -9 7 -8 7 2 12 -2 11 -8 -1 -6 10 -10
25 -9 15 1 26 6 25 12 -1 5 4 10 12 10 8 0 13 -5 12 -11 -1 -6 4 -10 11 -8 8
1 11 -2 7 -8 -3 -6 -10 -8 -15 -5 -5 3 -12 1 -15 -5 -4 -6 -1 -9 7 -8 7 2 12
-2 11 -8 -1 -6 4 -11 12 -11 8 0 13 5 12 10 -1 6 10 11 25 12 15 1 26 -3 25
-9 -1 -6 4 -10 11 -8 8 1 11 -2 7 -8 -5 -8 -13 -6 -25 5 -12 11 -20 13 -25 5
-4 -6 -1 -9 7 -8 7 2 12 -4 10 -12 -2 -8 0 -12 4 -7 4 4 16 -1 26 -10 14 -12
19 -13 16 -4 -2 9 7 15 24 16 15 1 26 -3 25 -9 -1 -6 8 -10 20 -10 12 1 21 -4
20 -10 -1 -6 7 -11 19 -10 11 1 21 -5 21 -12 0 -10 -4 -11 -13 -3 -8 7 -14 6
-20 -2 -4 -7 -3 -9 3 -6 6 4 16 1 22 -7 6 -7 27 -12 49 -11 26 1 39 -2 39 -11
0 -10 -4 -11 -13 -3 -9 7 -14 6 -20 -3 -4 -7 -4 -10 1 -6 4 4 15 2 23 -5 8 -6
25 -12 36 -12 12 -1 20 -6 19 -11 -1 -6 18 -10 47 -9 30 1 48 -3 47 -9 -1 -6
4 -10 11 -8 8 1 11 -2 7 -8 -5 -8 -11 -7 -22 2 -18 15 -41 19 -48 8 -2 -4 5
-7 18 -6 12 0 21 -4 20 -10 -1 -6 10 -10 25 -9 15 1 26 6 25 12 -1 5 4 10 12
10 8 0 13 -5 12 -11 -1 -6 4 -10 11 -8 6 1 11 -4 10 -10 -2 -7 3 -12 10 -10 8
1 11 -2 7 -8 -5 -8 -13 -6 -25 5 -12 11 -20 13 -25 5 -4 -6 -1 -9 7 -8 7 2 12
-2 11 -8 -1 -6 10 -10 25 -9 15 1 26 6 25 12 -1 5 4 10 12 10 8 0 13 -5 12
-11 -1 -6 4 -10 11 -8 8 1 11 -2 7 -8 -3 -6 -10 -8 -15 -5 -5 3 -12 1 -15 -5
-4 -6 -1 -9 7 -8 7 2 12 -2 11 -8 -1 -6 4 -11 12 -11 8 0 13 5 12 10 -1 6 10
11 25 12 15 1 26 -3 25 -9 -1 -6 4 -10 11 -8 8 1 11 -2 7 -8 -5 -8 -13 -6 -25
5 -12 11 -20 13 -25 5 -4 -6 -1 -9 7 -8 7 2 12 -4 10 -12 -2 -8 0 -12 4 -7 4
4 16 -1 26 -10 14 -12 19 -13 16 -4 -2 9 7 15 24 16 15 1 26 -3 25 -9 -1 -6 8
-10 20 -10 13 1 20 -2 18 -6 -7 -11 -30 -7 -48 8 -11 9 -17 10 -22 2 -4 -6 -1
-9 7 -8 7 2 12 -2 11 -8 -1 -6 17 -10 46 -9 33 1 48 -3 48 -12 0 -9 -4 -10
-13 -2 -8 7 -14 6 -20 -2 -4 -7 -3 -9 3 -6 6 4 16 1 22 -7 6 -7 27 -12 49 -11
26 1 39 -2 39 -11 0 -10 -4 -11 -13 -3 -9 7 -14 6 -20 -3 -4 -7 -4 -10 1 -6 4
4 15 2 23 -5 8 -6 25 -12 36 -12 12 -1 20 -6 19 -11 -1 -6 18 -10 47 -9 30 1
48 -3 47 -9 -1 -6 4 -10 11 -8 8 1 11 -2 7 -8 -5 -8 -11 -7 -22 2 -18 15 -41
19 -48 8 -2 -4 5 -7 18 -6 12 0 21 -4 20 -10 -1 -6 10 -10 25 -9 15 1 26 6 25
12 -1 5 4 10 12 10 8 0 13 -5 12 -11 -1 -6 4 -10 11 -8 6 1 11 -4 10 -10 -2
-7 3 -12 10 -10 8 1 11 -2 7 -8 -5 -8 -13 -6 -25 5 -12 11 -20 13 -25 5 -4 -6
-1 -9 7 -8 7 2 12 -2 11 -8 -1 -6 10 -10 25 -9 15 1 26 6 25 12 -1 5 4 10 12
10 8 0 13 -5 12 -11 -1 -6 4 -10 11 -8 8 1 11 -2 7 -8 -3 -6 -10 -8 -15 -5 -5
3 -12 1 -15 -5 -4 -6 -1 -9 7 -8 7 2 12 -2 11 -8 -1 -6 4 -11 12 -11 8 0 13 5
12 10 -1 6 10 11 25 12 15 1 26 -3 25 -9 -1 -6 4 -10 11 -8 8 1 11 -2 7 -8 -5
-8 -13 -6 -25 5 -12 11 -20 13 -25 5 -4 -6 -1 -9 7 -8 7 2 12 -4 10 -12 -2 -8
0 -12 4 -7 4 4 16 -1 26 -10 14 -12 19 -13 16 -4 -2 9 7 15 24 16 15 1 26 -3
25 -9 -1 -6 8 -10 20 -10 13 1 20 -2 18 -6 -7 -11 -30 -7 -48 8 -11 9 -17 10
-22 2 -4 -6 -1 -9 7 -8 7 2 12 -2 11 -8 -1 -6 17 -10 46 -9 33 1 48 -3 48 -12
0 -9 -4 -10 -13 -2 -8 7 -14 6 -20 -2 -4 -7 -3 -9 3 -6 6 4 16 1 22 -7 6 -7
28 -12 50 -11 24 1 39 -2 38 -9 -1 -6 12 -11 29 -10 19 0 31 -5 31 -12 0 -7
-4 -11 -9 -8 -4 3 -8 -2 -8 -11 0 -9 -4 -14 -8 -11 -5 3 -6 -14 -3 -36 11 -77
88 -102 128 -41 14 21 14 21 -27 11 -30 -8 -44 -8 -53 1 -8 8 1 11 35 11 41 0
77 18 63 32 -3 2 1 5 9 5 8 0 14 -5 13 -11 -1 -6 4 -10 10 -9 7 2 12 -3 10
-10 -1 -6 4 -11 11 -9 8 1 11 -2 7 -8 -5 -8 -13 -6 -25 5 -12 11 -20 13 -25 5
-4 -6 -1 -9 7 -8 7 2 12 -2 11 -8 -1 -6 10 -10 25 -9 15 1 26 6 25 12 -1 5 4
10 12 10 8 0 13 -5 12 -11 -1 -6 4 -10 11 -8 8 1 11 -2 7 -8 -3 -6 -10 -8 -15
-5 -5 3 -12 1 -15 -5 -4 -6 -1 -9 7 -8 7 2 12 -2 11 -8 -1 -6 4 -11 12 -11 8
0 13 5 12 10 -1 6 10 11 25 12 15 1 26 -3 25 -9 -1 -6 4 -10 11 -8 8 1 11 -2
7 -8 -5 -8 -13 -6 -25 5 -12 11 -20 13 -25 5 -4 -6 -1 -9 7 -8 7 2 12 -4 10
-12 -2 -8 0 -12 4 -7 4 4 16 -1 26 -10 14 -12 19 -13 16 -4 -2 9 7 15 24 16
15 1 26 -3 25 -9 -1 -6 8 -10 20 -10 13 1 20 -2 18 -6 -7 -11 -30 -7 -48 8
-11 9 -17 10 -22 2 -4 -6 -1 -9 7 -8 7 2 12 -2 11 -8 -1 -6 17 -10 46 -9 33 1
48 -3 48 -12 0 -9 -4 -10 -13 -2 -8 7 -14 6 -20 -2 -4 -7 -3 -9 3 -6 6 4 16 1
22 -7 6 -7 28 -12 51 -11 21 1 37 -2 34 -7 -3 -4 -9 -6 -14 -3 -5 3 -11 2 -14
-3 -3 -5 17 -8 44 -7 30 1 48 -3 47 -9 -1 -6 4 -10 11 -8 8 1 11 -2 7 -8 -5
-8 -11 -7 -22 2 -18 15 -41 19 -48 8 -2 -4 5 -7 18 -6 12 0 21 -4 20 -10 -1
-6 17 -10 47 -9 30 1 48 -3 47 -9 -1 -6 4 -10 11 -8 8 1 11 -2 7 -8 -5 -8 -11
-7 -22 2 -18 15 -41 19 -48 8 -2 -4 5 -7 18 -6 12 0 21 -4 20 -10 -1 -6 10
-10 25 -9 15 1 26 6 25 12 -1 5 4 10 12 10 8 0 13 -5 12 -11 -1 -6 4 -10 10
-9 7 2 12 -3 10 -10 -1 -6 4 -11 11 -9 8 1 11 -2 7 -8 -5 -8 -13 -6 -25 5 -12
11 -20 13 -25 5 -4 -6 -1 -9 7 -8 7 2 12 -2 11 -8 -1 -6 10 -10 25 -9 15 1 26
6 25 12 -1 5 4 10 12 10 8 0 13 -5 12 -11 -1 -6 4 -10 11 -8 8 1 11 -2 7 -8
-3 -6 -10 -8 -15 -5 -5 3 -12 1 -15 -5 -4 -6 -1 -9 7 -8 7 2 12 -2 11 -8 -1
-6 4 -11 12 -11 8 0 13 5 12 10 -1 6 10 11 25 12 15 1 26 -3 25 -9 -1 -6 4
-10 11 -8 8 1 11 -2 7 -8 -5 -8 -13 -6 -25 5 -12 11 -20 13 -25 5 -4 -6 -1 -9
7 -8 7 2 12 -4 10 -12 -2 -8 0 -12 4 -7 4 4 16 -1 26 -10 14 -12 19 -13 16 -4
-2 9 7 15 24 16 15 1 26 -3 25 -9 -1 -6 8 -10 20 -10 13 1 20 -2 18 -6 -7 -11
-30 -7 -48 8 -11 9 -17 10 -22 2 -4 -6 -1 -9 7 -8 7 2 12 -2 11 -8 -1 -6 17
-10 46 -9 33 1 48 -3 48 -12 0 -9 -4 -10 -13 -2 -9 7 -14 6 -20 -3 -4 -7 -4
-10 1 -6 4 4 15 2 23 -5 8 -6 25 -12 36 -12 12 -1 20 -6 19 -11 -1 -6 18 -10
47 -9 30 1 48 -3 47 -9 -1 -6 4 -10 11 -8 8 1 11 -2 7 -8 -5 -8 -11 -7 -22 2
-18 15 -41 19 -48 8 -2 -4 5 -7 18 -6 12 0 21 -4 20 -10 -1 -6 17 -10 47 -9
30 1 48 -3 47 -9 -1 -6 4 -10 11 -8 8 1 11 -2 7 -8 -5 -8 -11 -7 -22 2 -18 15
-41 19 -48 8 -2 -4 5 -7 18 -6 12 0 21 -4 20 -10 -1 -6 10 -10 25 -9 15 1 26
6 25 12 -1 5 4 10 12 10 8 0 13 -5 12 -11 -1 -6 4 -10 10 -9 7 2 12 -3 10 -10
-1 -6 4 -11 11 -9 8 1 11 -2 7 -8 -5 -8 -13 -6 -25 5 -12 11 -20 13 -25 5 -4
-6 -1 -9 7 -8 7 2 12 -2 11 -8 -1 -6 10 -10 25 -9 15 1 26 6 25 12 -1 5 4 10
12 10 8 0 13 -5 12 -11 -1 -6 4 -10 11 -8 8 1 11 -2 7 -8 -3 -6 -10 -8 -15 -5
-5 3 -12 1 -15 -5 -4 -6 -1 -9 7 -8 7 2 12 -2 11 -8 -1 -6 4 -11 12 -11 8 0
13 5 12 10 -1 6 10 11 25 12 15 1 26 -3 25 -9 -1 -6 4 -10 11 -8 8 1 11 -2 7
-8 -5 -8 -13 -6 -25 5 -12 11 -20 13 -25 5 -4 -6 -1 -9 7 -8 7 2 12 -4 10 -12
-2 -8 0 -12 4 -7 4 4 16 -1 26 -10 14 -12 19 -13 16 -4 -2 9 7 15 24 16 15 1
26 -3 25 -9 -1 -6 8 -10 20 -10 13 1 20 -2 18 -6 -7 -11 -30 -7 -48 8 -11 9
-17 10 -22 2 -4 -6 -1 -9 7 -8 7 2 12 -2 11 -8 -1 -6 17 -10 46 -9 33 1 48 -3
48 -12 0 -9 -4 -10 -13 -2 -9 7 -14 6 -20 -3 -4 -7 -4 -10 1 -6 4 4 15 2 23
-5 8 -6 25 -12 36 -12 12 -1 20 -6 19 -11 -1 -6 18 -10 47 -9 30 1 48 -3 47
-9 -1 -6 4 -10 11 -8 8 1 11 -2 7 -8 -5 -8 -11 -7 -22 2 -18 15 -41 19 -48 8
-2 -4 5 -7 18 -6 12 0 21 -4 20 -10 -1 -6 17 -10 47 -9 30 1 48 -3 47 -9 -1
-6 4 -10 10 -9 7 2 12 0 12 -5 -5 -32 3 -102 11 -97 6 4 8 10 6 14 -3 4 1 8 9
8 8 0 13 -5 12 -11 -1 -6 4 -10 10 -9 7 2 12 -3 10 -10 -1 -6 4 -11 11 -9 8 1
11 -2 7 -8 -5 -8 -13 -6 -25 5 -12 11 -20 13 -25 5 -4 -6 -1 -9 7 -8 7 2 12
-2 11 -8 -1 -6 10 -10 25 -9 15 1 26 6 25 12 -1 5 4 10 12 10 8 0 13 -5 12
-11 -1 -6 4 -10 11 -8 8 1 11 -2 7 -8 -3 -6 -10 -8 -15 -5 -5 3 -12 1 -15 -5
-4 -6 -1 -9 7 -8 7 2 12 -2 11 -8 -1 -6 4 -11 12 -11 8 0 13 5 12 10 -1 6 10
11 25 12 15 1 27 -1 26 -4 0 -3 1 -8 2 -11 4 -10 10 -46 12 -73 1 -16 6 -31
10 -33 5 -3 5 -11 2 -17 -4 -7 -3 -9 1 -4 5 4 17 -1 27 -10 14 -12 19 -13 16
-4 -2 9 7 15 24 16 15 1 27 -1 26 -4 0 -3 0 -8 2 -11 4 -10 11 -56 13 -87 2
-18 7 -36 11 -40 4 -5 6 -2 4 6 -2 9 6 15 24 16 15 1 26 -3 25 -9 -1 -6 8 -10
20 -10 13 1 20 -2 18 -6 -7 -11 -30 -7 -48 8 -11 9 -17 10 -22 2 -4 -6 -1 -9
7 -8 7 2 12 -2 11 -8 -1 -6 10 -10 25 -9 25 1 27 -3 33 -44 3 -25 7 301 7 725
2 584 5 773 14 782 17 17 4099 17 4116 0 9 -9 12 -409 12 -1737 0 -948 2
-1722 5 -1720 2 3 6 16 8 29 2 13 11 24 20 26 10 1 15 -2 11 -7 -3 -5 -10 -6
-16 -3 -6 4 -8 2 -5 -3 4 -6 20 -9 35 -8 19 1 29 -2 29 -11 0 -10 -4 -11 -13
-3 -9 7 -14 6 -20 -3 -4 -7 -4 -10 1 -6 4 4 15 2 23 -4 34 -29 40 -19 45 78 0
6 6 11 13 11 7 0 12 -5 11 -11 -1 -6 4 -10 11 -8 8 1 11 -2 7 -8 -3 -6 -10 -8
-15 -5 -5 3 -11 1 -14 -4 -3 -4 4 -8 17 -7 12 0 21 -4 20 -10 -1 -6 8 -11 20
-10 12 0 21 -4 20 -10 -1 -6 4 -11 12 -11 8 0 14 3 13 6 -4 37 4 81 15 79 6
-2 11 2 10 8 -1 6 4 11 12 11 8 0 13 -5 12 -11 -1 -6 4 -10 11 -8 8 1 11 -2 7
-8 -3 -6 -10 -8 -15 -5 -5 3 -12 1 -15 -5 -4 -6 -1 -9 7 -8 7 2 12 -2 11 -8
-1 -6 4 -11 12 -11 8 0 13 5 12 10 -1 6 10 11 25 12 15 1 26 -3 25 -9 -1 -6 4
-10 11 -8 8 1 11 -2 7 -8 -5 -8 -13 -6 -25 5 -12 11 -20 13 -25 5 -4 -6 -1 -9
7 -8 7 2 12 -4 10 -12 -2 -8 0 -12 4 -7 4 4 16 -1 26 -10 13 -12 18 -13 16 -4
-4 16 29 24 39 9 3 -6 1 -8 -5 -4 -6 3 -14 2 -17 -4 -4 -6 -1 -9 7 -8 7 2 12
-4 10 -12 -2 -8 0 -11 4 -7 4 4 9 20 11 35 5 54 10 65 26 68 10 1 15 -2 11 -7
-3 -5 -10 -6 -16 -3 -6 4 -8 2 -5 -3 4 -6 20 -9 35 -8 19 1 29 -2 29 -11 0
-10 -4 -11 -13 -3 -9 7 -14 6 -20 -3 -4 -7 -4 -10 1 -6 4 4 15 2 23 -5 8 -6
25 -12 36 -12 12 -1 20 -6 19 -11 -1 -6 18 -10 47 -9 30 1 48 -3 47 -9 -1 -6
4 -10 11 -8 8 1 11 -2 7 -8 -5 -8 -11 -7 -22 2 -18 15 -41 19 -48 8 -2 -4 5
-7 18 -6 12 0 21 -4 20 -10 -1 -6 8 -11 20 -10 12 0 21 -4 20 -10 -1 -6 8 -11
20 -10 12 0 21 -4 20 -10 -1 -6 10 -10 25 -9 15 1 26 6 25 12 -1 5 4 10 12 10
8 0 13 -5 12 -11 -1 -6 4 -10 11 -8 6 1 11 -4 10 -10 -2 -7 3 -12 10 -10 8 1
11 -2 7 -8 -5 -8 -13 -6 -25 5 -12 11 -20 13 -25 5 -4 -6 -1 -9 7 -8 7 2 12
-2 11 -8 -1 -6 10 -10 25 -9 15 1 26 6 25 12 -1 5 4 10 12 10 8 0 13 -5 12
-11 -1 -6 4 -10 11 -8 8 1 11 -2 7 -8 -3 -6 -10 -8 -15 -5 -5 3 -12 0 -16 -7
-4 -7 -3 -10 1 -5 5 4 17 -1 27 -10 14 -12 19 -13 16 -4 -2 9 7 15 24 16 15 1
26 -3 25 -9 -1 -6 4 -10 11 -8 8 1 11 -2 7 -8 -5 -8 -13 -6 -25 5 -12 11 -20
13 -25 5 -4 -6 -1 -9 7 -8 7 2 12 -4 10 -12 -2 -8 0 -12 4 -7 4 4 16 -1 26
-10 14 -12 19 -13 16 -4 -2 9 7 15 23 16 15 1 26 -3 26 -11 0 -10 -4 -11 -13
-3 -8 7 -14 6 -20 -2 -4 -7 -3 -9 3 -6 6 4 16 1 22 -7 6 -7 27 -12 49 -11 26
1 39 -2 39 -11 0 -10 -4 -11 -13 -3 -9 7 -14 6 -20 -3 -4 -7 -4 -10 1 -6 4 4
15 2 23 -5 8 -6 25 -12 36 -12 12 -1 20 -6 19 -11 -1 -6 18 -10 47 -9 30 1 48
-3 47 -9 -1 -6 4 -10 11 -8 8 1 11 -2 7 -8 -5 -8 -11 -7 -22 2 -18 15 -41 19
-48 8 -2 -4 5 -7 18 -6 12 0 21 -4 20 -10 -1 -6 8 -11 20 -10 12 0 21 -4 20
-10 -1 -6 10 -10 25 -9 17 1 26 7 24 16 -3 9 2 8 16 -4 10 -9 22 -14 26 -10 4
5 6 1 4 -7 -2 -8 3 -14 10 -12 8 1 11 -2 7 -8 -5 -8 -13 -6 -25 5 -12 11 -20
13 -25 5 -4 -6 -1 -9 7 -8 7 2 12 -2 11 -8 -1 -6 10 -10 25 -9 15 1 26 6 25
12 -1 5 4 10 12 10 8 0 13 -5 12 -11 -1 -6 4 -10 11 -8 8 1 11 -2 7 -8 -3 -6
-10 -8 -15 -5 -5 3 -12 1 -15 -5 -4 -6 -1 -9 7 -8 7 2 12 -2 11 -8 -1 -6 4
-11 12 -11 8 0 13 5 12 10 -1 6 10 11 25 12 15 1 26 -3 25 -9 -1 -6 4 -10 11
-8 8 1 11 -2 7 -8 -5 -8 -13 -6 -25 5 -12 11 -20 13 -25 5 -4 -6 -1 -9 7 -8 7
2 12 -4 10 -12 -2 -8 0 -12 4 -7 4 4 16 -1 26 -10 14 -12 19 -13 16 -4 -2 9 7
15 24 16 15 1 26 -3 25 -9 -1 -6 8 -10 20 -10 13 1 20 -2 18 -6 -7 -11 -30 -7
-48 8 -11 9 -17 10 -22 2 -4 -6 -1 -9 7 -8 7 2 12 -2 11 -8 -1 -6 17 -10 46
-9 33 1 48 -3 48 -12 0 -9 -4 -10 -13 -2 -9 7 -14 6 -20 -3 -4 -7 -4 -10 1 -6
4 4 15 2 23 -5 8 -6 25 -12 36 -12 12 -1 20 -6 19 -11 -1 -6 18 -10 47 -9 30
1 48 -3 47 -9 -1 -6 4 -10 11 -8 8 1 11 -2 7 -8 -5 -8 -11 -7 -22 2 -18 15
-41 19 -48 8 -2 -4 5 -7 18 -6 12 0 21 -4 20 -10 -1 -6 17 -10 47 -9 30 1 48
-3 47 -9 -1 -6 4 -10 11 -8 8 1 11 -2 7 -8 -5 -8 -11 -7 -22 2 -18 15 -41 19
-48 8 -2 -4 5 -7 18 -6 12 0 21 -4 20 -10 -1 -6 10 -10 25 -9 15 1 26 6 25 12
-1 5 4 10 12 10 8 0 13 -5 12 -11 -1 -6 4 -10 11 -8 6 1 11 -4 10 -10 -2 -7 3
-12 10 -10 8 1 11 -2 7 -8 -5 -8 -13 -6 -25 5 -12 11 -20 13 -25 5 -4 -6 -1
-9 7 -8 7 2 12 -2 11 -8 -1 -6 10 -10 25 -9 15 1 26 6 25 12 -1 5 4 10 12 10
8 0 13 -5 12 -11 -1 -6 4 -10 11 -8 8 1 11 -2 7 -8 -3 -6 -10 -8 -15 -5 -5 3
-12 1 -15 -5 -4 -6 -1 -9 7 -8 7 2 12 -2 11 -8 -1 -6 4 -11 12 -11 8 0 13 5
12 10 -1 6 10 11 25 12 15 1 26 -3 25 -9 -1 -6 4 -10 11 -8 8 1 11 -2 7 -8 -5
-8 -13 -6 -25 5 -12 11 -20 13 -25 5 -4 -6 -1 -9 7 -8 7 2 12 -4 10 -12 -2 -8
0 -12 4 -7 4 4 16 -1 26 -10 11 -10 18 -13 16 -8 -2 6 2 10 7 10 6 0 9 -4 7
-8 -1 -5 2 -6 8 -2 6 4 10 914 10 2756 l0 2749 -5888 0 c-5210 0 -5889 -2
-5889 -15z m69 -10 c15 1 26 -3 25 -9 -1 -6 4 -10 11 -8 8 1 11 -2 7 -8 -5 -8
-12 -7 -23 3 -10 8 -25 13 -34 12 -9 -2 -23 4 -30 13 -11 15 -11 15 2 6 8 -6
27 -10 42 -9z m165 -69 c-1 -6 4 -10 11 -8 6 1 11 -4 10 -10 -2 -7 3 -12 10
-10 8 1 11 -2 7 -8 -5 -8 -14 -5 -27 7 -11 10 -23 16 -26 13 -3 -3 -6 2 -7 11
-2 9 3 16 11 16 7 0 12 -5 11 -11z m358 -175 c-9 -8 -36 -10 -30 -2 2 4 11 8
20 8 8 0 13 -3 10 -6z m102 -45 c-1 -6 4 -10 11 -8 8 1 11 -2 7 -8 -5 -8 -12
-7 -23 3 -10 8 -25 13 -35 12 -9 -2 -15 0 -13 4 7 11 55 8 53 -3z m600 -280
c-1 -6 4 -10 11 -8 8 1 11 -2 7 -8 -5 -8 -12 -7 -23 3 -10 8 -25 13 -35 12 -9
-2 -15 0 -13 4 7 11 55 8 53 -3z m498 -235 c-9 -8 -36 -10 -30 -2 2 4 11 8 20
8 8 0 13 -3 10 -6z m102 -45 c-1 -6 4 -10 11 -8 8 1 11 -2 7 -8 -5 -8 -12 -7
-23 3 -10 8 -25 13 -35 12 -9 -2 -15 0 -13 4 7 11 55 8 53 -3z m498 -235 c-9
-8 -36 -10 -30 -2 2 4 11 8 20 8 8 0 13 -3 10 -6z m102 -45 c-1 -6 4 -10 11
-8 8 1 11 -2 7 -8 -5 -8 -12 -7 -23 3 -10 8 -25 13 -35 12 -9 -2 -15 0 -13 4
7 11 55 8 53 -3z m498 -235 c-9 -8 -36 -10 -30 -2 2 4 11 8 20 8 8 0 13 -3 10
-6z m159 -92 c3 -3 -5 -5 -19 -5 -13 0 -22 3 -19 7 4 8 30 6 38 -2z m441 -188
c-9 -8 -36 -10 -30 -2 2 4 11 8 20 8 8 0 13 -3 10 -6z m622 -285 c-1 -6 4 -10
11 -8 8 1 11 -2 7 -8 -5 -8 -12 -7 -23 3 -10 8 -25 13 -35 12 -9 -2 -15 0 -13
4 7 11 55 8 53 -3z m600 -280 c-1 -6 4 -10 11 -8 8 1 11 -2 7 -8 -5 -8 -12 -7
-23 3 -10 8 -25 13 -35 12 -9 -2 -15 0 -13 4 7 11 55 8 53 -3z m421 -358 c-2
-7 2 -12 8 -11 6 1 11 -5 11 -13 0 -12 -4 -11 -18 2 -10 9 -16 21 -13 25 8 13
14 11 12 -3z m4560 -2120 c-2 -7 2 -12 8 -11 6 1 11 -5 11 -12 0 -11 -4 -12
-14 -4 -7 6 -13 8 -13 5 0 -4 -5 -4 -10 -1 -8 5 -7 11 1 21 14 17 20 18 17 2z
m379 -22 c-1 -6 4 -10 11 -8 8 1 11 -2 7 -8 -5 -8 -12 -7 -23 3 -10 8 -25 13
-35 12 -9 -2 -15 0 -13 4 7 11 55 8 53 -3z m140 -60 c-1 -6 4 -10 11 -8 6 1
11 -4 10 -10 -2 -7 3 -12 10 -10 8 1 11 -2 7 -8 -5 -8 -14 -5 -27 7 -11 10
-23 16 -26 13 -3 -3 -6 2 -7 11 -2 9 3 16 11 16 7 0 12 -5 11 -11z m358 -175
c-9 -8 -36 -10 -30 -2 2 4 11 8 20 8 8 0 13 -3 10 -6z m102 -45 c-1 -6 4 -10
11 -8 8 1 11 -2 7 -8 -5 -8 -12 -7 -23 3 -10 8 -25 13 -35 12 -9 -2 -15 0 -13
4 7 11 55 8 53 -3z m139 -63 c-3 -19 -19 -21 -21 -2 -2 9 3 16 10 16 7 0 12
-6 11 -14z m421 -197 c-1 -6 4 -10 11 -8 8 1 11 -2 7 -8 -5 -8 -12 -7 -23 3
-10 8 -25 13 -35 12 -9 -2 -15 0 -13 4 7 11 55 8 53 -3z"/>
<path d="M2217 7222 c-24 -27 -22 -97 3 -122 26 -26 36 -25 65 5 17 16 25 35
25 57 0 66 -55 102 -93 60z m52 -16 c7 -8 11 -32 9 -53 -2 -30 -7 -38 -23 -38
-26 0 -40 41 -26 78 12 30 23 34 40 13z"/>
<path d="M2394 7173 c12 -24 12 -31 0 -55 -13 -25 -13 -28 0 -28 8 0 19 8 25
18 9 16 10 16 16 0 4 -10 16 -18 27 -18 20 0 20 0 0 27 -20 27 -20 28 0 55 15
22 16 28 5 28 -8 0 -20 -7 -28 -16 -11 -14 -13 -14 -21 0 -5 9 -16 16 -24 16
-13 0 -13 -3 0 -27z"/>
<path d="M2490 7125 c0 -60 3 -75 15 -75 8 0 15 9 15 19 0 14 5 18 19 14 24
-6 61 30 61 60 -1 38 -23 57 -69 57 l-41 0 0 -75z m75 20 c0 -23 -4 -30 -20
-30 -21 0 -31 25 -21 51 11 28 41 12 41 -21z"/>
<path d="M3525 6900 c-4 -6 -1 -9 7 -8 7 2 12 -4 10 -12 -2 -8 0 -12 4 -7 4 4
15 0 25 -9 16 -14 17 -14 15 0 -1 9 -5 15 -8 14 -3 -2 -15 5 -26 15 -13 12
-22 15 -27 7z"/>
<path d="M3320 6278 c0 -7 12 -48 27 -90 23 -64 31 -78 49 -78 18 0 26 13 48
76 15 41 30 82 33 90 3 9 -2 14 -15 14 -16 0 -25 -14 -42 -66 -12 -36 -24 -64
-26 -61 -2 2 -12 30 -22 63 -11 38 -24 60 -35 62 -9 2 -17 -2 -17 -10z"/>
<path d="M4211 6278 c0 -7 12 -47 27 -88 24 -65 30 -75 51 -75 21 0 28 10 52
75 33 90 34 100 11 100 -14 0 -23 -15 -37 -60 -10 -33 -21 -60 -25 -60 -4 0
-15 27 -25 60 -14 45 -23 60 -37 60 -10 0 -18 -6 -17 -12z"/>
<path d="M4884 6259 c-4 -7 -3 -10 4 -5 6 3 13 2 17 -4 3 -5 0 -10 -7 -10 -9
0 -13 -15 -13 -47 0 -36 -4 -48 -15 -48 -11 0 -16 13 -18 48 -3 39 -6 47 -23
47 -16 0 -19 -7 -19 -54 0 -45 4 -58 22 -70 12 -8 26 -12 31 -9 5 3 23 6 38 5
l29 -1 0 65 c0 38 4 63 9 59 5 -3 12 -1 15 4 4 5 -2 8 -11 6 -10 -1 -25 4 -35
12 -12 11 -18 11 -24 2z"/>
<path d="M4572 6241 c-7 -4 -24 -6 -38 -3 -23 4 -24 3 -24 -62 0 -59 2 -66 19
-66 17 0 20 8 23 48 3 39 6 47 23 47 17 0 20 -8 23 -47 3 -40 6 -48 23 -48 16
0 19 7 19 50 0 37 -5 55 -20 70 -22 22 -29 24 -48 11z"/>
<path d="M4682 6234 c-16 -11 -22 -25 -22 -54 0 -48 23 -73 62 -68 18 3 28 0
28 -8 0 -17 -21 -23 -43 -12 -10 5 -25 7 -34 4 -27 -11 6 -36 47 -36 56 0 70
22 70 109 0 73 0 73 -25 69 -14 -3 -28 -1 -31 3 -8 13 -27 11 -52 -7z m63 -35
c11 -16 -4 -59 -20 -59 -18 0 -34 28 -28 51 6 20 38 26 48 8z"/>
<path d="M3490 6225 c-10 -12 -9 -16 4 -21 9 -3 23 -1 31 6 8 6 19 9 25 5 18
-11 11 -25 -13 -25 -35 0 -59 -22 -55 -51 3 -22 8 -24 56 -26 l52 -1 0 58 c0
44 -4 59 -16 64 -28 11 -71 6 -84 -9z m68 -72 c-4 -20 -39 -25 -45 -6 -4 10
11 18 40 22 5 0 7 -7 5 -16z"/>
<path d="M3632 6228 c-18 -18 -15 -84 5 -103 11 -11 26 -15 45 -11 20 4 28 2
28 -8 0 -19 -28 -28 -51 -16 -25 14 -44 3 -28 -16 14 -17 83 -18 97 -1 5 6 12
46 14 88 l3 77 -51 1 c-28 0 -56 -5 -62 -11z m76 -57 c-2 -18 -10 -27 -25 -29
-31 -5 -44 45 -18 64 25 18 47 0 43 -35z"/>
<path d="M3770 6175 c0 -58 2 -65 20 -65 17 0 20 7 20 50 0 43 3 50 19 50 17
0 20 -8 23 -47 2 -36 7 -49 21 -51 14 -3 17 4 17 50 0 30 -5 59 -12 66 -7 7
-34 12 -60 12 l-48 0 0 -65z"/>
<path d="M3926 6218 c-34 -49 -7 -108 49 -108 39 0 82 32 51 38 -9 2 -23 -1
-30 -7 -16 -14 -46 -4 -46 15 0 10 13 14 45 14 37 0 45 3 45 18 0 49 -85 71
-114 30z m72 -16 c2 -7 -7 -12 -22 -12 -27 0 -35 15 -13 23 17 7 30 3 35 -11z"/>
<path d="M4060 6175 c0 -58 2 -65 20 -65 17 0 20 7 20 50 0 43 3 50 20 50 11
0 20 7 20 15 0 11 -11 15 -40 15 l-40 0 0 -65z"/>
<path d="M4380 6221 c-15 -29 -12 -77 6 -95 20 -20 78 -21 94 -1 18 22 5 30
-25 17 -20 -9 -27 -8 -42 6 -16 16 -14 17 30 20 41 3 47 6 47 26 0 32 -19 46
-62 46 -27 0 -40 -5 -48 -19z m61 -29 c-28 -4 -40 6 -21 18 9 6 20 4 29 -3 12
-10 11 -13 -8 -15z"/>
<path d="M2986 6155 c-3 -9 0 -15 9 -15 16 0 20 16 6 24 -5 3 -11 -1 -15 -9z"/>
<path d="M2918 6143 c7 -3 16 -2 19 1 4 3 -2 6 -13 5 -11 0 -14 -3 -6 -6z"/>
<path d="M2231 6123 c-21 -41 -41 -131 -41 -189 0 -59 1 -62 23 -60 12 2 39
10 61 19 47 21 47 21 40 2 -4 -8 -12 -15 -20 -15 -8 0 -14 -4 -14 -10 0 -5 5
-10 11 -10 7 0 9 -12 7 -30 -3 -17 -1 -33 4 -36 4 -3 8 -15 8 -28 0 -20 -7
-17 -55 30 -48 46 -55 51 -55 31 0 -73 128 -241 220 -287 54 -28 133 -50 177
-50 29 0 33 4 46 48 27 86 29 103 12 122 -16 18 -18 18 -49 -1 -18 -10 -41
-36 -51 -56 l-20 -38 -3 42 c-2 25 4 57 13 77 10 22 18 66 19 115 3 75 4 81
33 105 l31 26 7 -23 8 -22 4 23 c2 12 10 22 16 23 92 9 106 1 107 -58 0 -23 5
-33 15 -33 10 0 15 11 15 35 0 28 4 35 19 35 11 0 22 -4 25 -9 12 -18 88 -51
114 -49 32 2 52 -8 52 -27 0 -7 7 -15 15 -19 8 -3 13 -13 10 -23 -3 -10 3 -2
12 17 26 50 25 217 -1 283 -18 48 -19 49 -53 42 -22 -4 -33 -3 -29 4 4 6 -4 7
-21 2 -23 -6 -29 -14 -31 -44 -2 -20 -7 -37 -11 -37 -5 0 -11 -8 -14 -18 -2
-11 -14 -22 -26 -25 -18 -4 -23 0 -28 24 -3 16 -10 32 -14 35 -14 8 -79 -19
-79 -33 0 -16 -76 -18 -85 -3 -4 6 -11 8 -16 5 -5 -4 -9 0 -9 7 0 8 -15 29
-34 47 -44 42 -96 50 -150 22 -21 -11 -43 -18 -49 -14 -5 3 -7 -3 -3 -14 9
-27 -10 -73 -29 -73 -8 0 -15 5 -15 10 0 6 5 10 11 10 8 0 8 5 -1 15 -7 8 -21
15 -31 15 -13 0 -19 7 -19 24 0 16 -7 27 -20 31 -11 3 -20 11 -20 16 0 16 -29
10 -39 -8z m290 -186 c-18 -18 -23 -1 -9 29 13 28 13 28 16 5 2 -13 -1 -28 -7
-34z m-56 33 c3 -6 -1 -13 -10 -16 -19 -8 -30 0 -20 15 8 14 22 14 30 1z"/>
<path d="M2320 6109 c0 -5 9 -9 20 -9 11 0 20 2 20 4 0 2 -9 6 -20 9 -11 3
-20 1 -20 -4z"/>
<path d="M2850 6054 c0 -19 4 -33 8 -30 8 5 4 66 -4 66 -2 0 -4 -16 -4 -36z"/>
<path d="M8843 6079 c-44 -16 -57 -85 -23 -119 25 -25 62 -26 83 -2 27 29 22
52 -10 51 -18 -1 -22 -3 -10 -6 25 -7 17 -37 -11 -41 -31 -5 -52 15 -52 49 0
28 22 59 42 59 6 0 20 -7 30 -17 21 -19 37 -10 19 11 -16 19 -42 25 -68 15z"/>
<path d="M9499 6071 c-41 -33 -4 -95 42 -71 16 9 19 7 19 -10 0 -26 -27 -37
-52 -21 -26 16 -34 8 -13 -13 37 -36 85 -2 85 59 0 56 -44 86 -81 56z m56 -31
c0 -18 -6 -26 -23 -28 -24 -4 -38 18 -28 44 3 9 15 14 28 12 17 -2 23 -10 23
-28z"/>
<path d="M9650 6083 c-42 -14 -54 -84 -22 -123 40 -50 101 9 82 79 -7 28 -38
51 -60 44z m41 -46 c10 -38 -5 -77 -30 -77 -21 0 -31 18 -31 59 0 54 48 68 61
18z"/>
<path d="M9190 6010 c0 -76 17 -97 22 -27 2 34 7 42 23 42 16 0 21 -8 23 -42
4 -56 22 -55 22 1 0 53 -21 77 -51 58 -17 -11 -19 -9 -19 13 0 14 -4 25 -10
25 -6 0 -10 -30 -10 -70z"/>
<path d="M2680 6040 c-23 -7 -23 -8 -3 -9 12 -1 25 4 28 9 3 6 5 10 3 9 -2 -1
-14 -5 -28 -9z"/>
<path d="M8973 6043 c-26 -10 -12 -22 18 -16 43 8 35 -18 -9 -29 -55 -14 -35
-56 26 -55 31 0 32 2 32 43 0 52 -26 74 -67 57z m47 -67 c0 -18 -30 -30 -43
-17 -5 5 -6 14 -3 20 10 16 46 13 46 -3z"/>
<path d="M9070 5995 c0 -65 17 -74 22 -12 2 34 7 42 23 42 16 0 21 -8 23 -42
4 -56 22 -55 22 1 0 53 -21 77 -51 58 -11 -7 -19 -8 -19 -2 0 5 -4 10 -10 10
-5 0 -10 -25 -10 -55z"/>
<path d="M9325 6034 c-26 -26 -16 -77 18 -88 21 -8 31 -6 44 7 15 15 14 16
-20 10 -30 -4 -37 -3 -37 11 0 12 9 16 35 16 28 0 35 4 35 20 0 18 -26 40 -49
40 -5 0 -17 -7 -26 -16z m55 -19 c0 -9 -9 -15 -25 -15 -24 0 -32 10 -18 23 12
13 43 7 43 -8z"/>
<path d="M9806 6021 c16 -28 16 -31 0 -55 -9 -14 -12 -26 -7 -26 6 0 16 10 22
22 l12 22 15 -22 c21 -32 36 -27 16 6 -15 27 -15 31 1 55 10 15 13 27 7 27 -6
0 -17 -10 -23 -22 l-12 -22 -15 22 c-22 33 -36 27 -16 -7z"/>
<path d="M9910 5975 c0 -91 18 -101 22 -12 3 54 5 62 23 62 15 0 21 -8 23 -32
3 -26 -1 -32 -20 -35 -20 -4 -21 -5 -5 -12 25 -12 47 11 47 49 0 42 -24 64
-51 47 -11 -7 -19 -8 -19 -2 0 5 -4 10 -10 10 -6 0 -10 -32 -10 -75z"/>
<path d="M3540 5950 l0 -60 35 0 c19 0 35 5 35 10 0 6 -11 10 -25 10 -23 0
-25 3 -25 50 0 28 -4 50 -10 50 -6 0 -10 -27 -10 -60z"/>
<path d="M3910 5950 c0 -33 4 -60 10 -60 6 0 10 27 10 60 0 33 -4 60 -10 60
-6 0 -10 -27 -10 -60z"/>
<path d="M4003 6004 c-15 -7 -18 -34 -4 -34 6 0 13 5 16 10 10 16 25 11 25 -8
0 -10 -11 -29 -25 -42 -34 -32 -32 -40 15 -40 22 0 40 5 40 10 0 6 -9 10 -20
10 -20 0 -20 1 2 30 17 24 20 35 12 48 -11 18 -40 25 -61 16z"/>
<path d="M3644 5972 c-18 -12 -24 -42 -14 -63 13 -22 70 -27 70 -5 0 9 -8 12
-25 8 -15 -2 -25 0 -25 7 0 6 14 11 30 11 31 0 39 17 18 38 -13 13 -38 15 -54
4z m36 -22 c0 -5 -7 -10 -15 -10 -8 0 -15 5 -15 10 0 6 7 10 15 10 8 0 15 -4
15 -10z"/>
<path d="M3720 5974 c0 -25 26 -84 36 -84 12 0 44 59 44 81 0 20 -21 7 -31
-18 l-11 -28 -10 28 c-8 24 -28 38 -28 21z"/>
<path d="M3822 5968 c-14 -14 -15 -47 -3 -66 10 -17 63 -12 69 6 3 9 -3 11
-21 7 -14 -4 -28 -2 -31 4 -5 7 4 11 23 11 19 0 31 5 31 13 0 18 -21 37 -40
37 -9 0 -21 -5 -28 -12z m43 -18 c3 -5 -3 -10 -15 -10 -12 0 -18 5 -15 10 3 6
10 10 15 10 5 0 12 -4 15 -10z"/>
<path d="M3763 5763 c240 -2 634 -2 875 0 240 1 43 2 -438 2 -481 0 -678 -1
-437 -2z"/>
<path d="M3314 5650 c0 -58 1 -81 3 -52 2 28 2 76 0 105 -2 28 -3 5 -3 -53z"/>
<path d="M5084 5650 c0 -58 1 -81 3 -52 2 28 2 76 0 105 -2 28 -3 5 -3 -53z"/>
<path d="M3940 5645 l0 -55 35 0 c19 0 35 5 35 10 0 6 -11 10 -25 10 -23 0
-25 4 -25 45 0 25 -4 45 -10 45 -5 0 -10 -25 -10 -55z"/>
<path d="M4428 5688 c-8 -20 5 -91 17 -95 14 -4 12 84 -2 98 -7 7 -12 6 -15
-3z"/>
<path d="M4040 5666 c-28 -35 11 -93 48 -70 23 15 27 48 7 68 -20 20 -39 20
-55 2z m48 -30 c4 -19 -16 -39 -30 -30 -4 3 -8 16 -8 30 0 19 5 25 17 22 10
-2 19 -12 21 -22z"/>
<path d="M4141 5671 c-7 -5 -13 -21 -13 -36 0 -31 19 -47 46 -39 13 4 17 2 14
-7 -3 -8 -17 -13 -33 -12 -20 2 -25 -1 -18 -8 6 -6 21 -9 34 -7 22 3 24 8 27
63 1 38 -1 55 -7 46 -6 -9 -11 -10 -15 -2 -9 13 -16 14 -35 2z m47 -34 c4 -20
-25 -34 -40 -19 -15 15 -1 44 19 40 10 -2 19 -11 21 -21z"/>
<path d="M4244 5672 c-37 -25 -19 -85 24 -80 21 2 28 9 30 31 5 43 -24 70 -54
49z m42 -27 c4 -8 0 -22 -7 -31 -11 -13 -14 -13 -27 0 -17 17 -9 46 13 46 9 0
18 -7 21 -15z"/>
<path d="M4333 5640 c2 -43 3 -45 35 -47 32 -1 32 -1 32 43 0 24 -4 44 -10 44
-5 0 -10 -16 -10 -36 0 -28 -3 -35 -17 -32 -11 2 -20 16 -25 38 -6 32 -6 31
-5 -10z"/>
<path d="M3763 5533 c240 -2 634 -2 875 0 240 1 43 2 -438 2 -481 0 -678 -1
-437 -2z"/>
<path d="M6805 5360 c-3 -4 5 -7 18 -6 12 0 21 -4 20 -10 -1 -6 5 -11 13 -11
12 0 12 3 -1 17 -15 17 -42 22 -50 10z"/>
<path d="M7045 5180 c-4 -6 -1 -9 7 -8 7 2 12 -3 10 -10 -1 -8 2 -11 8 -7 8 5
7 11 -1 21 -14 17 -16 17 -24 4z"/>
<path d="M7165 5040 c-4 -6 -1 -9 7 -8 7 2 12 -3 10 -10 -1 -8 2 -11 8 -7 8 5
7 11 -1 21 -14 17 -16 17 -24 4z"/>
<path d="M8910 4930 c-19 -19 -20 -33 -20 -287 0 -148 4 -273 8 -279 4 -6 18
-17 31 -24 20 -10 27 -9 50 8 24 18 26 25 29 111 l3 91 249 0 249 0 26 43 c14
24 25 52 25 62 0 17 -1 17 -18 2 -23 -21 -50 -22 -73 -1 -17 15 -19 15 -34 0
-22 -22 -62 -20 -76 3 -12 18 -12 18 -30 0 -11 -11 -28 -19 -39 -19 -11 0 -28
8 -39 19 -18 18 -18 18 -30 0 -14 -23 -54 -25 -75 -3 -9 8 -16 29 -16 45 0 29
0 29 -60 29 l-60 0 0 90 c0 77 -3 93 -20 110 -11 11 -29 20 -40 20 -11 0 -29
-9 -40 -20z"/>
<path d="M9836 4942 c-2 -4 -1 -14 5 -22 5 -8 9 -135 9 -282 0 -229 -2 -269
-16 -282 -14 -15 -14 -16 3 -17 73 -5 73 -3 73 303 0 255 -1 269 -20 288 -21
21 -45 26 -54 12z"/>
<path d="M6216 4864 c-9 -8 -16 -22 -16 -30 0 -19 26 -18 34 1 3 8 15 15 26
15 34 0 25 -42 -20 -85 -56 -55 -53 -65 20 -65 33 0 60 4 60 10 0 6 -16 10
-35 10 -19 0 -35 3 -35 7 0 4 13 21 29 38 41 42 47 69 22 94 -25 25 -63 27
-85 5z"/>
<path d="M2205 4859 c-2 -8 -3 -23 -1 -34 3 -11 5 -39 5 -62 1 -43 1 -43 39
-43 50 0 76 27 75 77 -1 19 -8 42 -16 50 -21 21 -95 30 -102 12z m89 -41 c17
-28 -4 -72 -37 -76 -26 -3 -27 -2 -27 48 0 50 1 51 26 48 15 -2 32 -11 38 -20z"/>
<path d="M2694 4848 c-15 -34 -6 -128 12 -128 10 0 14 13 14 44 0 26 5 46 13
49 9 4 8 8 -3 16 -13 9 -12 12 5 25 19 15 19 15 -6 16 -17 0 -29 -7 -35 -22z"/>
<path d="M2762 4859 c2 -6 8 -10 13 -10 5 0 11 4 13 10 2 6 -4 11 -13 11 -9 0
-15 -5 -13 -11z"/>
<path d="M3620 4795 c0 -60 3 -75 15 -75 12 0 15 15 15 75 0 60 -3 75 -15 75
-12 0 -15 -15 -15 -75z"/>
<path d="M3800 4846 c0 -8 -6 -17 -12 -19 -10 -4 -10 -8 -1 -14 6 -4 13 -26
15 -48 3 -34 7 -41 28 -44 24 -3 24 -2 7 16 -21 24 -23 73 -2 73 8 0 15 5 15
10 0 6 -7 10 -15 10 -8 0 -15 7 -15 15 0 8 -4 15 -10 15 -5 0 -10 -6 -10 -14z"/>
<path d="M2354 4805 c-31 -48 4 -95 62 -83 32 6 27 26 -7 25 -18 -1 -34 4 -36
11 -3 8 8 12 36 12 45 0 48 5 25 38 -21 30 -59 29 -80 -3z m61 -5 c4 -6 -5
-10 -20 -10 -15 0 -24 4 -20 10 3 6 12 10 20 10 8 0 17 -4 20 -10z"/>
<path d="M2471 4811 c-9 -16 -7 -23 11 -35 12 -9 28 -16 35 -16 7 0 13 -5 13
-11 0 -8 -12 -9 -37 -4 -33 6 -35 5 -23 -10 20 -25 74 -16 78 13 3 18 -3 25
-27 33 -41 14 -40 33 0 24 24 -5 30 -4 27 6 -3 8 -19 15 -36 17 -22 2 -34 -2
-41 -17z"/>
<path d="M2579 4813 c-13 -15 -11 -16 14 -9 43 10 57 -6 16 -19 -26 -9 -34
-17 -34 -36 0 -21 5 -24 43 -25 l42 -2 0 48 c0 34 -4 50 -16 54 -27 10 -51 7
-65 -11z m59 -55 c-5 -16 -48 -24 -48 -10 0 11 17 20 38 21 8 1 12 -5 10 -11z"/>
<path d="M2760 4775 c0 -42 3 -55 15 -55 12 0 15 13 15 55 0 42 -3 55 -15 55
-12 0 -15 -13 -15 -55z"/>
<path d="M2822 4818 c-7 -7 -12 -26 -12 -43 0 -38 16 -55 50 -55 46 0 65 44
40 91 -12 22 -59 26 -78 7z m61 -29 c8 -29 -2 -49 -23 -49 -25 0 -33 16 -26
46 8 30 41 32 49 3z"/>
<path d="M2943 4823 c-25 -9 -14 -44 17 -54 40 -14 39 -33 -1 -25 -22 4 -29 2
-27 -7 6 -17 56 -21 74 -6 23 19 16 39 -16 50 -41 15 -39 33 2 23 29 -6 31 -5
19 10 -13 15 -43 20 -68 9z"/>
<path d="M3102 4818 c-7 -7 -12 -26 -12 -43 0 -17 5 -36 12 -43 17 -17 67 -15
75 3 7 20 -6 33 -16 16 -5 -7 -17 -11 -27 -9 -21 4 -29 35 -14 58 8 13 13 13
31 2 24 -15 34 -10 26 13 -8 18 -58 20 -75 3z"/>
<path d="M3212 4818 c-7 -7 -12 -26 -12 -43 0 -38 16 -55 50 -55 34 0 50 17
50 55 0 38 -16 55 -50 55 -14 0 -31 -5 -38 -12z m63 -27 c8 -26 -4 -51 -25
-51 -10 0 -21 7 -24 16 -10 25 3 54 24 54 10 0 21 -8 25 -19z"/>
<path d="M3320 4775 c0 -42 3 -55 15 -55 11 0 15 12 15 46 0 38 3 45 18 42 12
-2 18 -15 20 -46 4 -54 20 -54 24 1 2 29 8 42 18 42 10 0 16 -13 18 -42 2 -29
8 -43 18 -43 16 0 19 45 5 83 -9 22 -15 24 -80 25 l-71 2 0 -55z"/>
<path d="M3500 4755 c0 -60 3 -75 15 -75 8 0 15 9 15 20 0 14 7 20 23 20 31 0
47 18 47 55 0 41 -16 55 -62 55 l-38 0 0 -75z m76 31 c7 -31 -1 -46 -27 -46
-14 0 -19 7 -19 28 0 48 35 61 46 18z"/>
<path d="M3682 4818 c-7 -7 -12 -26 -12 -43 0 -17 5 -36 12 -43 17 -17 63 -15
79 4 11 14 9 15 -23 9 -27 -5 -37 -3 -41 9 -5 13 1 16 33 16 32 0 40 4 40 18
0 25 -20 42 -50 42 -14 0 -31 -5 -38 -12z m58 -18 c0 -5 -9 -10 -20 -10 -11 0
-20 5 -20 10 0 6 9 10 20 10 11 0 20 -4 20 -10z"/>
<path d="M3876 4814 c-33 -33 -12 -94 33 -94 29 0 61 26 61 51 0 48 -62 76
-94 43z m59 -39 c0 -23 -4 -30 -20 -30 -21 0 -31 25 -21 51 11 28 41 12 41
-21z"/>
<path d="M3989 4814 c-12 -14 -10 -19 10 -35 13 -11 29 -19 37 -19 8 0 14 -5
14 -11 0 -8 -12 -9 -37 -4 -33 6 -35 5 -23 -10 20 -25 74 -16 78 13 3 18 -3
25 -27 33 -41 14 -40 33 0 24 24 -5 30 -4 27 6 -7 21 -62 23 -79 3z"/>
<path d="M4095 4819 c-10 -15 1 -23 20 -15 9 3 13 10 10 16 -8 13 -22 13 -30
-1z"/>
<path d="M4095 4739 c-10 -15 1 -23 20 -15 9 3 13 10 10 16 -8 13 -22 13 -30
-1z"/>
<path d="M8704 4717 c-3 -8 -4 -47 -2 -88 l3 -74 38 -3 37 -3 0 90 0 91 -35 0
c-21 0 -38 -6 -41 -13z"/>
<path d="M9670 4640 l0 -90 60 0 60 0 0 90 0 90 -60 0 -60 0 0 -90z"/>
<path d="M10020 4640 l0 -91 38 3 37 3 0 85 0 85 -37 3 -38 3 0 -91z"/>
<path d="M2482 3499 c-46 -23 -72 -55 -90 -108 -15 -44 -16 -551 -2 -603 13
-45 51 -93 94 -116 25 -14 58 -17 171 -17 128 0 143 2 180 23 22 13 52 39 65
59 l25 36 3 291 c3 304 0 341 -40 391 -40 51 -88 65 -233 65 -112 0 -136 -3
-173 -21z m295 -113 l28 -24 3 -249 c2 -164 0 -261 -8 -286 -16 -54 -59 -71
-164 -65 -71 4 -82 8 -103 32 -23 27 -23 29 -23 286 0 169 4 268 11 284 17 36
44 45 141 45 78 1 90 -1 115 -23z"/>
<path d="M3444 3501 c-47 -22 -80 -59 -95 -110 -6 -23 -9 -141 -7 -327 l3
-291 25 -36 c13 -20 43 -46 65 -59 37 -21 52 -23 180 -23 155 0 180 7 229 65
43 51 47 90 44 388 -3 314 -7 331 -81 380 -38 26 -48 27 -181 30 -121 2 -147
0 -182 -17z m291 -116 l25 -24 0 -274 0 -274 -26 -24 c-23 -22 -34 -24 -119
-24 -85 0 -96 2 -119 24 l-26 24 0 274 0 274 25 24 c22 23 32 25 120 25 88 0
98 -2 120 -25z"/>
<path d="M4732 3499 c-46 -23 -72 -55 -90 -108 -15 -44 -16 -551 -2 -603 13
-45 51 -93 94 -116 25 -14 58 -17 171 -17 128 0 143 2 180 23 22 13 52 39 65
59 l25 36 3 291 c3 304 0 341 -40 391 -40 51 -88 65 -233 65 -112 0 -136 -3
-173 -21z m295 -113 l28 -24 3 -249 c2 -164 0 -261 -8 -286 -16 -54 -59 -71
-164 -65 -71 4 -82 8 -103 32 -23 27 -23 29 -23 286 0 169 4 268 11 284 17 36
44 45 141 45 78 1 90 -1 115 -23z"/>
<path d="M5695 3501 c-46 -21 -78 -53 -96 -96 -17 -41 -25 -499 -10 -580 14
-74 48 -126 98 -151 32 -16 60 -19 178 -19 154 0 180 7 228 65 42 50 49 110
45 400 l-3 265 -27 47 c-44 73 -85 88 -244 88 -104 0 -137 -4 -169 -19z m274
-106 c16 -8 31 -22 35 -30 3 -9 6 -135 6 -280 0 -262 0 -264 -23 -291 -21 -24
-32 -28 -103 -32 -106 -6 -148 11 -163 65 -6 22 -11 136 -11 266 0 239 7 282
47 306 28 16 179 14 212 -4z"/>
<path d="M10060 3501 c-5 -11 -10 -27 -10 -35 0 -9 -7 -16 -15 -16 -8 0 -15
-5 -15 -10 0 -6 7 -13 15 -16 11 -5 15 -23 15 -75 0 -62 2 -69 20 -69 18 0 20
7 20 70 0 56 3 70 15 70 8 0 15 7 15 15 0 8 -7 15 -15 15 -8 0 -15 9 -15 20 0
13 7 20 20 20 11 0 20 7 20 15 0 23 -57 20 -70 -4z"/>
<path d="M10162 3503 c2 -10 10 -18 18 -18 22 0 18 29 -3 33 -14 3 -18 -1 -15
-15z"/>
<path d="M8410 3395 c0 -108 1 -115 20 -115 17 0 19 8 22 82 l3 83 55 -82 c79
-118 90 -114 90 32 0 108 -1 115 -20 115 -17 0 -19 -8 -22 -77 l-3 -78 -53 78
c-36 52 -59 77 -72 77 -19 0 -20 -7 -20 -115z"/>
<path d="M9410 3470 c0 -38 -12 -52 -25 -30 -10 16 -62 12 -79 -6 -49 -48 -19
-154 42 -154 14 0 34 7 44 17 17 15 18 15 18 0 0 -10 7 -17 15 -17 12 0 15 19
15 115 0 96 -3 115 -15 115 -11 0 -15 -11 -15 -40z m-6 -86 c14 -54 -49 -100
-74 -55 -17 32 -12 69 12 85 27 19 53 7 62 -30z"/>
<path d="M8661 3424 c-47 -60 -10 -144 63 -144 67 0 103 97 56 148 -31 33 -92
30 -119 -4z m83 -7 c21 -15 24 -70 6 -92 -15 -18 -41 -20 -58 -3 -17 17 -15
74 4 92 19 19 25 20 48 3z"/>
<path d="M8832 3438 c2 -7 14 -46 28 -85 20 -61 28 -73 46 -73 18 0 26 14 51
86 29 82 30 85 10 82 -16 -2 -25 -16 -37 -55 -8 -28 -18 -55 -22 -59 -4 -3
-15 21 -25 55 -14 46 -23 61 -36 61 -10 0 -17 -6 -15 -12z"/>
<path d="M9030 3430 c-14 -14 -20 -33 -20 -63 0 -110 142 -121 157 -12 7 57
-24 95 -78 95 -26 0 -46 -7 -59 -20z m84 -16 c19 -18 21 -75 4 -92 -7 -7 -22
-12 -35 -12 -43 0 -54 87 -14 110 22 13 27 12 45 -6z"/>
<path d="M9504 3429 c-29 -32 -26 -105 5 -130 32 -26 85 -25 113 3 21 21 21
23 4 26 -10 2 -23 -1 -29 -7 -24 -24 -77 -6 -77 26 0 9 17 13 60 13 65 0 72 8
49 53 -16 30 -28 37 -70 37 -24 0 -42 -7 -55 -21z m84 -11 c24 -24 13 -38 -28
-38 -43 0 -55 20 -22 39 23 14 36 13 50 -1z"/>
<path d="M9692 3438 c-16 -16 -15 -53 1 -66 6 -6 28 -14 47 -19 37 -10 47 -35
16 -41 -10 -2 -29 1 -41 8 -36 19 -53 8 -27 -18 29 -29 85 -29 112 -2 11 11
20 24 20 28 0 19 -28 42 -64 54 -22 7 -41 18 -43 25 -6 16 36 28 50 14 13 -13
47 -15 47 -3 0 19 -27 32 -65 32 -23 0 -46 -5 -53 -12z"/>
<path d="M9864 3429 l-19 -22 30 7 c58 14 70 12 70 -9 0 -15 -9 -21 -35 -25
-20 -4 -41 -10 -48 -14 -15 -9 -16 -58 0 -74 16 -16 60 -15 77 1 11 10 14 10
18 0 3 -7 11 -13 19 -13 18 0 20 140 2 158 -21 21 -92 15 -114 -9z m86 -89 c0
-28 -33 -43 -56 -25 -19 15 -19 15 0 30 28 21 56 19 56 -5z"/>
<path d="M10160 3365 c0 -69 3 -85 15 -85 12 0 15 16 15 85 0 69 -3 85 -15 85
-12 0 -15 -16 -15 -85z"/>
<path d="M10260 3430 c-14 -14 -20 -33 -20 -63 0 -110 142 -121 157 -12 7 57
-24 95 -78 95 -26 0 -46 -7 -59 -20z m84 -16 c19 -18 21 -75 4 -92 -7 -7 -22
-12 -35 -12 -43 0 -54 87 -14 110 22 13 27 12 45 -6z"/>
<path d="M4212 3193 c3 -73 4 -78 27 -81 12 -2 34 -1 47 2 23 6 24 11 24 81
l0 75 -50 0 -51 0 3 -77z"/>
<path d="M7851 2918 l-1 -58 38 2 c36 1 36 1 5 5 -43 6 -47 40 -5 46 l27 4
-27 2 c-21 1 -28 7 -31 29 -2 15 -5 1 -6 -30z"/>
<path d="M9098 2959 c-8 -25 7 -92 22 -96 12 -4 12 -2 2 5 -8 5 -12 25 -11 50
3 41 -5 65 -13 41z"/>
<path d="M10793 2915 c0 -33 2 -45 4 -27 2 18 2 45 0 60 -2 15 -4 0 -4 -33z"/>
<path d="M7982 2936 c7 -8 15 -12 17 -11 5 6 -10 25 -20 25 -5 0 -4 -6 3 -14z"/>
<path d="M8020 2946 c0 -2 7 -7 16 -10 8 -3 12 -2 9 4 -6 10 -25 14 -25 6z"/>
<path d="M8420 2940 c-8 -5 -12 -11 -10 -14 3 -2 14 2 24 10 22 15 10 19 -14
4z"/>
<path d="M8609 2933 c-13 -17 -13 -17 6 -3 11 8 22 16 24 17 2 2 0 3 -6 3 -6
0 -17 -8 -24 -17z"/>
<path d="M8773 2939 c23 -13 22 -29 -2 -29 -11 0 -22 -4 -25 -9 -3 -4 6 -6 19
-3 32 6 33 -15 3 -28 -22 -8 -21 -9 5 -7 23 1 27 6 27 32 0 31 -15 55 -34 55
-6 0 -3 -5 7 -11z"/>
<path d="M9003 2905 c0 -27 2 -38 4 -22 2 15 2 37 0 50 -2 12 -4 0 -4 -28z"/>
<path d="M9154 2910 c1 -36 5 -45 21 -48 18 -4 19 -3 3 10 -9 7 -19 29 -21 48
-3 26 -4 24 -3 -10z"/>
<path d="M9260 2940 c-8 -5 -12 -12 -9 -15 4 -3 12 1 19 10 14 17 11 19 -10 5z"/>
<path d="M9315 2940 c-3 -6 1 -7 9 -4 18 7 21 14 7 14 -6 0 -13 -4 -16 -10z"/>
<path d="M9450 2935 c-19 -22 -8 -25 13 -3 9 10 13 18 8 18 -5 0 -14 -7 -21
-15z"/>
<path d="M9583 2905 c0 -27 2 -38 4 -22 2 15 2 37 0 50 -2 12 -4 0 -4 -28z"/>
<path d="M9617 2940 c6 -8 13 -31 16 -50 l4 -35 1 36 c1 24 -4 41 -15 50 -16
12 -16 12 -6 -1z"/>
<path d="M9668 2938 c6 -7 12 -29 15 -48 4 -34 4 -34 5 6 2 31 -2 44 -14 48
-13 5 -14 3 -6 -6z"/>
<path d="M9753 2939 c23 -13 22 -29 -2 -29 -11 0 -22 -4 -25 -9 -3 -4 6 -6 19
-3 32 6 33 -15 3 -28 -22 -8 -21 -9 5 -7 23 1 27 6 27 32 0 31 -15 55 -34 55
-6 0 -3 -5 7 -11z"/>
<path d="M9850 2929 c-11 -20 -12 -20 -26 -2 -14 17 -14 16 -4 -6 9 -17 9 -26
1 -34 -19 -19 -12 -28 8 -9 10 9 18 19 17 22 0 3 5 15 12 28 7 12 10 22 8 22
-3 0 -10 -9 -16 -21z"/>
<path d="M9972 2936 c7 -8 15 -12 17 -11 5 6 -10 25 -20 25 -5 0 -4 -6 3 -14z"/>
<path d="M10010 2946 c0 -2 7 -7 16 -10 8 -3 12 -2 9 4 -6 10 -25 14 -25 6z"/>
<path d="M10314 2910 c1 -36 5 -45 21 -48 18 -4 19 -3 3 10 -9 7 -19 29 -21
48 -3 26 -4 24 -3 -10z"/>
<path d="M10543 2890 c0 -36 2 -55 4 -43 3 14 9 20 19 16 16 -6 44 13 44 30 0
6 -6 2 -14 -8 -20 -28 -44 -12 -49 32 -2 21 -4 9 -4 -27z"/>
<path d="M10588 2932 c9 -10 19 -17 21 -16 6 5 -20 34 -30 34 -5 0 -1 -8 9
-18z"/>
<path d="M10839 2933 c-13 -17 -13 -17 6 -3 11 8 22 16 24 17 2 2 0 3 -6 3 -6
0 -17 -8 -24 -17z"/>
<path d="M10940 2940 c-8 -5 -12 -12 -9 -15 4 -3 12 1 19 10 14 17 11 19 -10
5z"/>
<path d="M7943 2900 c0 -25 2 -35 4 -22 2 12 2 32 0 45 -2 12 -4 2 -4 -23z"/>
<path d="M8227 2933 c-11 -11 -8 -48 5 -61 14 -14 44 -16 52 -4 2 4 -7 8 -21
7 -14 0 -28 6 -30 13 -3 8 6 12 26 12 31 0 43 21 21 35 -6 3 -7 -1 -4 -9 5
-12 -1 -16 -21 -16 -20 0 -26 4 -21 15 6 16 3 19 -7 8z"/>
<path d="M8468 2933 c-2 -5 -1 -26 3 -48 l6 -40 2 48 c1 44 -3 57 -11 40z"/>
<path d="M8540 2900 c0 -22 2 -40 4 -40 2 0 6 18 8 40 2 22 0 40 -4 40 -5 0
-8 -18 -8 -40z"/>
<path d="M8874 2926 c-14 -36 23 -83 46 -60 8 8 4 10 -12 10 -19 -1 -23 4 -23
32 0 35 -3 40 -11 18z"/>
<path d="M8963 2900 c0 -25 2 -35 4 -22 2 12 2 32 0 45 -2 12 -4 2 -4 -23z"/>
<path d="M9933 2900 c0 -25 2 -35 4 -22 2 12 2 32 0 45 -2 12 -4 2 -4 -23z"/>
<path d="M10077 2933 c-22 -21 2 -74 33 -72 9 0 5 4 -9 10 -19 7 -22 15 -19
39 5 32 5 33 -5 23z"/>
<path d="M10126 2927 c3 -10 9 -15 12 -12 3 3 0 11 -7 18 -10 9 -11 8 -5 -6z"/>
<path d="M10217 2933 c-22 -21 2 -74 33 -72 9 0 5 4 -9 10 -19 7 -22 15 -19
39 5 32 5 33 -5 23z"/>
<path d="M10273 2885 c0 -33 2 -45 4 -27 2 18 2 45 0 60 -2 15 -4 0 -4 -33z"/>
<path d="M10407 2933 c-11 -11 -8 -48 5 -61 14 -14 44 -16 52 -4 2 4 -7 8 -21
7 -14 0 -28 6 -30 13 -3 8 6 12 26 12 31 0 43 21 21 35 -6 3 -7 -1 -4 -9 5
-12 -1 -16 -21 -16 -20 0 -26 4 -21 15 6 16 3 19 -7 8z"/>
<path d="M10644 2900 c1 -26 6 -35 19 -36 11 -1 12 0 3 3 -8 2 -17 19 -19 36
-4 31 -4 31 -3 -3z"/>
<path d="M10693 2900 c0 -25 2 -35 4 -22 2 12 2 32 0 45 -2 12 -4 2 -4 -23z"/>
<path d="M10737 2933 c-22 -21 2 -74 33 -72 9 0 5 4 -9 10 -19 7 -22 15 -19
39 5 32 5 33 -5 23z"/>
<path d="M4223 2913 c-9 -3 -13 -29 -13 -79 l0 -74 50 0 50 0 0 74 c0 58 -3
75 -16 80 -18 7 -53 7 -71 -1z"/>
<path d="M8191 2904 c0 -11 3 -14 6 -6 3 7 2 16 -1 19 -3 4 -6 -2 -5 -13z"/>
<path d="M9501 2902 c-1 -13 -10 -26 -23 -32 -16 -6 -18 -9 -7 -9 22 -1 42 24
36 46 -4 14 -5 13 -6 -5z"/>
<path d="M10860 2910 l-35 -7 38 -2 c20 0 37 4 37 9 0 6 -1 9 -2 9 -2 -1 -19
-5 -38 -9z"/>
<path d="M8618 2903 c12 -2 30 -2 40 0 9 3 -1 5 -23 4 -22 0 -30 -2 -17 -4z"/>
<path d="M9328 2903 c6 -2 18 -2 25 0 6 3 1 5 -13 5 -14 0 -19 -2 -12 -5z"/>
<path d="M9304 2880 c1 -8 10 -16 21 -17 15 -1 15 0 3 3 -9 3 -19 11 -21 17
-2 7 -3 5 -3 -3z"/>
<path d="M8410 2881 c0 -9 30 -24 36 -18 2 1 -6 8 -16 15 -11 7 -20 8 -20 3z"/>
<path d="M8165 2870 c-16 -7 -17 -9 -3 -9 9 -1 20 4 23 9 7 11 7 11 -20 0z"/>
<path d="M8607 2868 c2 -5 13 -8 23 -8 10 0 21 3 23 8 3 4 -8 7 -23 7 -15 0
-26 -3 -23 -7z"/>
<path d="M10865 2870 c-16 -7 -17 -9 -3 -9 9 -1 20 4 23 9 7 11 7 11 -20 0z"/>
<path d="M8321 2854 c0 -11 3 -14 6 -6 3 7 2 16 -1 19 -3 4 -6 -2 -5 -13z"/>
<path d="M8433 2833 c9 -2 23 -2 30 0 6 3 -1 5 -18 5 -16 0 -22 -2 -12 -5z"/>
<path d="M10859 2713 c0 -10 -1 -33 -2 -51 -1 -19 1 -36 5 -39 5 -2 8 21 8 51
0 31 -2 56 -5 56 -3 0 -5 -8 -6 -17z"/>
<path d="M7713 2650 c0 -36 2 -55 4 -43 3 14 9 20 19 16 16 -6 44 13 44 30 0
6 -6 2 -14 -8 -20 -28 -44 -12 -49 32 -2 21 -4 9 -4 -27z"/>
<path d="M7758 2692 c9 -10 19 -17 21 -16 6 5 -20 34 -30 34 -5 0 -1 -8 9 -18z"/>
<path d="M7843 2699 c23 -13 22 -29 -2 -29 -11 0 -22 -4 -25 -9 -3 -4 6 -6 19
-3 32 6 33 -15 3 -28 -22 -8 -21 -9 5 -7 23 1 27 6 27 32 0 31 -15 55 -34 55
-6 0 -3 -5 7 -11z"/>
<path d="M7993 2699 c23 -13 22 -29 -2 -29 -11 0 -22 -4 -25 -9 -3 -4 6 -6 19
-3 32 6 33 -15 3 -28 -22 -8 -21 -9 5 -7 23 1 27 6 27 32 0 31 -15 55 -34 55
-6 0 -3 -5 7 -11z"/>
<path d="M8105 2700 c-3 -6 1 -7 9 -4 18 7 21 14 7 14 -6 0 -13 -4 -16 -10z"/>
<path d="M8239 2693 c-13 -17 -13 -17 6 -3 11 8 22 16 24 17 2 2 0 3 -6 3 -6
0 -17 -8 -24 -17z"/>
<path d="M8330 2695 c-14 -17 -5 -35 18 -34 15 1 15 2 0 6 -10 2 -18 8 -18 13
0 5 8 14 18 19 9 6 12 11 6 11 -6 0 -17 -7 -24 -15z"/>
<path d="M8621 2707 c2 -1 13 -9 24 -17 19 -14 19 -14 6 3 -7 9 -18 17 -24 17
-6 0 -8 -1 -6 -3z"/>
<path d="M8690 2665 c0 -27 2 -46 4 -44 8 8 10 78 3 85 -4 4 -7 -14 -7 -41z"/>
<path d="M9035 2700 c-3 -6 1 -7 9 -4 18 7 21 14 7 14 -6 0 -13 -4 -16 -10z"/>
<path d="M9119 2693 c-13 -17 -13 -17 6 -3 11 8 22 16 24 17 2 2 0 3 -6 3 -6
0 -17 -8 -24 -17z"/>
<path d="M9304 2670 c1 -36 5 -45 21 -48 18 -4 19 -3 3 10 -9 7 -19 29 -21 48
-3 26 -4 24 -3 -10z"/>
<path d="M9459 2693 c-13 -17 -13 -17 6 -3 11 8 22 16 24 17 2 2 0 3 -6 3 -6
0 -17 -8 -24 -17z"/>
<path d="M9711 2707 c2 -1 13 -9 24 -17 19 -14 19 -14 6 3 -7 9 -18 17 -24 17
-6 0 -8 -1 -6 -3z"/>
<path d="M9780 2665 c0 -27 2 -46 4 -44 8 8 10 78 3 85 -4 4 -7 -14 -7 -41z"/>
<path d="M9911 2707 c2 -1 13 -9 24 -17 19 -14 19 -14 6 3 -7 9 -18 17 -24 17
-6 0 -8 -1 -6 -3z"/>
<path d="M10053 2699 c11 -6 18 -24 19 -47 l1 -37 4 33 c4 34 -10 62 -31 62
-6 0 -3 -5 7 -11z"/>
<path d="M10131 2707 c2 -1 13 -9 24 -17 19 -14 19 -14 6 3 -7 9 -18 17 -24
17 -6 0 -8 -1 -6 -3z"/>
<path d="M10221 2707 c2 -1 13 -9 24 -17 19 -14 19 -14 6 3 -7 9 -18 17 -24
17 -6 0 -8 -1 -6 -3z"/>
<path d="M10345 2700 c-3 -6 1 -7 9 -4 18 7 21 14 7 14 -6 0 -13 -4 -16 -10z"/>
<path d="M10429 2693 c-13 -17 -13 -17 6 -3 11 8 22 16 24 17 2 2 0 3 -6 3 -6
0 -17 -8 -24 -17z"/>
<path d="M10614 2670 c1 -36 5 -45 21 -48 18 -4 19 -3 3 10 -9 7 -19 29 -21
48 -3 26 -4 24 -3 -10z"/>
<path d="M10743 2699 c11 -6 18 -24 19 -47 l1 -37 4 33 c4 34 -10 62 -31 62
-6 0 -3 -5 7 -11z"/>
<path d="M10809 2693 c-13 -17 -13 -17 6 -3 11 8 22 16 24 17 2 2 0 3 -6 3 -6
0 -17 -8 -24 -17z"/>
<path d="M10921 2707 c2 -1 13 -9 24 -17 19 -14 19 -14 6 3 -7 9 -18 17 -24
17 -6 0 -8 -1 -6 -3z"/>
<path d="M11010 2706 c0 -2 7 -7 16 -10 8 -3 12 -2 9 4 -6 10 -25 14 -25 6z"/>
<path d="M7900 2660 c0 -22 2 -40 4 -40 2 0 6 18 8 40 2 22 0 40 -4 40 -5 0
-8 -18 -8 -40z"/>
<path d="M8455 2690 c3 -5 8 -10 11 -10 2 0 4 5 4 10 0 6 -5 10 -11 10 -5 0
-7 -4 -4 -10z"/>
<path d="M8502 2675 c0 -16 2 -22 5 -12 2 9 2 23 0 30 -3 6 -5 -1 -5 -18z"/>
<path d="M8558 2664 c-2 -19 0 -37 4 -40 4 -3 8 13 8 35 0 51 -6 53 -12 5z"/>
<path d="M8795 2690 c3 -5 8 -10 11 -10 2 0 4 5 4 10 0 6 -5 10 -11 10 -5 0
-7 -4 -4 -10z"/>
<path d="M9207 2693 c-19 -19 1 -73 27 -73 5 0 2 6 -9 13 -12 10 -16 22 -13
40 6 29 5 31 -5 20z"/>
<path d="M9262 2653 c-2 -48 -4 -52 -29 -56 l-28 -4 28 -2 c33 -1 40 12 34 70
l-4 44 -1 -52z"/>
<path d="M9390 2660 c0 -22 2 -40 4 -40 2 0 6 18 8 40 2 22 0 40 -4 40 -5 0
-8 -18 -8 -40z"/>
<path d="M9593 2645 c0 -33 2 -50 4 -38 3 14 9 20 19 16 8 -3 21 0 29 7 16 13
21 55 7 63 -4 3 -7 -9 -7 -26 0 -25 -4 -32 -20 -32 -15 0 -22 9 -26 35 -5 27
-6 21 -6 -25z"/>
<path d="M10013 2660 c0 -25 2 -35 4 -22 2 12 2 32 0 45 -2 12 -4 2 -4 -23z"/>
<path d="M10517 2693 c-19 -19 1 -73 27 -73 5 0 2 6 -9 13 -12 10 -16 22 -13
40 6 29 5 31 -5 20z"/>
<path d="M10572 2653 c-2 -48 -4 -52 -29 -56 l-28 -4 28 -2 c33 -1 40 12 34
70 l-4 44 -1 -52z"/>
<path d="M10703 2660 c0 -25 2 -35 4 -22 2 12 2 32 0 45 -2 12 -4 2 -4 -23z"/>
<path d="M10991 2687 c-1 -10 9 -21 24 -27 33 -13 33 -34 -1 -27 -16 3 -22 1
-16 -5 14 -14 47 -5 47 12 0 8 -10 19 -22 25 -12 5 -24 16 -27 25 -3 11 -4 11
-5 -3z"/>
<path d="M8401 2665 c-1 -25 17 -45 39 -44 10 0 9 3 -5 8 -11 4 -23 19 -26 32
-6 21 -7 21 -8 4z"/>
<path d="M8590 2660 c0 -31 49 -55 64 -32 2 4 -7 8 -21 7 -39 0 -40 23 -1 27
l33 3 -37 6 c-30 4 -38 2 -38 -11z"/>
<path d="M8741 2665 c-1 -25 17 -45 39 -44 10 0 9 3 -5 8 -11 4 -23 19 -26 32
-6 21 -7 21 -8 4z"/>
<path d="M8880 2670 l-25 -8 24 -1 c16 -1 21 -5 18 -16 -4 -8 -2 -17 3 -20 6
-4 10 7 10 24 0 17 -1 31 -2 30 -2 -1 -14 -5 -28 -9z"/>
<path d="M9037 2669 c7 -7 15 -10 18 -7 3 3 -2 9 -12 12 -14 6 -15 5 -6 -5z"/>
<path d="M9480 2670 l-35 -7 38 -2 c20 0 37 4 37 9 0 6 -1 9 -2 9 -2 -1 -19
-5 -38 -9z"/>
<path d="M9681 2664 c0 -11 3 -14 6 -6 3 7 2 16 -1 19 -3 4 -6 -2 -5 -13z"/>
<path d="M9881 2664 c0 -11 3 -14 6 -6 3 7 2 16 -1 19 -3 4 -6 -2 -5 -13z"/>
<path d="M10101 2664 c0 -11 3 -14 6 -6 3 7 2 16 -1 19 -3 4 -6 -2 -5 -13z"/>
<path d="M10191 2664 c0 -11 3 -14 6 -6 3 7 2 16 -1 19 -3 4 -6 -2 -5 -13z"/>
<path d="M10347 2669 c7 -7 15 -10 18 -7 3 3 -2 9 -12 12 -14 6 -15 5 -6 -5z"/>
<path d="M10450 2670 l-35 -7 38 -2 c20 0 37 4 37 9 0 6 -1 9 -2 9 -2 -1 -19
-5 -38 -9z"/>
<path d="M10891 2664 c0 -11 3 -14 6 -6 3 7 2 16 -1 19 -3 4 -6 -2 -5 -13z"/>
<path d="M8118 2663 c6 -2 18 -2 25 0 6 3 1 5 -13 5 -14 0 -19 -2 -12 -5z"/>
<path d="M8248 2663 c12 -2 30 -2 40 0 9 3 -1 5 -23 4 -22 0 -30 -2 -17 -4z"/>
<path d="M9128 2663 c12 -2 30 -2 40 0 9 3 -1 5 -23 4 -22 0 -30 -2 -17 -4z"/>
<path d="M8094 2640 c1 -8 10 -16 21 -17 15 -1 15 0 3 3 -9 3 -19 11 -21 17
-2 7 -3 5 -3 -3z"/>
<path d="M8370 2646 c0 -14 -6 -17 -25 -14 -13 3 -22 1 -19 -3 9 -15 44 -10
51 6 3 9 3 19 -1 22 -3 4 -6 -2 -6 -11z"/>
<path d="M8844 2640 c1 -8 10 -16 21 -17 15 -1 15 0 3 3 -9 3 -19 11 -21 17
-2 7 -3 5 -3 -3z"/>
<path d="M9740 2641 c0 -9 -9 -12 -25 -9 -13 3 -22 1 -19 -3 7 -13 42 -11 49
2 4 6 4 13 1 16 -3 4 -6 1 -6 -6z"/>
<path d="M10250 2641 c0 -9 -9 -12 -25 -9 -13 3 -22 1 -19 -3 7 -13 42 -11 49
2 4 6 4 13 1 16 -3 4 -6 1 -6 -6z"/>
<path d="M10803 2640 c2 -8 12 -16 23 -17 13 -2 15 -1 4 4 -8 3 -19 11 -23 17
-6 7 -7 6 -4 -4z"/>
<path d="M10950 2641 c0 -9 -9 -12 -25 -9 -13 3 -22 1 -19 -3 7 -13 42 -11 49
2 4 6 4 13 1 16 -3 4 -6 1 -6 -6z"/>
<path d="M8237 2628 c2 -5 13 -8 23 -8 10 0 21 3 23 8 3 4 -8 7 -23 7 -15 0
-26 -3 -23 -7z"/>
<path d="M8517 2629 c7 -7 15 -10 18 -7 3 3 -2 9 -12 12 -14 6 -15 5 -6 -5z"/>
<path d="M9027 2628 c2 -5 13 -8 23 -8 10 0 21 3 23 8 3 4 -8 7 -23 7 -15 0
-26 -3 -23 -7z"/>
<path d="M9117 2628 c2 -5 13 -8 23 -8 10 0 21 3 23 8 3 4 -8 7 -23 7 -15 0
-26 -3 -23 -7z"/>
<path d="M9485 2630 c-16 -7 -17 -9 -3 -9 9 -1 20 4 23 9 7 11 7 11 -20 0z"/>
<path d="M9897 2628 c2 -5 13 -8 23 -8 10 0 21 3 23 8 3 4 -8 7 -23 7 -15 0
-26 -3 -23 -7z"/>
<path d="M10117 2628 c2 -5 13 -8 23 -8 10 0 21 3 23 8 3 4 -8 7 -23 7 -15 0
-26 -3 -23 -7z"/>
<path d="M10337 2628 c2 -5 13 -8 23 -8 10 0 21 3 23 8 3 4 -8 7 -23 7 -15 0
-26 -3 -23 -7z"/>
<path d="M10455 2630 c-16 -7 -17 -9 -3 -9 9 -1 20 4 23 9 7 11 7 11 -20 0z"/>
<path d="M8643 2435 c0 -33 2 -48 4 -32 2 15 11 27 18 27 8 0 21 -12 29 -27 8
-16 15 -23 15 -18 1 6 -3 16 -8 24 -6 9 -5 21 1 31 13 20 4 50 -14 49 -10 0
-10 -2 0 -6 6 -2 12 -13 12 -24 0 -13 -7 -19 -24 -19 -19 0 -26 6 -29 28 -2
15 -4 0 -4 -33z"/>
<path d="M8968 2478 c-8 -22 7 -91 20 -94 7 -1 8 0 2 3 -12 6 -13 70 -1 75 5
2 3 8 -4 15 -10 9 -15 9 -17 1z"/>
<path d="M9739 2473 c0 -10 -1 -33 -2 -51 -1 -19 1 -36 5 -39 5 -2 8 21 8 51
0 31 -2 56 -5 56 -3 0 -5 -8 -6 -17z"/>
<path d="M10008 2479 c-8 -25 7 -92 22 -96 12 -4 12 -2 2 5 -8 5 -12 25 -11
50 3 41 -5 65 -13 41z"/>
<path d="M8749 2453 c-13 -17 -13 -17 6 -3 11 8 22 16 24 17 2 2 0 3 -6 3 -6
0 -17 -8 -24 -17z"/>
<path d="M8833 2410 c0 -36 2 -55 4 -43 3 14 9 20 19 16 16 -6 44 13 44 30 0
6 -6 2 -14 -8 -20 -28 -44 -12 -49 32 -2 21 -4 9 -4 -27z"/>
<path d="M8878 2452 c9 -10 19 -17 21 -16 6 5 -20 34 -30 34 -5 0 -1 -8 9 -18z"/>
<path d="M9035 2460 c-3 -6 1 -7 9 -4 18 7 21 14 7 14 -6 0 -13 -4 -16 -10z"/>
<path d="M9163 2410 c0 -36 2 -55 4 -43 3 14 9 20 19 16 16 -6 44 13 44 30 0
6 -6 2 -14 -8 -20 -28 -44 -12 -49 32 -2 21 -4 9 -4 -27z"/>
<path d="M9208 2452 c9 -10 19 -17 21 -16 6 5 -20 34 -30 34 -5 0 -1 -8 9 -18z"/>
<path d="M9293 2459 c23 -13 22 -29 -2 -29 -11 0 -22 -4 -25 -9 -3 -4 6 -6 19
-3 32 6 33 -15 3 -28 -22 -8 -21 -9 5 -7 23 1 27 6 27 32 0 31 -15 55 -34 55
-6 0 -3 -5 7 -11z"/>
<path d="M9555 2460 c-3 -6 1 -7 9 -4 18 7 21 14 7 14 -6 0 -13 -4 -16 -10z"/>
<path d="M9689 2453 c-13 -17 -13 -17 6 -3 11 8 22 16 24 17 2 2 0 3 -6 3 -6
0 -17 -8 -24 -17z"/>
<path d="M9830 2460 c-8 -5 -12 -12 -9 -15 4 -3 12 1 19 10 14 17 11 19 -10 5z"/>
<path d="M9879 2453 c-13 -17 -13 -17 6 -3 11 8 22 16 24 17 2 2 0 3 -6 3 -6
0 -17 -8 -24 -17z"/>
<path d="M10070 2460 c-8 -5 -10 -10 -5 -10 6 0 17 5 25 10 8 5 11 10 5 10 -5
0 -17 -5 -25 -10z"/>
<path d="M8933 2420 c0 -25 2 -35 4 -22 2 12 2 32 0 45 -2 12 -4 2 -4 -23z"/>
<path d="M9350 2420 c0 -22 2 -40 4 -40 2 0 6 18 8 40 2 22 0 40 -4 40 -5 0
-8 -18 -8 -40z"/>
<path d="M10110 2445 c0 -8 -9 -15 -19 -15 -11 0 -22 -4 -25 -9 -3 -4 5 -6 18
-4 19 4 25 0 29 -18 2 -14 5 -6 6 19 0 23 -1 42 -4 42 -3 0 -5 -7 -5 -15z"/>
<path d="M9440 2430 l-25 -8 24 -1 c16 -1 21 -5 18 -16 -4 -8 -2 -17 3 -20 6
-4 10 7 10 24 0 17 -1 31 -2 30 -2 -1 -14 -5 -28 -9z"/>
<path d="M9900 2430 l-35 -7 38 -2 c20 0 37 4 37 9 0 6 -1 9 -2 9 -2 -1 -19
-5 -38 -9z"/>
<path d="M8758 2423 c12 -2 30 -2 40 0 9 3 -1 5 -23 4 -22 0 -30 -2 -17 -4z"/>
<path d="M9048 2423 c6 -2 18 -2 25 0 6 3 1 5 -13 5 -14 0 -19 -2 -12 -5z"/>
<path d="M9568 2423 c6 -2 18 -2 25 0 6 3 1 5 -13 5 -14 0 -19 -2 -12 -5z"/>
<path d="M9024 2400 c1 -8 10 -16 21 -17 15 -1 15 0 3 3 -9 3 -19 11 -21 17
-2 7 -3 5 -3 -3z"/>
<path d="M9404 2400 c1 -8 10 -16 21 -17 15 -1 15 0 3 3 -9 3 -19 11 -21 17
-2 7 -3 5 -3 -3z"/>
<path d="M9544 2400 c1 -8 10 -16 21 -17 15 -1 15 0 3 3 -9 3 -19 11 -21 17
-2 7 -3 5 -3 -3z"/>
<path d="M9683 2400 c2 -8 12 -16 23 -17 13 -2 15 -1 4 4 -8 3 -19 11 -23 17
-6 7 -7 6 -4 -4z"/>
<path d="M8747 2388 c2 -5 13 -8 23 -8 10 0 21 3 23 8 3 4 -8 7 -23 7 -15 0
-26 -3 -23 -7z"/>
<path d="M9905 2390 c-16 -7 -17 -9 -3 -9 9 -1 20 4 23 9 7 11 7 11 -20 0z"/>
<path d="M10068 2388 c5 -5 16 -8 23 -6 8 3 3 7 -10 11 -17 4 -21 3 -13 -5z"/>
<path d="M7670 1760 c-19 -19 -20 -33 -20 -220 0 -187 1 -201 20 -220 20 -20
33 -20 815 -20 782 0 795 0 815 20 19 19 20 33 20 220 0 187 -1 201 -20 220
-20 20 -33 20 -815 20 -782 0 -795 0 -815 -20z m1040 -171 c0 -5 -7 -9 -15 -9
-15 0 -20 12 -9 23 8 8 24 -1 24 -14z m-362 -1 c-3 -7 -17 -14 -31 -16 -34 -4
-35 -22 -2 -22 14 0 25 -4 25 -10 0 -5 -11 -10 -25 -10 -20 0 -25 -5 -25 -25
0 -16 -6 -25 -15 -25 -12 0 -15 13 -15 60 l0 60 46 0 c32 0 44 -4 42 -12z
m132 -48 c0 -47 -3 -60 -15 -60 -12 0 -15 13 -15 60 0 47 3 60 15 60 12 0 15
-13 15 -60z m30 46 c0 -9 12 -16 28 -18 24 -3 27 -7 30 -45 2 -34 0 -43 -12
-43 -12 0 -16 10 -16 35 0 19 -4 35 -10 35 -5 0 -10 -16 -10 -35 0 -24 -5 -35
-15 -35 -12 0 -15 13 -15 60 0 33 4 60 10 60 6 0 10 -6 10 -14z m-82 -62 c3
-38 1 -42 -25 -47 -53 -10 -72 32 -25 58 l27 15 -30 -7 c-27 -6 -29 -5 -16 11
9 10 25 16 40 14 23 -3 26 -8 29 -44z m236 30 c22 -56 -15 -99 -60 -69 -26 17
-30 35 -14 66 13 24 65 26 74 3z m46 -29 c0 -33 -4 -45 -15 -45 -11 0 -15 12
-15 45 0 33 4 45 15 45 11 0 15 -12 15 -45z"/>
<path d="M3545 1528 c-28 -16 -35 -28 -35 -65 0 -62 66 -96 105 -53 23 25 12
39 -13 17 -35 -32 -72 -14 -72 34 0 26 22 59 38 59 4 0 18 -7 30 -16 27 -19
37 -14 19 8 -17 22 -48 29 -72 16z"/>
<path d="M3660 1530 c0 -5 5 -10 10 -10 6 0 10 5 10 10 0 6 -4 10 -10 10 -5 0
-10 -4 -10 -10z"/>
<path d="M3830 1460 c0 -40 4 -70 10 -70 6 0 10 30 10 70 0 40 -4 70 -10 70
-6 0 -10 -30 -10 -70z"/>
<path d="M4870 1503 c0 -21 -3 -24 -12 -15 -19 19 -36 14 -54 -13 -30 -46 12
-107 51 -75 11 9 15 9 15 1 0 -6 5 -11 10 -11 6 0 10 30 10 70 0 40 -4 70 -10
70 -5 0 -10 -12 -10 -27z m-5 -58 c0 -23 -5 -31 -21 -33 -24 -3 -38 20 -28 50
4 13 13 18 27 16 17 -2 22 -10 22 -33z"/>
<path d="M3660 1445 c0 -30 5 -55 10 -55 6 0 10 25 10 55 0 30 -4 55 -10 55
-5 0 -10 -25 -10 -55z"/>
<path d="M3728 1489 c-21 -12 -24 -69 -6 -87 7 -7 22 -12 34 -12 23 0 51 26
40 37 -4 4 -11 1 -15 -6 -14 -22 -46 -8 -49 22 -4 32 20 46 43 27 9 -7 19 -10
23 -6 8 8 -26 36 -42 36 -6 0 -19 -5 -28 -11z"/>
<path d="M3898 1489 c-21 -12 -24 -69 -6 -87 7 -7 21 -12 33 -12 30 0 45 19
45 57 0 44 -34 64 -72 42z m47 -44 c0 -23 -5 -31 -22 -33 -20 -3 -23 1 -23 33
0 32 3 36 23 33 17 -2 22 -10 22 -33z"/>
<path d="M4068 1489 c-21 -12 -24 -69 -6 -87 16 -16 53 -15 68 3 10 12 6 13
-23 8 -26 -4 -36 -1 -40 11 -5 13 1 16 33 16 44 0 52 16 24 44 -18 18 -32 20
-56 5z m50 -26 c2 -8 -6 -13 -22 -13 -17 0 -26 5 -26 16 0 19 41 16 48 -3z"/>
<path d="M4170 1445 c0 -65 17 -74 22 -12 2 34 7 42 23 42 16 0 21 -8 23 -42
4 -56 22 -55 22 1 0 53 -21 77 -51 58 -11 -7 -19 -8 -19 -2 0 5 -4 10 -10 10
-5 0 -10 -25 -10 -55z"/>
<path d="M4308 1489 c-21 -12 -24 -69 -6 -87 19 -19 56 -14 68 8 11 20 -3 30
-15 10 -3 -5 -15 -10 -26 -10 -15 0 -19 7 -19 30 0 35 22 49 45 30 22 -18 29
-6 10 14 -19 18 -33 20 -57 5z"/>
<path d="M4413 1474 c-15 -24 -15 -29 -2 -53 11 -19 23 -26 44 -26 15 0 30 5
32 12 3 7 -8 10 -28 10 -18 -1 -34 4 -36 11 -3 8 8 12 36 12 45 0 48 5 25 38
-20 29 -50 28 -71 -4z m65 -11 c2 -9 -7 -13 -27 -13 -30 0 -39 9 -24 24 11 10
46 3 51 -11z"/>
<path d="M4532 1445 c1 -39 3 -47 5 -23 3 24 12 43 25 53 12 8 19 18 15 21 -4
4 -13 2 -21 -5 -11 -9 -15 -9 -19 1 -3 7 -5 -14 -5 -47z"/>
<path d="M4612 1445 c1 -39 3 -47 5 -23 3 24 12 43 25 53 12 8 19 18 15 21 -4
4 -13 2 -21 -5 -11 -9 -15 -9 -19 1 -3 7 -5 -14 -5 -47z"/>
<path d="M4691 1486 c-10 -12 -7 -14 16 -13 38 3 44 -17 7 -23 -23 -4 -29 -10
-29 -30 0 -22 4 -25 38 -25 l37 -1 0 47 c0 34 -5 49 -16 53 -25 9 -41 7 -53
-8z m59 -56 c0 -12 -35 -31 -44 -23 -15 15 -4 33 19 33 14 0 25 -4 25 -10z"/>
<path d="M4938 1489 c-21 -12 -24 -69 -6 -87 17 -17 53 -15 68 3 18 22 15 66
-6 82 -21 15 -33 16 -56 2z m57 -28 c9 -29 -5 -52 -29 -49 -37 5 -34 68 3 68
11 0 22 -8 26 -19z"/>
</g>
</svg>
